<?xml version="1.0" encoding="UTF-8" standalone="no"?>
<!DOCTYPE svg PUBLIC "-//W3C//DTD SVG 1.1//EN"
 "http://www.w3.org/Graphics/SVG/1.1/DTD/svg11.dtd">
<!-- Generated by graphviz version 2.43.0 (0)
 -->
<!-- Title: G Pages: 1 -->
<svg width="578pt" height="680pt"
 viewBox="0.00 0.00 577.87 679.68" xmlns="http://www.w3.org/2000/svg" xmlns:xlink="http://www.w3.org/1999/xlink">
<g id="graph0" class="graph" transform="scale(1 1) rotate(0) translate(4 675.68)">
<title>G</title><style>.edge>path:hover{stroke-width:8}</style>
<polygon fill="white" stroke="transparent" points="-4,4 -4,-675.68 573.87,-675.68 573.87,4 -4,4"/>
<!-- opencf -->
<g id="node1" class="node">
<title>opencf</title><style>.edge>path:hover{stroke-width:8}</style>
<ellipse fill="#266573" stroke="black" cx="540.43" cy="-318" rx="29.37" ry="18"/>
<text text-anchor="middle" x="540.43" y="-315.5" font-family="Helvetica,sans-Serif" font-size="10.00" fill="#ffffff">opencf</text>
</g>
<!-- PIL -->
<g id="node2" class="node">
<title>PIL</title><style>.edge>path:hover{stroke-width:8}</style>
<polygon fill="#bf2121" stroke="black" points="362,-381 359,-385 338,-385 335,-381 308,-381 308,-345 362,-345 362,-381"/>
<text text-anchor="middle" x="335" y="-360.5" font-family="Helvetica,sans-Serif" font-size="10.00" fill="#ffffff">PIL</text>
</g>
<!-- PIL&#45;&gt;opencf -->
<g id="edge1" class="edge">
<title>PIL&#45;&gt;opencf</title><style>.edge>path:hover{stroke-width:8}</style>
<path fill="none" stroke="black" d="M353.79,-344.84C377.21,-321.87 417.56,-285.79 436,-290"/>
</g>
<!-- openpyxl -->
<g id="node12" class="node">
<title>openpyxl</title><style>.edge>path:hover{stroke-width:8}</style>
<polygon fill="#3542a1" stroke="black" points="468,-364 465,-368 444,-368 441,-364 406,-364 406,-328 468,-328 468,-364"/>
<text text-anchor="middle" x="437" y="-343.5" font-family="Helvetica,sans-Serif" font-size="10.00" fill="#ffffff">openpyxl</text>
</g>
<!-- PIL&#45;&gt;openpyxl -->
<g id="edge2" class="edge">
<title>PIL&#45;&gt;openpyxl</title><style>.edge>path:hover{stroke-width:8}</style>
<path fill="none" stroke="black" d="M362.01,-358.58C372.29,-356.83 384.34,-354.78 395.7,-352.85"/>
<polygon fill="#bf2121" stroke="black" points="396.59,-356.25 405.87,-351.12 395.42,-349.35 396.59,-356.25"/>
</g>
<!-- pypdf -->
<g id="node15" class="node">
<title>pypdf</title><style>.edge>path:hover{stroke-width:8}</style>
<polygon fill="#933399" stroke="black" points="464,-427 461,-431 440,-431 437,-427 410,-427 410,-391 464,-391 464,-427"/>
<text text-anchor="middle" x="437" y="-406.5" font-family="Helvetica,sans-Serif" font-size="10.00" fill="#ffffff">pypdf</text>
</g>
<!-- PIL&#45;&gt;pypdf -->
<g id="edge3" class="edge">
<title>PIL&#45;&gt;pypdf</title><style>.edge>path:hover{stroke-width:8}</style>
<path fill="none" stroke="black" d="M362.01,-374.97C373.73,-380.35 387.74,-386.8 400.41,-392.63"/>
<polygon fill="#bf2121" stroke="black" points="399.22,-395.93 409.77,-396.93 402.15,-389.58 399.22,-395.93"/>
</g>
<!-- argparse -->
<g id="node3" class="node">
<title>argparse</title><style>.edge>path:hover{stroke-width:8}</style>
<polygon fill="#c27347" stroke="black" points="149,-194 146,-198 125,-198 122,-194 90,-194 90,-158 149,-158 149,-194"/>
<text text-anchor="middle" x="119.5" y="-173.5" font-family="Helvetica,sans-Serif" font-size="10.00" fill="#000000">argparse</text>
</g>
<!-- argparse&#45;&gt;opencf -->
<g id="edge5" class="edge">
<title>argparse&#45;&gt;opencf</title><style>.edge>path:hover{stroke-width:8}</style>
<path fill="none" stroke="black" d="M139.78,-157.88C191.5,-111.53 336.16,3.14 436,-64"/>
<path fill="none" stroke="black" d="M438,-64C515.52,-114.23 533.8,-234.79 538.11,-289.79"/>
<polygon fill="#c27347" stroke="black" points="534.62,-290.13 538.79,-299.87 541.6,-289.66 534.62,-290.13"/>
</g>
<!-- numpy -->
<g id="node10" class="node">
<title>numpy</title><style>.edge>path:hover{stroke-width:8}</style>
<polygon fill="#05d1ad" stroke="black" points="255,-213 252,-217 231,-217 228,-213 201,-213 201,-177 255,-177 255,-213"/>
<text text-anchor="middle" x="228" y="-192.5" font-family="Helvetica,sans-Serif" font-size="10.00" fill="#000000">numpy</text>
</g>
<!-- argparse&#45;&gt;numpy -->
<g id="edge4" class="edge">
<title>argparse&#45;&gt;numpy</title><style>.edge>path:hover{stroke-width:8}</style>
<path fill="none" stroke="black" d="M149.04,-181.09C161.9,-183.39 177.24,-186.12 190.89,-188.56"/>
<polygon fill="#c27347" stroke="black" points="190.48,-192.04 200.94,-190.35 191.71,-185.15 190.48,-192.04"/>
</g>
<!-- aspose -->
<g id="node4" class="node">
<title>aspose</title><style>.edge>path:hover{stroke-width:8}</style>
<polygon fill="#b69953" stroke="black" points="464,-36 461,-40 440,-40 437,-36 410,-36 410,0 464,0 464,-36"/>
<text text-anchor="middle" x="437" y="-15.5" font-family="Helvetica,sans-Serif" font-size="10.00" fill="#000000">aspose</text>
</g>
<!-- aspose&#45;&gt;opencf -->
<g id="edge6" class="edge">
<title>aspose&#45;&gt;opencf</title><style>.edge>path:hover{stroke-width:8}</style>
<path fill="none" stroke="black" d="M463.32,-36.09C467.74,-40.23 471.91,-44.92 475,-50 522.51,-128.04 534.99,-238.74 538.27,-289.98"/>
<polygon fill="#b69953" stroke="black" points="534.78,-290.19 538.84,-299.97 541.76,-289.79 534.78,-290.19"/>
</g>
<!-- cv2 -->
<g id="node5" class="node">
<title>cv2</title><style>.edge>path:hover{stroke-width:8}</style>
<polygon fill="#b4bc2f" stroke="black" points="362,-197 359,-201 338,-201 335,-197 308,-197 308,-161 362,-161 362,-197"/>
<text text-anchor="middle" x="335" y="-176.5" font-family="Helvetica,sans-Serif" font-size="10.00" fill="#000000">cv2</text>
</g>
<!-- cv2&#45;&gt;opencf -->
<g id="edge7" class="edge">
<title>cv2&#45;&gt;opencf</title><style>.edge>path:hover{stroke-width:8}</style>
<path fill="none" stroke="black" d="M351.32,-197.06C377.82,-228.15 429.99,-288.63 436,-290"/>
<path fill="none" stroke="black" d="M438,-290C460.14,-295.05 484.7,-301.8 504.11,-307.41"/>
<polygon fill="#b4bc2f" stroke="black" points="503.17,-310.78 513.75,-310.22 505.13,-304.06 503.17,-310.78"/>
</g>
<!-- pdf2docx -->
<g id="node14" class="node">
<title>pdf2docx</title><style>.edge>path:hover{stroke-width:8}</style>
<polygon fill="#6f3399" stroke="black" points="468,-174 465,-178 444,-178 441,-174 406,-174 406,-138 468,-138 468,-174"/>
<text text-anchor="middle" x="437" y="-153.5" font-family="Helvetica,sans-Serif" font-size="10.00" fill="#ffffff">pdf2docx</text>
</g>
<!-- cv2&#45;&gt;pdf2docx -->
<g id="edge8" class="edge">
<title>cv2&#45;&gt;pdf2docx</title><style>.edge>path:hover{stroke-width:8}</style>
<path fill="none" stroke="black" d="M362.01,-173.02C372.4,-170.63 384.59,-167.82 396.05,-165.19"/>
<polygon fill="#b4bc2f" stroke="black" points="396.9,-168.58 405.87,-162.93 395.34,-161.76 396.9,-168.58"/>
</g>
<!-- fitz -->
<g id="node6" class="node">
<title>fitz</title><style>.edge>path:hover{stroke-width:8}</style>
<polygon fill="#8fc247" stroke="black" points="362,-105 359,-109 338,-109 335,-105 308,-105 308,-69 362,-69 362,-105"/>
<text text-anchor="middle" x="335" y="-84.5" font-family="Helvetica,sans-Serif" font-size="10.00" fill="#000000">fitz</text>
</g>
<!-- fitz&#45;&gt;opencf -->
<g id="edge9" class="edge">
<title>fitz&#45;&gt;opencf</title><style>.edge>path:hover{stroke-width:8}</style>
<path fill="none" stroke="black" d="M362.26,-70.54C383.71,-59.41 413.97,-49.19 436,-64"/>
</g>
<!-- fitz&#45;&gt;pdf2docx -->
<g id="edge10" class="edge">
<title>fitz&#45;&gt;pdf2docx</title><style>.edge>path:hover{stroke-width:8}</style>
<path fill="none" stroke="black" d="M362.01,-104.95C374.07,-113.27 388.57,-123.27 401.52,-132.21"/>
<polygon fill="#8fc247" stroke="black" points="399.55,-135.1 409.77,-137.9 403.53,-129.34 399.55,-135.1"/>
</g>
<!-- generalimport -->
<g id="node7" class="node">
<title>generalimport</title><style>.edge>path:hover{stroke-width:8}</style>
<polygon fill="#56b03a" stroke="black" points="271,-343 268,-347 247,-347 244,-343 185,-343 185,-307 271,-307 271,-343"/>
<text text-anchor="middle" x="228" y="-322.5" font-family="Helvetica,sans-Serif" font-size="10.00" fill="#000000">generalimport</text>
</g>
<!-- generalimport&#45;&gt;opencf -->
<g id="edge11" class="edge">
<title>generalimport&#45;&gt;opencf</title><style>.edge>path:hover{stroke-width:8}</style>
<path fill="none" stroke="black" d="M271.13,-321.47C290.3,-319.95 313.29,-318.24 334,-317"/>
</g>
<!-- imageio -->
<g id="node8" class="node">
<title>imageio</title><style>.edge>path:hover{stroke-width:8}</style>
<polygon fill="#35a142" stroke="black" points="363,-289 360,-293 339,-293 336,-289 307,-289 307,-253 363,-253 363,-289"/>
<text text-anchor="middle" x="335" y="-268.5" font-family="Helvetica,sans-Serif" font-size="10.00" fill="#ffffff">imageio</text>
</g>
<!-- imageio&#45;&gt;opencf -->
<g id="edge12" class="edge">
<title>imageio&#45;&gt;opencf</title><style>.edge>path:hover{stroke-width:8}</style>
<path fill="none" stroke="black" d="M363.27,-275.63C383.44,-279.18 411.53,-284.42 436,-290"/>
</g>
<!-- io -->
<g id="node9" class="node">
<title>io</title><style>.edge>path:hover{stroke-width:8}</style>
<polygon fill="#10f97e" stroke="black" points="54,-427 51,-431 30,-431 27,-427 0,-427 0,-391 54,-391 54,-427"/>
<text text-anchor="middle" x="27" y="-406.5" font-family="Helvetica,sans-Serif" font-size="10.00" fill="#000000">io</text>
</g>
<!-- io&#45;&gt;opencf -->
<g id="edge16" class="edge">
<title>io&#45;&gt;opencf</title><style>.edge>path:hover{stroke-width:8}</style>
<path fill="none" stroke="black" d="M120.5,-611C238.51,-686.76 320.64,-694.73 436,-615"/>
</g>
<!-- io&#45;&gt;PIL -->
<g id="edge13" class="edge">
<title>io&#45;&gt;PIL</title><style>.edge>path:hover{stroke-width:8}</style>
<path fill="none" stroke="black" d="M54.33,-406.68C72.5,-405.65 97.12,-405.37 118.5,-409"/>
<path fill="none" stroke="black" d="M120.5,-409C183.62,-419.73 256.35,-396.3 298.56,-379.1"/>
<polygon fill="#10f97e" stroke="black" points="299.97,-382.3 307.85,-375.21 297.27,-375.84 299.97,-382.3"/>
</g>
<!-- io&#45;&gt;imageio -->
<g id="edge14" class="edge">
<title>io&#45;&gt;imageio</title><style>.edge>path:hover{stroke-width:8}</style>
<path fill="none" stroke="black" d="M120.5,-241C158.52,-212.8 180.61,-250.42 227,-241"/>
<path fill="none" stroke="black" d="M229,-241C251.99,-236.33 277.29,-243.19 297.29,-251.52"/>
<polygon fill="#10f97e" stroke="black" points="296.1,-254.81 306.66,-255.68 298.94,-248.42 296.1,-254.81"/>
</g>
<!-- io&#45;&gt;numpy -->
<g id="edge15" class="edge">
<title>io&#45;&gt;numpy</title><style>.edge>path:hover{stroke-width:8}</style>
<path fill="none" stroke="black" d="M31.94,-390.7C39.16,-360.66 56.89,-300.24 90,-260 99.67,-248.24 106.27,-250.07 118.5,-241"/>
<path fill="none" stroke="black" d="M120.5,-241C141.82,-225.18 169.42,-213.46 191.18,-205.81"/>
<polygon fill="#10f97e" stroke="black" points="192.37,-209.1 200.73,-202.58 190.13,-202.47 192.37,-209.1"/>
</g>
<!-- io&#45;&gt;openpyxl -->
<g id="edge17" class="edge">
<title>io&#45;&gt;openpyxl</title><style>.edge>path:hover{stroke-width:8}</style>
<path fill="none" stroke="black" d="M120.5,-409C227.4,-425.13 263.38,-431.98 363,-390 376.15,-384.46 389.75,-376.85 401.59,-369.52"/>
<polygon fill="#10f97e" stroke="black" points="403.71,-372.32 410.27,-364 399.96,-366.41 403.71,-372.32"/>
</g>
<!-- pathlib -->
<g id="node13" class="node">
<title>pathlib</title><style>.edge>path:hover{stroke-width:8}</style>
<polygon fill="#430cf3" stroke="black" points="146.5,-473 143.5,-477 122.5,-477 119.5,-473 92.5,-473 92.5,-437 146.5,-437 146.5,-473"/>
<text text-anchor="middle" x="119.5" y="-452.5" font-family="Helvetica,sans-Serif" font-size="10.00" fill="#ffffff">pathlib</text>
</g>
<!-- io&#45;&gt;pathlib -->
<g id="edge18" class="edge">
<title>io&#45;&gt;pathlib</title><style>.edge>path:hover{stroke-width:8}</style>
<path fill="none" stroke="black" d="M54.18,-422.31C63.28,-426.93 73.63,-432.19 83.34,-437.13"/>
<polygon fill="#10f97e" stroke="black" points="81.88,-440.31 92.38,-441.72 85.05,-434.07 81.88,-440.31"/>
</g>
<!-- io&#45;&gt;pdf2docx -->
<g id="edge19" class="edge">
<title>io&#45;&gt;pdf2docx</title><style>.edge>path:hover{stroke-width:8}</style>
<path fill="none" stroke="black" d="M29.73,-390.79C35.19,-337.25 53.9,-182.07 90,-149 118.85,-122.57 321.88,-132.7 334,-133"/>
<path fill="none" stroke="black" d="M336,-133C356.14,-132.89 378,-137.37 396.12,-142.4"/>
<polygon fill="#10f97e" stroke="black" points="395.2,-145.77 405.78,-145.22 397.16,-139.05 395.2,-145.77"/>
</g>
<!-- io&#45;&gt;pypdf -->
<g id="edge20" class="edge">
<title>io&#45;&gt;pypdf</title><style>.edge>path:hover{stroke-width:8}</style>
<path fill="none" stroke="black" d="M29.74,-427.19C34.78,-468.54 53.5,-569.27 118.5,-611"/>
<path fill="none" stroke="black" d="M120.5,-611C163.32,-638.49 178.25,-583.58 227,-569"/>
<path fill="none" stroke="black" d="M229,-569C277.81,-554.41 289.72,-548.2 334,-523"/>
</g>
<!-- xml -->
<g id="node17" class="node">
<title>xml</title><style>.edge>path:hover{stroke-width:8}</style>
<polygon fill="#dd185d" stroke="black" points="362,-587 359,-591 338,-591 335,-587 308,-587 308,-551 362,-551 362,-587"/>
<text text-anchor="middle" x="335" y="-566.5" font-family="Helvetica,sans-Serif" font-size="10.00" fill="#ffffff">xml</text>
</g>
<!-- io&#45;&gt;xml -->
<g id="edge21" class="edge">
<title>io&#45;&gt;xml</title><style>.edge>path:hover{stroke-width:8}</style>
<path fill="none" stroke="black" d="M229,-569C251.16,-562.37 277.15,-562.32 297.72,-563.94"/>
<polygon fill="#10f97e" stroke="black" points="297.65,-567.45 307.94,-564.92 298.32,-560.48 297.65,-567.45"/>
</g>
<!-- numpy&#45;&gt;opencf -->
<g id="edge25" class="edge">
<title>numpy&#45;&gt;opencf</title><style>.edge>path:hover{stroke-width:8}</style>
<path fill="none" stroke="black" d="M255.31,-199.08C277.36,-203.28 309.13,-211.21 334,-225"/>
<path fill="none" stroke="black" d="M336,-225C382.36,-250.71 384.32,-278.21 436,-290"/>
</g>
<!-- numpy&#45;&gt;PIL -->
<g id="edge22" class="edge">
<title>numpy&#45;&gt;PIL</title><style>.edge>path:hover{stroke-width:8}</style>
<path fill="none" stroke="black" d="M240.08,-213.01C248.67,-227.08 260.79,-247.17 271,-265 287.6,-294 288.13,-303.42 307,-331 308.3,-332.9 309.69,-334.82 311.13,-336.73"/>
<polygon fill="#05d1ad" stroke="black" points="308.67,-339.25 317.64,-344.89 314.14,-334.89 308.67,-339.25"/>
</g>
<!-- numpy&#45;&gt;cv2 -->
<g id="edge23" class="edge">
<title>numpy&#45;&gt;cv2</title><style>.edge>path:hover{stroke-width:8}</style>
<path fill="none" stroke="black" d="M255.23,-191C268,-189.06 283.58,-186.68 297.5,-184.56"/>
<polygon fill="#05d1ad" stroke="black" points="298.39,-187.97 307.75,-183 297.33,-181.05 298.39,-187.97"/>
</g>
<!-- numpy&#45;&gt;imageio -->
<g id="edge24" class="edge">
<title>numpy&#45;&gt;imageio</title><style>.edge>path:hover{stroke-width:8}</style>
<path fill="none" stroke="black" d="M253.88,-213.01C267.9,-223.16 285.6,-235.97 300.79,-246.96"/>
<polygon fill="#05d1ad" stroke="black" points="298.78,-249.83 308.93,-252.85 302.88,-244.16 298.78,-249.83"/>
</g>
<!-- numpy&#45;&gt;openpyxl -->
<g id="edge26" class="edge">
<title>numpy&#45;&gt;openpyxl</title><style>.edge>path:hover{stroke-width:8}</style>
<path fill="none" stroke="black" d="M336,-225C348.83,-232.12 353.01,-233.25 363,-244 384.18,-266.78 380.65,-278.9 399,-304 402.91,-309.35 407.37,-314.84 411.8,-320"/>
<polygon fill="#05d1ad" stroke="black" points="409.43,-322.6 418.67,-327.79 414.68,-317.97 409.43,-322.6"/>
</g>
<!-- numpy&#45;&gt;pdf2docx -->
<g id="edge27" class="edge">
<title>numpy&#45;&gt;pdf2docx</title><style>.edge>path:hover{stroke-width:8}</style>
<path fill="none" stroke="black" d="M252.75,-176.9C277.97,-158.45 316.54,-132.57 334,-133"/>
</g>
<!-- opencf_core -->
<g id="node11" class="node">
<title>opencf_core</title><style>.edge>path:hover{stroke-width:8}</style>
<polygon fill="#386da8" stroke="black" points="475,-534 472,-538 451,-538 448,-534 399,-534 399,-498 475,-498 475,-534"/>
<text text-anchor="middle" x="437" y="-513.5" font-family="Helvetica,sans-Serif" font-size="10.00" fill="#ffffff">opencf_core</text>
</g>
<!-- opencf_core&#45;&gt;opencf -->
<g id="edge28" class="edge">
<title>opencf_core&#45;&gt;opencf</title><style>.edge>path:hover{stroke-width:8}</style>
<path fill="none" stroke="black" d="M447.36,-497.73C465.43,-462.45 505.18,-384.87 526.04,-344.14"/>
<polygon fill="#386da8" stroke="black" points="529.23,-345.59 530.68,-335.1 523,-342.4 529.23,-345.59"/>
</g>
<!-- openpyxl&#45;&gt;opencf -->
<g id="edge29" class="edge">
<title>openpyxl&#45;&gt;opencf</title><style>.edge>path:hover{stroke-width:8}</style>
<path fill="none" stroke="black" d="M468.16,-337.67C479.27,-334.61 491.97,-331.1 503.53,-327.91"/>
<polygon fill="#3542a1" stroke="black" points="504.63,-331.24 513.34,-325.2 502.77,-324.49 504.63,-331.24"/>
</g>
<!-- pathlib&#45;&gt;opencf -->
<g id="edge33" class="edge">
<title>pathlib&#45;&gt;opencf</title><style>.edge>path:hover{stroke-width:8}</style>
<path fill="none" stroke="black" d="M336,-615C379.84,-607.68 399.44,-640.27 436,-615"/>
</g>
<!-- pathlib&#45;&gt;generalimport -->
<g id="edge30" class="edge">
<title>pathlib&#45;&gt;generalimport</title><style>.edge>path:hover{stroke-width:8}</style>
<path fill="none" stroke="black" d="M136.95,-436.88C140.95,-432.38 145.17,-427.55 149,-423 169.1,-399.13 191.18,-371.23 206.69,-351.32"/>
<polygon fill="#430cf3" stroke="black" points="209.55,-353.35 212.92,-343.3 204.02,-349.05 209.55,-353.35"/>
</g>
<!-- pathlib&#45;&gt;imageio -->
<g id="edge31" class="edge">
<title>pathlib&#45;&gt;imageio</title><style>.edge>path:hover{stroke-width:8}</style>
<path fill="none" stroke="black" d="M139.41,-436.9C143.03,-432.63 146.48,-427.89 149,-423 189.31,-344.77 140.76,-258.51 227,-241"/>
</g>
<!-- pathlib&#45;&gt;numpy -->
<g id="edge32" class="edge">
<title>pathlib&#45;&gt;numpy</title><style>.edge>path:hover{stroke-width:8}</style>
<path fill="none" stroke="black" d="M139.57,-436.98C143.18,-432.71 146.58,-427.95 149,-423 187.89,-343.43 138.65,-302.47 185,-227 187.21,-223.4 189.99,-220.05 193.06,-216.99"/>
<polygon fill="#430cf3" stroke="black" points="195.4,-219.6 200.62,-210.38 190.79,-214.33 195.4,-219.6"/>
</g>
<!-- pathlib&#45;&gt;opencf_core -->
<g id="edge34" class="edge">
<title>pathlib&#45;&gt;opencf_core</title><style>.edge>path:hover{stroke-width:8}</style>
<path fill="none" stroke="black" d="M124.34,-473.04C131.3,-501.13 148.77,-555.01 185,-583 238.6,-624.41 267.99,-630.17 334,-615"/>
<path fill="none" stroke="black" d="M336,-615C375.4,-608.42 405.27,-569.86 421.7,-542.85"/>
<polygon fill="#430cf3" stroke="black" points="424.74,-544.6 426.76,-534.2 418.69,-541.07 424.74,-544.6"/>
</g>
<!-- pathlib&#45;&gt;pypdf -->
<g id="edge35" class="edge">
<title>pathlib&#45;&gt;pypdf</title><style>.edge>path:hover{stroke-width:8}</style>
<path fill="none" stroke="black" d="M142.38,-473.14C182.53,-504.1 269.76,-560.32 334,-523"/>
<path fill="none" stroke="black" d="M336,-523C372.8,-502.06 402.83,-462.44 420.07,-435.87"/>
<polygon fill="#430cf3" stroke="black" points="423.03,-437.73 425.42,-427.41 417.12,-433.99 423.03,-437.73"/>
</g>
<!-- pdf2docx&#45;&gt;opencf -->
<g id="edge36" class="edge">
<title>pdf2docx&#45;&gt;opencf</title><style>.edge>path:hover{stroke-width:8}</style>
<path fill="none" stroke="black" d="M449.44,-174.27C467.53,-203.16 502.8,-259.49 523.41,-292.4"/>
<polygon fill="#6f3399" stroke="black" points="520.53,-294.4 528.8,-301.02 526.46,-290.69 520.53,-294.4"/>
</g>
<!-- pypdf&#45;&gt;opencf -->
<g id="edge37" class="edge">
<title>pypdf&#45;&gt;opencf</title><style>.edge>path:hover{stroke-width:8}</style>
<path fill="none" stroke="black" d="M458.53,-390.58C474.99,-375.81 498.13,-355.05 515.45,-339.52"/>
<polygon fill="#933399" stroke="black" points="517.85,-342.07 522.95,-332.79 513.17,-336.86 517.85,-342.07"/>
</g>
<!-- typing -->
<g id="node16" class="node">
<title>typing</title><style>.edge>path:hover{stroke-width:8}</style>
<polygon fill="#f910b5" stroke="black" points="146.5,-305 143.5,-309 122.5,-309 119.5,-305 92.5,-305 92.5,-269 146.5,-269 146.5,-305"/>
<text text-anchor="middle" x="119.5" y="-284.5" font-family="Helvetica,sans-Serif" font-size="10.00" fill="#ffffff">typing</text>
</g>
<!-- typing&#45;&gt;opencf -->
<g id="edge43" class="edge">
<title>typing&#45;&gt;opencf</title><style>.edge>path:hover{stroke-width:8}</style>
<path fill="none" stroke="black" d="M146.64,-280.78C168.4,-276.62 200.05,-272.91 227,-279"/>
<path fill="none" stroke="black" d="M229,-279C277.41,-289.94 284.46,-319.96 334,-317"/>
<path fill="none" stroke="black" d="M336,-317C381.95,-314.25 391.12,-279.76 436,-290"/>
</g>
<!-- typing&#45;&gt;PIL -->
<g id="edge38" class="edge">
<title>typing&#45;&gt;PIL</title><style>.edge>path:hover{stroke-width:8}</style>
<path fill="none" stroke="black" d="M229,-279C248.98,-283.52 254.24,-286.21 271,-298 279.65,-304.08 296.61,-321.73 310.75,-337.1"/>
<polygon fill="#f910b5" stroke="black" points="308.51,-339.83 317.84,-344.86 313.68,-335.11 308.51,-339.83"/>
</g>
<!-- typing&#45;&gt;cv2 -->
<g id="edge39" class="edge">
<title>typing&#45;&gt;cv2</title><style>.edge>path:hover{stroke-width:8}</style>
<path fill="none" stroke="black" d="M229,-149C251.37,-139.02 277.91,-146.76 298.71,-156.87"/>
<polygon fill="#f910b5" stroke="black" points="297.34,-160.1 307.82,-161.63 300.58,-153.9 297.34,-160.1"/>
</g>
<!-- typing&#45;&gt;generalimport -->
<g id="edge40" class="edge">
<title>typing&#45;&gt;generalimport</title><style>.edge>path:hover{stroke-width:8}</style>
<path fill="none" stroke="black" d="M146.55,-296.3C155.23,-299.39 165.23,-302.96 175.16,-306.5"/>
<polygon fill="#f910b5" stroke="black" points="174.03,-309.81 184.62,-309.88 176.38,-303.22 174.03,-309.81"/>
</g>
<!-- typing&#45;&gt;imageio -->
<g id="edge41" class="edge">
<title>typing&#45;&gt;imageio</title><style>.edge>path:hover{stroke-width:8}</style>
<path fill="none" stroke="black" d="M146.63,-272.06C167.6,-260.99 198.18,-246.85 227,-241"/>
</g>
<!-- typing&#45;&gt;numpy -->
<g id="edge42" class="edge">
<title>typing&#45;&gt;numpy</title><style>.edge>path:hover{stroke-width:8}</style>
<path fill="none" stroke="black" d="M138.97,-268.91C151.63,-256.74 168.98,-240.5 185,-227 187.99,-224.48 191.15,-221.91 194.34,-219.38"/>
<polygon fill="#f910b5" stroke="black" points="196.52,-222.12 202.25,-213.22 192.21,-216.6 196.52,-222.12"/>
</g>
<!-- typing&#45;&gt;opencf_core -->
<g id="edge44" class="edge">
<title>typing&#45;&gt;opencf_core</title><style>.edge>path:hover{stroke-width:8}</style>
<path fill="none" stroke="black" d="M129.24,-305.23C139.99,-326.13 159.94,-360.42 185,-383 246.57,-438.46 335.46,-478.42 389.27,-499.33"/>
<polygon fill="#f910b5" stroke="black" points="388.31,-502.71 398.9,-503.01 390.81,-496.17 388.31,-502.71"/>
</g>
<!-- typing&#45;&gt;pdf2docx -->
<g id="edge45" class="edge">
<title>typing&#45;&gt;pdf2docx</title><style>.edge>path:hover{stroke-width:8}</style>
<path fill="none" stroke="black" d="M138.5,-268.89C142.26,-264.56 146,-259.79 149,-255 171.23,-219.54 155.89,-198.07 185,-168 199.25,-153.28 208.29,-157.35 227,-149"/>
<path fill="none" stroke="black" d="M229,-149C272.11,-129.77 286.81,-131.84 334,-133"/>
</g>
<!-- typing&#45;&gt;pypdf -->
<g id="edge46" class="edge">
<title>typing&#45;&gt;pypdf</title><style>.edge>path:hover{stroke-width:8}</style>
<path fill="none" stroke="black" d="M134.27,-305.13C146.22,-319.7 164.75,-339.71 185,-352 253.11,-393.35 348.12,-404.75 399.51,-407.86"/>
<polygon fill="#f910b5" stroke="black" points="399.61,-411.37 409.78,-408.41 399.98,-404.38 399.61,-411.37"/>
</g>
<!-- xml&#45;&gt;opencf -->
<g id="edge47" class="edge">
<title>xml&#45;&gt;opencf</title><style>.edge>path:hover{stroke-width:8}</style>
<path fill="none" stroke="black" d="M353.23,-587.34C373.95,-607.13 409.28,-633.47 436,-615"/>
<path fill="none" stroke="black" d="M438,-615C527.22,-553.34 539.02,-408.01 539.85,-346.4"/>
<polygon fill="#dd185d" stroke="black" points="543.35,-346.26 539.9,-336.25 536.35,-346.23 543.35,-346.26"/>
</g>
<!-- xml&#45;&gt;opencf_core -->
<g id="edge48" class="edge">
<title>xml&#45;&gt;opencf_core</title><style>.edge>path:hover{stroke-width:8}</style>
<path fill="none" stroke="black" d="M362.01,-555.21C371.41,-550.23 382.29,-544.46 392.77,-538.91"/>
<polygon fill="#dd185d" stroke="black" points="394.63,-541.89 401.83,-534.11 391.35,-535.7 394.63,-541.89"/>
</g>
<!-- xml&#45;&gt;openpyxl -->
<g id="edge49" class="edge">
<title>xml&#45;&gt;openpyxl</title><style>.edge>path:hover{stroke-width:8}</style>
<path fill="none" stroke="black" d="M343.34,-551C348.98,-536.93 356.82,-516.85 363,-499 380.8,-447.59 370.62,-428.42 399,-382 401.21,-378.39 403.86,-374.88 406.72,-371.57"/>
<polygon fill="#dd185d" stroke="black" points="409.34,-373.89 413.66,-364.22 404.25,-369.09 409.34,-373.89"/>
</g>
<!-- xml&#45;&gt;pypdf -->
<g id="edge50" class="edge">
<title>xml&#45;&gt;pypdf</title><style>.edge>path:hover{stroke-width:8}</style>
<path fill="none" stroke="black" d="M352.3,-550.84C355.98,-546.44 359.75,-541.65 363,-537 386.22,-503.75 408.68,-462.59 422.41,-436.08"/>
<polygon fill="#dd185d" stroke="black" points="425.61,-437.5 427.06,-427.01 419.38,-434.31 425.61,-437.5"/>
</g>
</g>
</svg>
