<?xml version="1.0" encoding="UTF-8" standalone="no"?>
<!DOCTYPE svg PUBLIC "-//W3C//DTD SVG 1.1//EN"
 "http://www.w3.org/Graphics/SVG/1.1/DTD/svg11.dtd">
<!-- Generated by graphviz version 2.43.0 (0)
 -->
<!-- Title: G Pages: 1 -->
<svg width="993pt" height="756pt"
 viewBox="0.00 0.00 993.12 756.00" xmlns="http://www.w3.org/2000/svg" xmlns:xlink="http://www.w3.org/1999/xlink">
<g id="graph0" class="graph" transform="scale(1 1) rotate(0) translate(4 752)">
<title>G</title><style>.edge>path:hover{stroke-width:8}</style>
<polygon fill="white" stroke="transparent" points="-4,4 -4,-752 989.12,-752 989.12,4 -4,4"/>
<!-- opencf_app -->
<g id="node1" class="node">
<title>opencf_app</title><style>.edge>path:hover{stroke-width:8}</style>
<ellipse fill="#4685a4" stroke="black" cx="943.91" cy="-444" rx="41.41" ry="18"/>
<text text-anchor="middle" x="943.91" y="-441.5" font-family="Helvetica,sans-Serif" font-size="10.00" fill="#ffffff">opencf.app</text>
</g>
<!-- opencf_converters -->
<g id="node2" class="node">
<title>opencf_converters</title><style>.edge>path:hover{stroke-width:8}</style>
<ellipse fill="#3883a8" stroke="black" cx="818.62" cy="-378" rx="48.17" ry="21.43"/>
<text text-anchor="middle" x="818.62" y="-381" font-family="Helvetica,sans-Serif" font-size="10.00" fill="#ffffff">opencf.</text>
<text text-anchor="middle" x="818.62" y="-370" font-family="Helvetica,sans-Serif" font-size="10.00" fill="#ffffff">converters</text>
</g>
<!-- opencf_converters&#45;&gt;opencf_app -->
<g id="edge15" class="edge">
<title>opencf_converters&#45;&gt;opencf_app</title><style>.edge>path:hover{stroke-width:8}</style>
<path fill="none" stroke="black" d="M850.1,-394.31C867.67,-403.72 889.82,-415.58 908.08,-425.35"/>
<polygon fill="#3883a8" stroke="black" points="906.49,-428.47 916.96,-430.1 909.79,-422.3 906.49,-428.47"/>
</g>
<!-- opencf_converters_document -->
<g id="node3" class="node">
<title>opencf_converters_document</title><style>.edge>path:hover{stroke-width:8}</style>
<ellipse fill="#2e6b8a" stroke="black" cx="684.34" cy="-64" rx="50.41" ry="28.98"/>
<text text-anchor="middle" x="684.34" y="-72.5" font-family="Helvetica,sans-Serif" font-size="10.00" fill="#ffffff">opencf.</text>
<text text-anchor="middle" x="684.34" y="-61.5" font-family="Helvetica,sans-Serif" font-size="10.00" fill="#ffffff">converters.</text>
<text text-anchor="middle" x="684.34" y="-50.5" font-family="Helvetica,sans-Serif" font-size="10.00" fill="#ffffff">document</text>
</g>
<!-- opencf_converters_document&#45;&gt;opencf_converters -->
<g id="edge16" class="edge">
<title>opencf_converters_document&#45;&gt;opencf_converters</title><style>.edge>path:hover{stroke-width:8}</style>
<path fill="none" stroke="black" d="M718.73,-85.17C724.64,-90.11 730.26,-95.78 734.54,-102 788,-179.68 807.78,-292.54 814.49,-346.71"/>
<polygon fill="#2e6b8a" stroke="black" points="811.02,-347.2 815.66,-356.73 817.98,-346.39 811.02,-347.2"/>
</g>
<!-- opencf_converters_markup -->
<g id="node4" class="node">
<title>opencf_converters_markup</title><style>.edge>path:hover{stroke-width:8}</style>
<ellipse fill="#3883a8" stroke="black" cx="684.34" cy="-378" rx="50.41" ry="28.98"/>
<text text-anchor="middle" x="684.34" y="-386.5" font-family="Helvetica,sans-Serif" font-size="10.00" fill="#ffffff">opencf.</text>
<text text-anchor="middle" x="684.34" y="-375.5" font-family="Helvetica,sans-Serif" font-size="10.00" fill="#ffffff">converters.</text>
<text text-anchor="middle" x="684.34" y="-364.5" font-family="Helvetica,sans-Serif" font-size="10.00" fill="#ffffff">markup</text>
</g>
<!-- opencf_converters_markup&#45;&gt;opencf_converters -->
<g id="edge17" class="edge">
<title>opencf_converters_markup&#45;&gt;opencf_converters</title><style>.edge>path:hover{stroke-width:8}</style>
<path fill="none" stroke="black" d="M734.6,-378C743.04,-378 751.89,-378 760.52,-378"/>
<polygon fill="#3883a8" stroke="black" points="760.52,-381.5 770.52,-378 760.52,-374.5 760.52,-381.5"/>
</g>
<!-- opencf_converters_structured -->
<g id="node5" class="node">
<title>opencf_converters_structured</title><style>.edge>path:hover{stroke-width:8}</style>
<ellipse fill="#337799" stroke="black" cx="684.34" cy="-615" rx="50.41" ry="28.98"/>
<text text-anchor="middle" x="684.34" y="-623.5" font-family="Helvetica,sans-Serif" font-size="10.00" fill="#ffffff">opencf.</text>
<text text-anchor="middle" x="684.34" y="-612.5" font-family="Helvetica,sans-Serif" font-size="10.00" fill="#ffffff">converters.</text>
<text text-anchor="middle" x="684.34" y="-601.5" font-family="Helvetica,sans-Serif" font-size="10.00" fill="#ffffff">structured</text>
</g>
<!-- opencf_converters_structured&#45;&gt;opencf_converters -->
<g id="edge18" class="edge">
<title>opencf_converters_structured&#45;&gt;opencf_converters</title><style>.edge>path:hover{stroke-width:8}</style>
<path fill="none" stroke="black" d="M700.77,-587.35C725.89,-542.34 775.41,-453.63 801.17,-407.47"/>
<polygon fill="#337799" stroke="black" points="804.33,-409.01 806.14,-398.57 798.21,-405.59 804.33,-409.01"/>
</g>
<!-- opencf_converters_video -->
<g id="node6" class="node">
<title>opencf_converters_video</title><style>.edge>path:hover{stroke-width:8}</style>
<ellipse fill="#2b6582" stroke="black" cx="684.34" cy="-140" rx="50.41" ry="28.98"/>
<text text-anchor="middle" x="684.34" y="-148.5" font-family="Helvetica,sans-Serif" font-size="10.00" fill="#ffffff">opencf.</text>
<text text-anchor="middle" x="684.34" y="-137.5" font-family="Helvetica,sans-Serif" font-size="10.00" fill="#ffffff">converters.</text>
<text text-anchor="middle" x="684.34" y="-126.5" font-family="Helvetica,sans-Serif" font-size="10.00" fill="#ffffff">video</text>
</g>
<!-- opencf_converters_video&#45;&gt;opencf_converters -->
<g id="edge19" class="edge">
<title>opencf_converters_video&#45;&gt;opencf_converters</title><style>.edge>path:hover{stroke-width:8}</style>
<path fill="none" stroke="black" d="M700.77,-167.77C725.89,-212.97 775.41,-302.05 801.17,-348.4"/>
<polygon fill="#2b6582" stroke="black" points="798.23,-350.31 806.14,-357.35 804.34,-346.9 798.23,-350.31"/>
</g>
<!-- opencf_io_handlers -->
<g id="node7" class="node">
<title>opencf_io_handlers</title><style>.edge>path:hover{stroke-width:8}</style>
<ellipse fill="#2084b6" stroke="black" cx="509.51" cy="-349" rx="51.74" ry="21.43"/>
<text text-anchor="middle" x="509.51" y="-352" font-family="Helvetica,sans-Serif" font-size="10.00" fill="#ffffff">opencf.</text>
<text text-anchor="middle" x="509.51" y="-341" font-family="Helvetica,sans-Serif" font-size="10.00" fill="#ffffff">io_handlers</text>
</g>
<!-- opencf_io_handlers&#45;&gt;opencf_converters_document -->
<g id="edge20" class="edge">
<title>opencf_io_handlers&#45;&gt;opencf_converters_document</title><style>.edge>path:hover{stroke-width:8}</style>
<path fill="none" stroke="black" d="M517.28,-327.75C529.1,-293.23 556.18,-224.19 597.13,-178"/>
</g>
<!-- opencf_io_handlers&#45;&gt;opencf_converters_structured -->
<g id="edge21" class="edge">
<title>opencf_io_handlers&#45;&gt;opencf_converters_structured</title><style>.edge>path:hover{stroke-width:8}</style>
<path fill="none" stroke="black" d="M523.79,-369.43C553.05,-414.47 623.41,-522.76 660.13,-579.29"/>
<polygon fill="#2084b6" stroke="black" points="657.34,-581.42 665.73,-587.9 663.21,-577.61 657.34,-581.42"/>
</g>
<!-- opencf_io_handlers&#45;&gt;opencf_converters_video -->
<g id="edge22" class="edge">
<title>opencf_io_handlers&#45;&gt;opencf_converters_video</title><style>.edge>path:hover{stroke-width:8}</style>
<path fill="none" stroke="black" d="M556.6,-357.82C570.47,-358.24 585.18,-356.25 597.13,-349"/>
</g>
<!-- opencf_io_handlers_img_opencv -->
<g id="node8" class="node">
<title>opencf_io_handlers_img_opencv</title><style>.edge>path:hover{stroke-width:8}</style>
<ellipse fill="#3883a8" stroke="black" cx="367.45" cy="-463" rx="53.98" ry="28.98"/>
<text text-anchor="middle" x="367.45" y="-471.5" font-family="Helvetica,sans-Serif" font-size="10.00" fill="#ffffff">opencf.</text>
<text text-anchor="middle" x="367.45" y="-460.5" font-family="Helvetica,sans-Serif" font-size="10.00" fill="#ffffff">io_handlers.</text>
<text text-anchor="middle" x="367.45" y="-449.5" font-family="Helvetica,sans-Serif" font-size="10.00" fill="#ffffff">img_opencv</text>
</g>
<!-- opencf_io_handlers_img_opencv&#45;&gt;opencf_io_handlers -->
<g id="edge23" class="edge">
<title>opencf_io_handlers_img_opencv&#45;&gt;opencf_io_handlers</title><style>.edge>path:hover{stroke-width:8}</style>
<path fill="none" stroke="black" d="M402.16,-440.84C408.92,-435.9 415.81,-430.49 421.89,-425 439.9,-408.75 439.79,-400.13 457.89,-384 462.29,-380.09 467.14,-376.23 472.04,-372.6"/>
<polygon fill="#3883a8" stroke="black" points="474.17,-375.38 480.27,-366.72 470.1,-369.69 474.17,-375.38"/>
</g>
<!-- opencf_io_handlers_img_pillow -->
<g id="node9" class="node">
<title>opencf_io_handlers_img_pillow</title><style>.edge>path:hover{stroke-width:8}</style>
<ellipse fill="#3883a8" stroke="black" cx="367.45" cy="-387" rx="53.98" ry="28.98"/>
<text text-anchor="middle" x="367.45" y="-395.5" font-family="Helvetica,sans-Serif" font-size="10.00" fill="#ffffff">opencf.</text>
<text text-anchor="middle" x="367.45" y="-384.5" font-family="Helvetica,sans-Serif" font-size="10.00" fill="#ffffff">io_handlers.</text>
<text text-anchor="middle" x="367.45" y="-373.5" font-family="Helvetica,sans-Serif" font-size="10.00" fill="#ffffff">img_pillow</text>
</g>
<!-- opencf_io_handlers_img_pillow&#45;&gt;opencf_io_handlers -->
<g id="edge24" class="edge">
<title>opencf_io_handlers_img_pillow&#45;&gt;opencf_io_handlers</title><style>.edge>path:hover{stroke-width:8}</style>
<path fill="none" stroke="black" d="M415.87,-374.13C428.77,-370.63 442.82,-366.82 455.98,-363.25"/>
<polygon fill="#3883a8" stroke="black" points="457.11,-366.57 465.85,-360.58 455.28,-359.82 457.11,-366.57"/>
</g>
<!-- opencf_io_handlers_pdf -->
<g id="node10" class="node">
<title>opencf_io_handlers_pdf</title><style>.edge>path:hover{stroke-width:8}</style>
<ellipse fill="#3a89b0" stroke="black" cx="367.45" cy="-235" rx="53.98" ry="28.98"/>
<text text-anchor="middle" x="367.45" y="-243.5" font-family="Helvetica,sans-Serif" font-size="10.00" fill="#ffffff">opencf.</text>
<text text-anchor="middle" x="367.45" y="-232.5" font-family="Helvetica,sans-Serif" font-size="10.00" fill="#ffffff">io_handlers.</text>
<text text-anchor="middle" x="367.45" y="-221.5" font-family="Helvetica,sans-Serif" font-size="10.00" fill="#ffffff">pdf</text>
</g>
<!-- opencf_io_handlers_pdf&#45;&gt;opencf_io_handlers -->
<g id="edge25" class="edge">
<title>opencf_io_handlers_pdf&#45;&gt;opencf_io_handlers</title><style>.edge>path:hover{stroke-width:8}</style>
<path fill="none" stroke="black" d="M401.34,-257.59C408.23,-262.54 415.38,-267.84 421.89,-273 441.85,-288.78 463.36,-307.64 479.95,-322.63"/>
<polygon fill="#3a89b0" stroke="black" points="477.92,-325.51 487.67,-329.64 482.62,-320.33 477.92,-325.51"/>
</g>
<!-- opencf_io_handlers_spreadsheet -->
<g id="node11" class="node">
<title>opencf_io_handlers_spreadsheet</title><style>.edge>path:hover{stroke-width:8}</style>
<ellipse fill="#3a89b0" stroke="black" cx="367.45" cy="-539" rx="54.39" ry="28.98"/>
<text text-anchor="middle" x="367.45" y="-547.5" font-family="Helvetica,sans-Serif" font-size="10.00" fill="#ffffff">opencf.</text>
<text text-anchor="middle" x="367.45" y="-536.5" font-family="Helvetica,sans-Serif" font-size="10.00" fill="#ffffff">io_handlers.</text>
<text text-anchor="middle" x="367.45" y="-525.5" font-family="Helvetica,sans-Serif" font-size="10.00" fill="#ffffff">spreadsheet</text>
</g>
<!-- opencf_io_handlers_spreadsheet&#45;&gt;opencf_io_handlers -->
<g id="edge26" class="edge">
<title>opencf_io_handlers_spreadsheet&#45;&gt;opencf_io_handlers</title><style>.edge>path:hover{stroke-width:8}</style>
<path fill="none" stroke="black" d="M404.98,-517.99C411.29,-513.06 417.29,-507.37 421.89,-501 453.75,-456.9 425.75,-427.89 457.89,-384 461.13,-379.58 465.1,-375.53 469.38,-371.88"/>
<polygon fill="#3a89b0" stroke="black" points="471.55,-374.62 477.32,-365.73 467.27,-369.08 471.55,-374.62"/>
</g>
<!-- opencf_io_handlers_video -->
<g id="node12" class="node">
<title>opencf_io_handlers_video</title><style>.edge>path:hover{stroke-width:8}</style>
<ellipse fill="#337799" stroke="black" cx="367.45" cy="-311" rx="53.98" ry="28.98"/>
<text text-anchor="middle" x="367.45" y="-319.5" font-family="Helvetica,sans-Serif" font-size="10.00" fill="#ffffff">opencf.</text>
<text text-anchor="middle" x="367.45" y="-308.5" font-family="Helvetica,sans-Serif" font-size="10.00" fill="#ffffff">io_handlers.</text>
<text text-anchor="middle" x="367.45" y="-297.5" font-family="Helvetica,sans-Serif" font-size="10.00" fill="#ffffff">video</text>
</g>
<!-- opencf_io_handlers_video&#45;&gt;opencf_io_handlers -->
<g id="edge27" class="edge">
<title>opencf_io_handlers_video&#45;&gt;opencf_io_handlers</title><style>.edge>path:hover{stroke-width:8}</style>
<path fill="none" stroke="black" d="M415.87,-323.87C428.77,-327.37 442.82,-331.18 455.98,-334.75"/>
<polygon fill="#337799" stroke="black" points="455.28,-338.18 465.85,-337.42 457.11,-331.43 455.28,-338.18"/>
</g>
<!-- PIL -->
<g id="node13" class="node">
<title>PIL</title><style>.edge>path:hover{stroke-width:8}</style>
<polygon fill="#e61919" stroke="black" points="192,-183 189,-187 168,-187 165,-183 138,-183 138,-147 192,-147 192,-183"/>
<text text-anchor="middle" x="165" y="-162.5" font-family="Helvetica,sans-Serif" font-size="10.00" fill="#ffffff">PIL</text>
</g>
<!-- PIL&#45;&gt;opencf_converters_document -->
<g id="edge1" class="edge">
<title>PIL&#45;&gt;opencf_converters_document</title><style>.edge>path:hover{stroke-width:8}</style>
<path fill="none" stroke="black" d="M192.31,-164.25C259.74,-162.17 444.21,-155.4 597.13,-140"/>
<path fill="none" stroke="black" d="M598.13,-140C620.66,-134.2 616.87,-117.6 634.13,-102 637.46,-98.99 641.01,-95.95 644.62,-92.97"/>
<polygon fill="#e61919" stroke="black" points="646.95,-95.59 652.55,-86.6 642.57,-90.14 646.95,-95.59"/>
</g>
<!-- PIL&#45;&gt;opencf_converters_video -->
<g id="edge2" class="edge">
<title>PIL&#45;&gt;opencf_converters_video</title><style>.edge>path:hover{stroke-width:8}</style>
<path fill="none" stroke="black" d="M598.13,-140C606.49,-139.16 615.33,-138.69 624.03,-138.47"/>
<polygon fill="#e61919" stroke="black" points="624.19,-141.97 634.14,-138.32 624.09,-134.97 624.19,-141.97"/>
</g>
<!-- PIL&#45;&gt;opencf_io_handlers_img_pillow -->
<g id="edge3" class="edge">
<title>PIL&#45;&gt;opencf_io_handlers_img_pillow</title><style>.edge>path:hover{stroke-width:8}</style>
<path fill="none" stroke="black" d="M192.01,-180.95C196.06,-184.24 199.91,-187.95 203,-192 230.37,-227.91 212.85,-250.19 239,-287 263.85,-321.98 279.04,-322.77 313,-349 317.01,-352.1 321.24,-355.26 325.49,-358.38"/>
<polygon fill="#e61919" stroke="black" points="323.49,-361.26 333.64,-364.3 327.6,-355.59 323.49,-361.26"/>
</g>
<!-- PyPDF2 -->
<g id="node14" class="node">
<title>PyPDF2</title><style>.edge>path:hover{stroke-width:8}</style>
<polygon fill="#c29947" stroke="black" points="192,-106 189,-110 168,-110 165,-106 138,-106 138,-70 192,-70 192,-106"/>
<text text-anchor="middle" x="165" y="-85.5" font-family="Helvetica,sans-Serif" font-size="10.00" fill="#000000">PyPDF2</text>
</g>
<!-- PyPDF2&#45;&gt;opencf_converters_document -->
<g id="edge4" class="edge">
<title>PyPDF2&#45;&gt;opencf_converters_document</title><style>.edge>path:hover{stroke-width:8}</style>
<path fill="none" stroke="black" d="M192.25,-83.17C249.68,-73.27 390.75,-52.51 508.51,-64"/>
</g>
<!-- PyPDF2&#45;&gt;opencf_io_handlers_pdf -->
<g id="edge5" class="edge">
<title>PyPDF2&#45;&gt;opencf_io_handlers_pdf</title><style>.edge>path:hover{stroke-width:8}</style>
<path fill="none" stroke="black" d="M190.58,-106.03C224.45,-130.86 285.86,-175.9 326.41,-205.64"/>
<polygon fill="#c29947" stroke="black" points="324.59,-208.65 334.73,-211.74 328.73,-203 324.59,-208.65"/>
</g>
<!-- cv2 -->
<g id="node15" class="node">
<title>cv2</title><style>.edge>path:hover{stroke-width:8}</style>
<polygon fill="#9dd926" stroke="black" points="192,-237 189,-241 168,-241 165,-237 138,-237 138,-201 192,-201 192,-237"/>
<text text-anchor="middle" x="165" y="-216.5" font-family="Helvetica,sans-Serif" font-size="10.00" fill="#000000">cv2</text>
</g>
<!-- cv2&#45;&gt;opencf_converters_video -->
<g id="edge6" class="edge">
<title>cv2&#45;&gt;opencf_converters_video</title><style>.edge>path:hover{stroke-width:8}</style>
<path fill="none" stroke="black" d="M192.09,-225.73C214.29,-230.75 247.09,-236.51 276,-235"/>
<path fill="none" stroke="black" d="M277,-235C300.25,-234.1 291.63,-206.19 313,-197 357.46,-177.88 376.55,-180.08 421.89,-197 423.4,-197.56 595.75,-349.84 597.13,-349"/>
<path fill="none" stroke="black" d="M598.13,-349C656.88,-313.95 675.13,-229.51 680.79,-179.34"/>
<polygon fill="#9dd926" stroke="black" points="684.29,-179.49 681.82,-169.18 677.33,-178.78 684.29,-179.49"/>
</g>
<!-- cv2&#45;&gt;opencf_io_handlers_img_opencv -->
<g id="edge7" class="edge">
<title>cv2&#45;&gt;opencf_io_handlers_img_opencv</title><style>.edge>path:hover{stroke-width:8}</style>
<path fill="none" stroke="black" d="M192.16,-236.08C196.01,-239.15 199.76,-242.5 203,-246 218.84,-263.15 297.06,-407.95 313,-425 316.23,-428.46 319.82,-431.79 323.57,-434.95"/>
<polygon fill="#9dd926" stroke="black" points="321.42,-437.71 331.42,-441.19 325.77,-432.23 321.42,-437.71"/>
</g>
<!-- cv2&#45;&gt;opencf_io_handlers_video -->
<g id="edge8" class="edge">
<title>cv2&#45;&gt;opencf_io_handlers_video</title><style>.edge>path:hover{stroke-width:8}</style>
<path fill="none" stroke="black" d="M277,-235C300.23,-233.79 295.44,-257.74 313,-273 316.67,-276.19 320.61,-279.38 324.62,-282.47"/>
<polygon fill="#9dd926" stroke="black" points="322.79,-285.47 332.9,-288.66 326.98,-279.87 322.79,-285.47"/>
</g>
<!-- imageio -->
<g id="node16" class="node">
<title>imageio</title><style>.edge>path:hover{stroke-width:8}</style>
<polygon fill="#40c040" stroke="black" points="193,-291 190,-295 169,-295 166,-291 137,-291 137,-255 193,-255 193,-291"/>
<text text-anchor="middle" x="165" y="-270.5" font-family="Helvetica,sans-Serif" font-size="10.00" fill="#000000">imageio</text>
</g>
<!-- imageio&#45;&gt;opencf_io_handlers_video -->
<g id="edge9" class="edge">
<title>imageio&#45;&gt;opencf_io_handlers_video</title><style>.edge>path:hover{stroke-width:8}</style>
<path fill="none" stroke="black" d="M193.18,-274.92C206.98,-275.41 223.96,-275.27 239,-273"/>
<path fill="none" stroke="black" d="M240,-273C266.99,-268.93 296.24,-276.87 319.8,-286.53"/>
<polygon fill="#40c040" stroke="black" points="318.62,-289.83 329.19,-290.59 321.4,-283.41 318.62,-289.83"/>
</g>
<!-- numpy -->
<g id="node17" class="node">
<title>numpy</title><style>.edge>path:hover{stroke-width:8}</style>
<polygon fill="#06f9a8" stroke="black" points="54,-519 51,-523 30,-523 27,-519 0,-519 0,-483 54,-483 54,-519"/>
<text text-anchor="middle" x="27" y="-498.5" font-family="Helvetica,sans-Serif" font-size="10.00" fill="#000000">numpy</text>
</g>
<!-- numpy&#45;&gt;opencf_converters_video -->
<g id="edge12" class="edge">
<title>numpy&#45;&gt;opencf_converters_video</title><style>.edge>path:hover{stroke-width:8}</style>
<path fill="none" stroke="black" d="M91,-501C133.03,-476.81 100.86,-563.16 127,-604 176.65,-681.57 183.91,-748 276,-748 276,-748 276,-748 368.45,-748 483.42,-748 532.43,-723.34 598.13,-629 635.12,-575.89 622.38,-403.64 634.13,-340 644.61,-283.23 661.44,-218.52 672.45,-178.46"/>
<polygon fill="#06f9a8" stroke="black" points="675.89,-179.16 675.18,-168.58 669.14,-177.29 675.89,-179.16"/>
</g>
<!-- numpy&#45;&gt;opencf_io_handlers_img_opencv -->
<g id="edge13" class="edge">
<title>numpy&#45;&gt;opencf_io_handlers_img_opencv</title><style>.edge>path:hover{stroke-width:8}</style>
<path fill="none" stroke="black" d="M91,-501C108.93,-490.39 256.37,-479.94 277,-477 286.35,-475.66 296.25,-474.18 305.91,-472.7"/>
<polygon fill="#06f9a8" stroke="black" points="306.52,-476.15 315.87,-471.16 305.45,-469.23 306.52,-476.15"/>
</g>
<!-- numpy&#45;&gt;opencf_io_handlers_video -->
<g id="edge14" class="edge">
<title>numpy&#45;&gt;opencf_io_handlers_video</title><style>.edge>path:hover{stroke-width:8}</style>
<path fill="none" stroke="black" d="M91,-501C122.06,-482.46 108.34,-458.99 127,-428 137.96,-409.8 217.99,-276.17 239,-273"/>
</g>
<!-- numpy&#45;&gt;PIL -->
<g id="edge10" class="edge">
<title>numpy&#45;&gt;PIL</title><style>.edge>path:hover{stroke-width:8}</style>
<path fill="none" stroke="black" d="M54.01,-506.74C65.75,-507.94 79.35,-507.3 90,-501"/>
<path fill="none" stroke="black" d="M91,-501C150.5,-465.8 92.16,-251.71 127,-192 128.02,-190.25 129.21,-188.58 130.51,-186.99"/>
<polygon fill="#06f9a8" stroke="black" points="133.2,-189.26 137.85,-179.74 128.28,-184.28 133.2,-189.26"/>
</g>
<!-- numpy&#45;&gt;cv2 -->
<g id="edge11" class="edge">
<title>numpy&#45;&gt;cv2</title><style>.edge>path:hover{stroke-width:8}</style>
<path fill="none" stroke="black" d="M91,-501C140.26,-471.86 97.56,-295.08 127,-246 128.04,-244.26 129.25,-242.6 130.57,-241.02"/>
<polygon fill="#06f9a8" stroke="black" points="133.25,-243.29 137.95,-233.79 128.35,-238.29 133.25,-243.29"/>
</g>
<!-- opencf_core -->
<g id="node18" class="node">
<title>opencf_core</title><style>.edge>path:hover{stroke-width:8}</style>
<polygon fill="#1010f9" stroke="black" points="203,-473 200,-477 179,-477 176,-473 127,-473 127,-437 203,-437 203,-473"/>
<text text-anchor="middle" x="165" y="-452.5" font-family="Helvetica,sans-Serif" font-size="10.00" fill="#ffffff">opencf_core</text>
</g>
<!-- opencf_core&#45;&gt;opencf_app -->
<g id="edge28" class="edge">
<title>opencf_core&#45;&gt;opencf_app</title><style>.edge>path:hover{stroke-width:8}</style>
<path fill="none" stroke="black" d="M173.08,-473.13C193.73,-525.28 253.77,-672 276,-672 276,-672 276,-672 685.34,-672 805.8,-672 896.34,-530.45 929.33,-470.41"/>
<polygon fill="#1010f9" stroke="black" points="932.46,-471.98 934.12,-461.51 926.3,-468.66 932.46,-471.98"/>
</g>
<!-- opencf_core&#45;&gt;opencf_converters_document -->
<g id="edge29" class="edge">
<title>opencf_core&#45;&gt;opencf_converters_document</title><style>.edge>path:hover{stroke-width:8}</style>
<path fill="none" stroke="black" d="M175.85,-436.63C206.89,-378.87 301.34,-204.31 313,-197 420.24,-129.79 513.17,-272.7 597.13,-178"/>
<path fill="none" stroke="black" d="M598.13,-178C621.92,-149.17 610.7,-131.11 634.13,-102 636.8,-98.69 639.81,-95.5 642.99,-92.47"/>
<polygon fill="#1010f9" stroke="black" points="645.47,-94.95 650.66,-85.71 640.84,-89.7 645.47,-94.95"/>
</g>
<!-- opencf_core&#45;&gt;opencf_converters_markup -->
<g id="edge30" class="edge">
<title>opencf_core&#45;&gt;opencf_converters_markup</title><style>.edge>path:hover{stroke-width:8}</style>
<path fill="none" stroke="black" d="M177.21,-473.32C195.2,-501.51 232.88,-555.95 276,-591 377.99,-673.9 586.57,-621.13 597.13,-615"/>
<path fill="none" stroke="black" d="M598.13,-615C632.67,-593.64 661.95,-478.5 675.41,-416.92"/>
<polygon fill="#1010f9" stroke="black" points="678.91,-417.31 677.59,-406.8 672.06,-415.84 678.91,-417.31"/>
</g>
<!-- opencf_core&#45;&gt;opencf_converters_structured -->
<g id="edge31" class="edge">
<title>opencf_core&#45;&gt;opencf_converters_structured</title><style>.edge>path:hover{stroke-width:8}</style>
<path fill="none" stroke="black" d="M598.13,-615C606.44,-609.86 616.14,-607.37 625.95,-606.51"/>
<polygon fill="#1010f9" stroke="black" points="626.29,-610 636.16,-606.16 626.05,-603.01 626.29,-610"/>
</g>
<!-- opencf_core&#45;&gt;opencf_converters_video -->
<g id="edge32" class="edge">
<title>opencf_core&#45;&gt;opencf_converters_video</title><style>.edge>path:hover{stroke-width:8}</style>
<path fill="none" stroke="black" d="M240,-463C276.16,-486.41 248.65,-519.72 276,-553 317.72,-603.77 362.95,-606.04 421.89,-577 479.22,-548.76 542.25,-381.74 597.13,-349"/>
</g>
<!-- opencf_core&#45;&gt;opencf_io_handlers_img_opencv -->
<g id="edge33" class="edge">
<title>opencf_core&#45;&gt;opencf_io_handlers_img_opencv</title><style>.edge>path:hover{stroke-width:8}</style>
<path fill="none" stroke="black" d="M277,-463C285.68,-459.85 295.16,-458.16 304.59,-457.43"/>
<polygon fill="#1010f9" stroke="black" points="304.94,-460.92 314.77,-456.99 304.63,-453.93 304.94,-460.92"/>
</g>
<!-- opencf_core&#45;&gt;opencf_io_handlers_img_pillow -->
<g id="edge34" class="edge">
<title>opencf_core&#45;&gt;opencf_io_handlers_img_pillow</title><style>.edge>path:hover{stroke-width:8}</style>
<path fill="none" stroke="black" d="M277,-463C298.87,-455.07 295.44,-440.26 313,-425 316.67,-421.81 320.61,-418.62 324.62,-415.53"/>
<polygon fill="#1010f9" stroke="black" points="326.98,-418.13 332.9,-409.34 322.79,-412.53 326.98,-418.13"/>
</g>
<!-- opencf_core&#45;&gt;opencf_io_handlers_pdf -->
<g id="edge35" class="edge">
<title>opencf_core&#45;&gt;opencf_io_handlers_pdf</title><style>.edge>path:hover{stroke-width:8}</style>
<path fill="none" stroke="black" d="M182.41,-436.97C204.62,-412.31 245.14,-366.39 277,-325 294.15,-302.73 293.25,-293 313,-273 316.37,-269.59 320.08,-266.26 323.93,-263.1"/>
<polygon fill="#1010f9" stroke="black" points="326.22,-265.75 331.95,-256.84 321.91,-260.23 326.22,-265.75"/>
</g>
<!-- opencf_core&#45;&gt;opencf_io_handlers_spreadsheet -->
<g id="edge36" class="edge">
<title>opencf_core&#45;&gt;opencf_io_handlers_spreadsheet</title><style>.edge>path:hover{stroke-width:8}</style>
<path fill="none" stroke="black" d="M240,-463C271.38,-483.31 241.57,-524.47 276,-539"/>
<path fill="none" stroke="black" d="M277,-539C285.51,-542.59 294.9,-544.51 304.29,-545.35"/>
<polygon fill="#1010f9" stroke="black" points="304.28,-548.85 314.44,-545.86 304.63,-541.86 304.28,-548.85"/>
</g>
<!-- opencf_core&#45;&gt;opencf_io_handlers_video -->
<g id="edge37" class="edge">
<title>opencf_core&#45;&gt;opencf_io_handlers_video</title><style>.edge>path:hover{stroke-width:8}</style>
<path fill="none" stroke="black" d="M203.11,-452.62C215.36,-453.45 228.51,-456.21 239,-463"/>
<path fill="none" stroke="black" d="M240,-463C253.43,-471.69 260.96,-468.46 276,-463"/>
<path fill="none" stroke="black" d="M277,-463C326.95,-444.88 281.73,-391.95 313,-349 315.67,-345.33 318.81,-341.88 322.2,-338.67"/>
<polygon fill="#1010f9" stroke="black" points="324.63,-341.2 329.96,-332.04 320.08,-335.88 324.63,-341.2"/>
</g>
<!-- pandas -->
<g id="node19" class="node">
<title>pandas</title><style>.edge>path:hover{stroke-width:8}</style>
<polygon fill="#9933cc" stroke="black" points="192,-595 189,-599 168,-599 165,-595 138,-595 138,-559 192,-559 192,-595"/>
<text text-anchor="middle" x="165" y="-574.5" font-family="Helvetica,sans-Serif" font-size="10.00" fill="#ffffff">pandas</text>
</g>
<!-- pandas&#45;&gt;opencf_converters_structured -->
<g id="edge38" class="edge">
<title>pandas&#45;&gt;opencf_converters_structured</title><style>.edge>path:hover{stroke-width:8}</style>
<path fill="none" stroke="black" d="M190.15,-595.27C194.77,-599.46 199.31,-604.12 203,-609 236.41,-653.17 220.61,-710 276,-710 276,-710 276,-710 368.45,-710 467.37,-710 576.6,-666.5 636.89,-638.37"/>
<polygon fill="#9933cc" stroke="black" points="638.6,-641.44 646.14,-634 635.61,-635.11 638.6,-641.44"/>
</g>
<!-- pandas&#45;&gt;opencf_io_handlers_spreadsheet -->
<g id="edge39" class="edge">
<title>pandas&#45;&gt;opencf_io_handlers_spreadsheet</title><style>.edge>path:hover{stroke-width:8}</style>
<path fill="none" stroke="black" d="M192.25,-558.93C214.28,-545.96 246.74,-531.93 276,-539"/>
</g>
<!-- pdf2docx -->
<g id="node20" class="node">
<title>pdf2docx</title><style>.edge>path:hover{stroke-width:8}</style>
<polygon fill="#b65395" stroke="black" points="398.45,-36 395.45,-40 374.45,-40 371.45,-36 336.45,-36 336.45,0 398.45,0 398.45,-36"/>
<text text-anchor="middle" x="367.45" y="-15.5" font-family="Helvetica,sans-Serif" font-size="10.00" fill="#ffffff">pdf2docx</text>
</g>
<!-- pdf2docx&#45;&gt;opencf_converters_document -->
<g id="edge40" class="edge">
<title>pdf2docx&#45;&gt;opencf_converters_document</title><style>.edge>path:hover{stroke-width:8}</style>
<path fill="none" stroke="black" d="M398.45,-32.46C426.24,-44.73 469.1,-60.83 508.51,-64"/>
<path fill="none" stroke="black" d="M510.51,-64C548.19,-67.03 590.63,-67.08 624.03,-66.35"/>
<polygon fill="#b65395" stroke="black" points="624.18,-69.84 634.09,-66.1 624,-62.84 624.18,-69.84"/>
</g>
</g>
</svg>
