<?xml version="1.0" encoding="UTF-8" standalone="no"?>
<!DOCTYPE svg PUBLIC "-//W3C//DTD SVG 1.1//EN"
 "http://www.w3.org/Graphics/SVG/1.1/DTD/svg11.dtd">
<!-- Generated by graphviz version 2.43.0 (0)
 -->
<!-- Title: G Pages: 1 -->
<svg width="820pt" height="550pt"
 viewBox="0.00 0.00 820.37 549.82" xmlns="http://www.w3.org/2000/svg" xmlns:xlink="http://www.w3.org/1999/xlink">
<g id="graph0" class="graph" transform="scale(1 1) rotate(0) translate(4 545.82)">
<title>G</title><style>.edge>path:hover{stroke-width:8}</style>
<polygon fill="white" stroke="transparent" points="-4,4 -4,-545.82 816.37,-545.82 816.37,4 -4,4"/>
<!-- opencf -->
<g id="node1" class="node">
<title>opencf</title><style>.edge>path:hover{stroke-width:8}</style>
<ellipse fill="#407fc0" stroke="black" cx="347.55" cy="-21.21" rx="29.37" ry="18"/>
<text text-anchor="middle" x="347.55" y="-18.71" font-family="Helvetica,sans-Serif" font-size="10.00" fill="#ffffff">opencf</text>
</g>
<!-- opencf_app -->
<g id="node2" class="node">
<title>opencf_app</title><style>.edge>path:hover{stroke-width:8}</style>
<ellipse fill="#406b96" stroke="black" cx="771.16" cy="-201.21" rx="41.41" ry="18"/>
<text text-anchor="middle" x="771.16" y="-198.71" font-family="Helvetica,sans-Serif" font-size="10.00" fill="#ffffff">opencf.app</text>
</g>
<!-- opencf_converters -->
<g id="node3" class="node">
<title>opencf_converters</title><style>.edge>path:hover{stroke-width:8}</style>
<ellipse fill="#1e4c7a" stroke="black" cx="645.87" cy="-226.21" rx="48.17" ry="21.43"/>
<text text-anchor="middle" x="645.87" y="-229.21" font-family="Helvetica,sans-Serif" font-size="10.00" fill="#ffffff">opencf.</text>
<text text-anchor="middle" x="645.87" y="-218.21" font-family="Helvetica,sans-Serif" font-size="10.00" fill="#ffffff">converters</text>
</g>
<!-- opencf_converters&#45;&gt;opencf_app -->
<g id="edge16" class="edge">
<title>opencf_converters&#45;&gt;opencf_app</title><style>.edge>path:hover{stroke-width:8}</style>
<path fill="none" stroke="black" d="M689.99,-217.47C700.84,-215.27 712.53,-212.9 723.54,-210.67"/>
<polygon fill="#1e4c7a" stroke="black" points="724.31,-214.08 733.41,-208.67 722.91,-207.22 724.31,-214.08"/>
</g>
<!-- opencf_import_script -->
<g id="node4" class="node">
<title>opencf_import_script</title><style>.edge>path:hover{stroke-width:8}</style>
<ellipse fill="#407fc0" stroke="black" cx="216.28" cy="-21.21" rx="57.05" ry="21.43"/>
<text text-anchor="middle" x="216.28" y="-24.21" font-family="Helvetica,sans-Serif" font-size="10.00" fill="#ffffff">opencf.</text>
<text text-anchor="middle" x="216.28" y="-13.21" font-family="Helvetica,sans-Serif" font-size="10.00" fill="#ffffff">import_script</text>
</g>
<!-- opencf_import_script&#45;&gt;opencf -->
<g id="edge17" class="edge">
<title>opencf_import_script&#45;&gt;opencf</title><style>.edge>path:hover{stroke-width:8}</style>
<path fill="none" stroke="black" d="M273.6,-21.21C285.13,-21.21 297.03,-21.21 307.78,-21.21"/>
<polygon fill="#407fc0" stroke="black" points="308.09,-24.71 318.09,-21.21 308.09,-17.71 308.09,-24.71"/>
</g>
<!-- opencf_io_handlers -->
<g id="node5" class="node">
<title>opencf_io_handlers</title><style>.edge>path:hover{stroke-width:8}</style>
<ellipse fill="#1e4c7a" stroke="black" cx="510.17" cy="-275.21" rx="51.74" ry="21.43"/>
<text text-anchor="middle" x="510.17" y="-278.21" font-family="Helvetica,sans-Serif" font-size="10.00" fill="#ffffff">opencf.</text>
<text text-anchor="middle" x="510.17" y="-267.21" font-family="Helvetica,sans-Serif" font-size="10.00" fill="#ffffff">io_handlers</text>
</g>
<!-- opencf_io_handlers&#45;&gt;opencf_converters -->
<g id="edge18" class="edge">
<title>opencf_io_handlers&#45;&gt;opencf_converters</title><style>.edge>path:hover{stroke-width:8}</style>
<path fill="none" stroke="black" d="M549.48,-261.17C564.82,-255.55 582.62,-249.03 598.67,-243.15"/>
<polygon fill="#1e4c7a" stroke="black" points="600.21,-246.31 608.39,-239.58 597.8,-239.74 600.21,-246.31"/>
</g>
<!-- PIL -->
<g id="node6" class="node">
<title>PIL</title><style>.edge>path:hover{stroke-width:8}</style>
<polygon fill="#e61919" stroke="black" points="243.28,-293.21 240.28,-297.21 219.28,-297.21 216.28,-293.21 189.28,-293.21 189.28,-257.21 243.28,-257.21 243.28,-293.21"/>
<text text-anchor="middle" x="216.28" y="-272.71" font-family="Helvetica,sans-Serif" font-size="10.00" fill="#ffffff">PIL</text>
</g>
<!-- PIL&#45;&gt;opencf_converters -->
<g id="edge1" class="edge">
<title>PIL&#45;&gt;opencf_converters</title><style>.edge>path:hover{stroke-width:8}</style>
<path fill="none" stroke="black" d="M218.15,-293.54C221.96,-348.88 242.01,-512.03 346.55,-537.21"/>
<path fill="none" stroke="black" d="M348.55,-537.21C422.94,-555.13 443.38,-514.29 509.17,-475.21"/>
</g>
<!-- PIL&#45;&gt;opencf_io_handlers -->
<g id="edge2" class="edge">
<title>PIL&#45;&gt;opencf_io_handlers</title><style>.edge>path:hover{stroke-width:8}</style>
<path fill="none" stroke="black" d="M243.4,-262.36C274.99,-247.44 326.43,-225.35 346.55,-229.21"/>
</g>
<!-- pypdf -->
<g id="node16" class="node">
<title>pypdf</title><style>.edge>path:hover{stroke-width:8}</style>
<polygon fill="#c04080" stroke="black" points="374.55,-347.21 371.55,-351.21 350.55,-351.21 347.55,-347.21 320.55,-347.21 320.55,-311.21 374.55,-311.21 374.55,-347.21"/>
<text text-anchor="middle" x="347.55" y="-326.71" font-family="Helvetica,sans-Serif" font-size="10.00" fill="#ffffff">pypdf</text>
</g>
<!-- PIL&#45;&gt;pypdf -->
<g id="edge3" class="edge">
<title>PIL&#45;&gt;pypdf</title><style>.edge>path:hover{stroke-width:8}</style>
<path fill="none" stroke="black" d="M243.44,-286.14C262.89,-294.27 289.64,-305.44 311.03,-314.37"/>
<polygon fill="#e61919" stroke="black" points="309.85,-317.68 320.43,-318.3 312.55,-311.22 309.85,-317.68"/>
</g>
<!-- aspose -->
<g id="node7" class="node">
<title>aspose</title><style>.edge>path:hover{stroke-width:8}</style>
<polygon fill="#c28547" stroke="black" points="374.55,-455.21 371.55,-459.21 350.55,-459.21 347.55,-455.21 320.55,-455.21 320.55,-419.21 374.55,-419.21 374.55,-455.21"/>
<text text-anchor="middle" x="347.55" y="-434.71" font-family="Helvetica,sans-Serif" font-size="10.00" fill="#000000">aspose</text>
</g>
<!-- aspose&#45;&gt;opencf_converters -->
<g id="edge4" class="edge">
<title>aspose&#45;&gt;opencf_converters</title><style>.edge>path:hover{stroke-width:8}</style>
<path fill="none" stroke="black" d="M374.82,-431.15C389.49,-429.19 407.56,-429.26 421.55,-437.21"/>
</g>
<!-- aspose&#45;&gt;opencf_io_handlers -->
<g id="edge5" class="edge">
<title>aspose&#45;&gt;opencf_io_handlers</title><style>.edge>path:hover{stroke-width:8}</style>
<path fill="none" stroke="black" d="M374.92,-421.52C378.93,-418.2 382.68,-414.41 385.55,-410.21 420.64,-358.98 360.66,-287.38 421.55,-275.21"/>
</g>
<!-- cv2 -->
<g id="node8" class="node">
<title>cv2</title><style>.edge>path:hover{stroke-width:8}</style>
<polygon fill="#cccc33" stroke="black" points="374.55,-147.21 371.55,-151.21 350.55,-151.21 347.55,-147.21 320.55,-147.21 320.55,-111.21 374.55,-111.21 374.55,-147.21"/>
<text text-anchor="middle" x="347.55" y="-126.71" font-family="Helvetica,sans-Serif" font-size="10.00" fill="#000000">cv2</text>
</g>
<!-- cv2&#45;&gt;opencf_converters -->
<g id="edge6" class="edge">
<title>cv2&#45;&gt;opencf_converters</title><style>.edge>path:hover{stroke-width:8}</style>
<path fill="none" stroke="black" d="M374.57,-145.77C378.52,-148.95 382.35,-152.47 385.55,-156.21 408.29,-182.8 392.55,-206.65 421.55,-226.21"/>
<path fill="none" stroke="black" d="M422.55,-226.21C448.68,-243.84 531.97,-238.98 588.84,-233.14"/>
<polygon fill="#cccc33" stroke="black" points="589.56,-236.59 599.13,-232.05 588.82,-229.63 589.56,-236.59"/>
</g>
<!-- cv2&#45;&gt;opencf_io_handlers -->
<g id="edge7" class="edge">
<title>cv2&#45;&gt;opencf_io_handlers</title><style>.edge>path:hover{stroke-width:8}</style>
<path fill="none" stroke="black" d="M422.55,-226.21C437.02,-235.98 453.56,-245.66 468.28,-253.82"/>
<polygon fill="#cccc33" stroke="black" points="466.73,-256.96 477.18,-258.68 470.09,-250.81 466.73,-256.96"/>
</g>
<!-- fitz -->
<g id="node9" class="node">
<title>fitz</title><style>.edge>path:hover{stroke-width:8}</style>
<polygon fill="#85c247" stroke="black" points="374.55,-401.21 371.55,-405.21 350.55,-405.21 347.55,-401.21 320.55,-401.21 320.55,-365.21 374.55,-365.21 374.55,-401.21"/>
<text text-anchor="middle" x="347.55" y="-380.71" font-family="Helvetica,sans-Serif" font-size="10.00" fill="#000000">fitz</text>
</g>
<!-- fitz&#45;&gt;opencf_converters -->
<g id="edge8" class="edge">
<title>fitz&#45;&gt;opencf_converters</title><style>.edge>path:hover{stroke-width:8}</style>
<path fill="none" stroke="black" d="M373.66,-401.47C377.65,-404.38 381.72,-407.38 385.55,-410.21 401.63,-422.11 404.17,-427.32 421.55,-437.21"/>
</g>
<!-- fitz&#45;&gt;opencf_io_handlers -->
<g id="edge9" class="edge">
<title>fitz&#45;&gt;opencf_io_handlers</title><style>.edge>path:hover{stroke-width:8}</style>
<path fill="none" stroke="black" d="M374.76,-366.81C378.69,-363.61 382.45,-360.05 385.55,-356.21 410.3,-325.56 382.92,-282.93 421.55,-275.21"/>
</g>
<!-- generalimport -->
<g id="node10" class="node">
<title>generalimport</title><style>.edge>path:hover{stroke-width:8}</style>
<polygon fill="#40c040" stroke="black" points="86,-39.21 83,-43.21 62,-43.21 59,-39.21 0,-39.21 0,-3.21 86,-3.21 86,-39.21"/>
<text text-anchor="middle" x="43" y="-18.71" font-family="Helvetica,sans-Serif" font-size="10.00" fill="#000000">generalimport</text>
</g>
<!-- generalimport&#45;&gt;opencf_import_script -->
<g id="edge10" class="edge">
<title>generalimport&#45;&gt;opencf_import_script</title><style>.edge>path:hover{stroke-width:8}</style>
<path fill="none" stroke="black" d="M86.34,-21.21C105.15,-21.21 127.75,-21.21 148.74,-21.21"/>
<polygon fill="#40c040" stroke="black" points="148.88,-24.71 158.88,-21.21 148.88,-17.71 148.88,-24.71"/>
</g>
<!-- imageio -->
<g id="node11" class="node">
<title>imageio</title><style>.edge>path:hover{stroke-width:8}</style>
<polygon fill="#40c080" stroke="black" points="375.55,-201.21 372.55,-205.21 351.55,-205.21 348.55,-201.21 319.55,-201.21 319.55,-165.21 375.55,-165.21 375.55,-201.21"/>
<text text-anchor="middle" x="347.55" y="-180.71" font-family="Helvetica,sans-Serif" font-size="10.00" fill="#000000">imageio</text>
</g>
<!-- imageio&#45;&gt;opencf_io_handlers -->
<g id="edge11" class="edge">
<title>imageio&#45;&gt;opencf_io_handlers</title><style>.edge>path:hover{stroke-width:8}</style>
<path fill="none" stroke="black" d="M371.93,-201.44C376.71,-205.7 381.51,-210.4 385.55,-215.21 405.56,-239.02 391.06,-281.3 421.55,-275.21"/>
<path fill="none" stroke="black" d="M422.55,-275.21C430.92,-273.54 439.84,-272.61 448.66,-272.17"/>
<polygon fill="#40c080" stroke="black" points="449.02,-275.67 458.91,-271.88 448.82,-268.67 449.02,-275.67"/>
</g>
<!-- numpy -->
<g id="node12" class="node">
<title>numpy</title><style>.edge>path:hover{stroke-width:8}</style>
<polygon fill="#0cf3f3" stroke="black" points="70,-293.21 67,-297.21 46,-297.21 43,-293.21 16,-293.21 16,-257.21 70,-257.21 70,-293.21"/>
<text text-anchor="middle" x="43" y="-272.71" font-family="Helvetica,sans-Serif" font-size="10.00" fill="#000000">numpy</text>
</g>
<!-- numpy&#45;&gt;opencf_converters -->
<g id="edge14" class="edge">
<title>numpy&#45;&gt;opencf_converters</title><style>.edge>path:hover{stroke-width:8}</style>
<path fill="none" stroke="black" d="M123,-275.21C155.23,-286.16 283.41,-496.41 309.55,-518.21 323.75,-530.05 329.24,-530.72 346.55,-537.21"/>
</g>
<!-- numpy&#45;&gt;opencf_io_handlers -->
<g id="edge15" class="edge">
<title>numpy&#45;&gt;opencf_io_handlers</title><style>.edge>path:hover{stroke-width:8}</style>
<path fill="none" stroke="black" d="M217.28,-229.21C269.97,-206.31 290.13,-218.37 346.55,-229.21"/>
<path fill="none" stroke="black" d="M348.55,-229.21C366.71,-232.7 369.88,-238.41 385.55,-248.21 402.51,-258.82 401.94,-279.13 421.55,-275.21"/>
</g>
<!-- numpy&#45;&gt;PIL -->
<g id="edge12" class="edge">
<title>numpy&#45;&gt;PIL</title><style>.edge>path:hover{stroke-width:8}</style>
<path fill="none" stroke="black" d="M123,-275.21C140.71,-281.23 161.46,-281.76 178.8,-280.55"/>
<polygon fill="#0cf3f3" stroke="black" points="179.45,-284.01 189.09,-279.61 178.81,-277.04 179.45,-284.01"/>
</g>
<!-- numpy&#45;&gt;cv2 -->
<g id="edge13" class="edge">
<title>numpy&#45;&gt;cv2</title><style>.edge>path:hover{stroke-width:8}</style>
<path fill="none" stroke="black" d="M70.33,-271.07C85.78,-269.64 105.46,-269.6 122,-275.21"/>
<path fill="none" stroke="black" d="M123,-275.21C141.94,-281.64 141.3,-257.53 159,-248.21 182.36,-235.92 191.06,-239.74 215.28,-229.21"/>
<path fill="none" stroke="black" d="M217.28,-229.21C265.24,-208.37 267.92,-187.85 309.55,-156.21 310.74,-155.31 311.95,-154.4 313.18,-153.48"/>
<polygon fill="#0cf3f3" stroke="black" points="315.44,-156.16 321.38,-147.38 311.26,-150.54 315.44,-156.16"/>
</g>
<!-- opencf_core -->
<g id="node13" class="node">
<title>opencf_core</title><style>.edge>path:hover{stroke-width:8}</style>
<polygon fill="#3b3bce" stroke="black" points="385.55,-93.21 382.55,-97.21 361.55,-97.21 358.55,-93.21 309.55,-93.21 309.55,-57.21 385.55,-57.21 385.55,-93.21"/>
<text text-anchor="middle" x="347.55" y="-72.71" font-family="Helvetica,sans-Serif" font-size="10.00" fill="#ffffff">opencf_core</text>
</g>
<!-- opencf_core&#45;&gt;opencf_app -->
<g id="edge19" class="edge">
<title>opencf_core&#45;&gt;opencf_app</title><style>.edge>path:hover{stroke-width:8}</style>
<path fill="none" stroke="black" d="M377.08,-93.46C380.17,-96.16 383.09,-99.09 385.55,-102.21 411.23,-134.73 390.49,-160.79 421.55,-188.21"/>
<path fill="none" stroke="black" d="M422.55,-188.21C451.41,-213.69 470.72,-186.31 509.17,-188.21"/>
<path fill="none" stroke="black" d="M511.17,-188.21C592.39,-192.24 612.76,-191.77 693.96,-196.21 702.42,-196.68 711.42,-197.22 720.15,-197.78"/>
<polygon fill="#3b3bce" stroke="black" points="720.02,-201.27 730.23,-198.43 720.47,-194.29 720.02,-201.27"/>
</g>
<!-- opencf_core&#45;&gt;opencf_converters -->
<g id="edge20" class="edge">
<title>opencf_core&#45;&gt;opencf_converters</title><style>.edge>path:hover{stroke-width:8}</style>
<path fill="none" stroke="black" d="M511.17,-188.21C541.95,-189.74 575.28,-199.2 600.97,-208.29"/>
<polygon fill="#3b3bce" stroke="black" points="599.83,-211.6 610.42,-211.75 602.23,-205.03 599.83,-211.6"/>
</g>
<!-- opencf_core&#45;&gt;opencf_io_handlers -->
<g id="edge21" class="edge">
<title>opencf_core&#45;&gt;opencf_io_handlers</title><style>.edge>path:hover{stroke-width:8}</style>
<path fill="none" stroke="black" d="M422.55,-188.21C444.03,-207.17 466.83,-230.21 483.65,-247.81"/>
<polygon fill="#3b3bce" stroke="black" points="481.5,-250.64 490.93,-255.48 486.58,-245.82 481.5,-250.64"/>
</g>
<!-- openpyxl -->
<g id="node14" class="node">
<title>openpyxl</title><style>.edge>path:hover{stroke-width:8}</style>
<polygon fill="#7f33cc" stroke="black" points="378.55,-293.21 375.55,-297.21 354.55,-297.21 351.55,-293.21 316.55,-293.21 316.55,-257.21 378.55,-257.21 378.55,-293.21"/>
<text text-anchor="middle" x="347.55" y="-272.71" font-family="Helvetica,sans-Serif" font-size="10.00" fill="#ffffff">openpyxl</text>
</g>
<!-- openpyxl&#45;&gt;opencf_io_handlers -->
<g id="edge22" class="edge">
<title>openpyxl&#45;&gt;opencf_io_handlers</title><style>.edge>path:hover{stroke-width:8}</style>
<path fill="none" stroke="black" d="M378.65,-277.85C391.92,-278.34 407.63,-277.99 421.55,-275.21"/>
</g>
<!-- pdf2docx -->
<g id="node15" class="node">
<title>pdf2docx</title><style>.edge>path:hover{stroke-width:8}</style>
<polygon fill="#c247c2" stroke="black" points="378.55,-509.21 375.55,-513.21 354.55,-513.21 351.55,-509.21 316.55,-509.21 316.55,-473.21 378.55,-473.21 378.55,-509.21"/>
<text text-anchor="middle" x="347.55" y="-488.71" font-family="Helvetica,sans-Serif" font-size="10.00" fill="#ffffff">pdf2docx</text>
</g>
<!-- pdf2docx&#45;&gt;opencf_converters -->
<g id="edge23" class="edge">
<title>pdf2docx&#45;&gt;opencf_converters</title><style>.edge>path:hover{stroke-width:8}</style>
<path fill="none" stroke="black" d="M422.55,-475.21C455.77,-455.75 476.07,-494.87 509.17,-475.21"/>
</g>
<!-- pdf2docx&#45;&gt;opencf_io_handlers -->
<g id="edge24" class="edge">
<title>pdf2docx&#45;&gt;opencf_io_handlers</title><style>.edge>path:hover{stroke-width:8}</style>
<path fill="none" stroke="black" d="M378.88,-488.86C392.64,-486.75 408.68,-482.76 421.55,-475.21"/>
<path fill="none" stroke="black" d="M422.55,-475.21C482.07,-440.34 500.74,-353.71 506.56,-306.73"/>
<polygon fill="#c247c2" stroke="black" points="510.07,-306.84 507.7,-296.51 503.12,-306.06 510.07,-306.84"/>
</g>
<!-- pypdf&#45;&gt;opencf_converters -->
<g id="edge25" class="edge">
<title>pypdf&#45;&gt;opencf_converters</title><style>.edge>path:hover{stroke-width:8}</style>
<path fill="none" stroke="black" d="M374.76,-345.62C378.69,-348.82 382.45,-352.38 385.55,-356.21 410.3,-386.86 387.31,-417.74 421.55,-437.21"/>
<path fill="none" stroke="black" d="M422.55,-437.21C459.09,-458 473.02,-496.68 509.17,-475.21"/>
<path fill="none" stroke="black" d="M511.17,-475.21C591.43,-427.55 626.24,-313.22 638.83,-257.63"/>
<polygon fill="#c04080" stroke="black" points="642.29,-258.16 640.99,-247.65 635.45,-256.68 642.29,-258.16"/>
</g>
<!-- pypdf&#45;&gt;opencf_io_handlers -->
<g id="edge26" class="edge">
<title>pypdf&#45;&gt;opencf_io_handlers</title><style>.edge>path:hover{stroke-width:8}</style>
<path fill="none" stroke="black" d="M373.66,-310.96C377.65,-308.04 381.72,-305.05 385.55,-302.21 401.63,-290.32 401.94,-279.13 421.55,-275.21"/>
</g>
</g>
</svg>
