<?xml version="1.0" encoding="UTF-8" standalone="no"?>
<!DOCTYPE svg PUBLIC "-//W3C//DTD SVG 1.1//EN"
 "http://www.w3.org/Graphics/SVG/1.1/DTD/svg11.dtd">
<!-- Generated by graphviz version 2.43.0 (0)
 -->
<!-- Title: G Pages: 1 -->
<svg width="699pt" height="420pt"
 viewBox="0.00 0.00 698.82 420.00" xmlns="http://www.w3.org/2000/svg" xmlns:xlink="http://www.w3.org/1999/xlink">
<g id="graph0" class="graph" transform="scale(1 1) rotate(0) translate(4 416)">
<title>G</title><style>.edge>path:hover{stroke-width:8}</style>
<polygon fill="white" stroke="transparent" points="-4,4 -4,-416 694.82,-416 694.82,4 -4,4"/>
<!-- opencf_app -->
<g id="node1" class="node">
<title>opencf_app</title><style>.edge>path:hover{stroke-width:8}</style>
<ellipse fill="#4685a4" stroke="black" cx="649.61" cy="-101" rx="41.41" ry="18"/>
<text text-anchor="middle" x="649.61" y="-98.5" font-family="Helvetica,sans-Serif" font-size="10.00" fill="#ffffff">opencf.app</text>
</g>
<!-- opencf_converters -->
<g id="node2" class="node">
<title>opencf_converters</title><style>.edge>path:hover{stroke-width:8}</style>
<ellipse fill="#1e5c7a" stroke="black" cx="524.32" cy="-126" rx="48.17" ry="21.43"/>
<text text-anchor="middle" x="524.32" y="-129" font-family="Helvetica,sans-Serif" font-size="10.00" fill="#ffffff">opencf.</text>
<text text-anchor="middle" x="524.32" y="-118" font-family="Helvetica,sans-Serif" font-size="10.00" fill="#ffffff">converters</text>
</g>
<!-- opencf_converters&#45;&gt;opencf_app -->
<g id="edge12" class="edge">
<title>opencf_converters&#45;&gt;opencf_app</title><style>.edge>path:hover{stroke-width:8}</style>
<path fill="none" stroke="black" d="M568.44,-117.26C579.29,-115.06 590.98,-112.69 601.98,-110.45"/>
<polygon fill="#1e5c7a" stroke="black" points="602.75,-113.87 611.86,-108.45 601.36,-107.01 602.75,-113.87"/>
</g>
<!-- opencf_io_handlers -->
<g id="node3" class="node">
<title>opencf_io_handlers</title><style>.edge>path:hover{stroke-width:8}</style>
<ellipse fill="#1e5c7a" stroke="black" cx="388.62" cy="-175" rx="51.74" ry="21.43"/>
<text text-anchor="middle" x="388.62" y="-178" font-family="Helvetica,sans-Serif" font-size="10.00" fill="#ffffff">opencf.</text>
<text text-anchor="middle" x="388.62" y="-167" font-family="Helvetica,sans-Serif" font-size="10.00" fill="#ffffff">io_handlers</text>
</g>
<!-- opencf_io_handlers&#45;&gt;opencf_converters -->
<g id="edge13" class="edge">
<title>opencf_io_handlers&#45;&gt;opencf_converters</title><style>.edge>path:hover{stroke-width:8}</style>
<path fill="none" stroke="black" d="M427.93,-160.96C443.27,-155.34 461.07,-148.81 477.12,-142.93"/>
<polygon fill="#1e5c7a" stroke="black" points="478.66,-146.1 486.84,-139.37 476.25,-139.52 478.66,-146.1"/>
</g>
<!-- PIL -->
<g id="node4" class="node">
<title>PIL</title><style>.edge>path:hover{stroke-width:8}</style>
<polygon fill="#d92626" stroke="black" points="192,-290 189,-294 168,-294 165,-290 138,-290 138,-254 192,-254 192,-290"/>
<text text-anchor="middle" x="165" y="-269.5" font-family="Helvetica,sans-Serif" font-size="10.00" fill="#ffffff">PIL</text>
</g>
<!-- PIL&#45;&gt;opencf_converters -->
<g id="edge1" class="edge">
<title>PIL&#45;&gt;opencf_converters</title><style>.edge>path:hover{stroke-width:8}</style>
<path fill="none" stroke="black" d="M271,-272C325.11,-265.37 339.13,-334.9 387.62,-310"/>
</g>
<!-- PIL&#45;&gt;opencf_io_handlers -->
<g id="edge2" class="edge">
<title>PIL&#45;&gt;opencf_io_handlers</title><style>.edge>path:hover{stroke-width:8}</style>
<path fill="none" stroke="black" d="M192.35,-273.76C213.23,-274.73 243.09,-275.17 269,-272"/>
<path fill="none" stroke="black" d="M271,-272C312.75,-266.89 347.8,-230.4 368.25,-203.67"/>
<polygon fill="#d92626" stroke="black" points="371.25,-205.51 374.37,-195.39 365.62,-201.35 371.25,-205.51"/>
</g>
<!-- PyPDF2 -->
<g id="node5" class="node">
<title>PyPDF2</title><style>.edge>path:hover{stroke-width:8}</style>
<polygon fill="#c29947" stroke="black" points="192,-236 189,-240 168,-240 165,-236 138,-236 138,-200 192,-200 192,-236"/>
<text text-anchor="middle" x="165" y="-215.5" font-family="Helvetica,sans-Serif" font-size="10.00" fill="#000000">PyPDF2</text>
</g>
<!-- PyPDF2&#45;&gt;opencf_converters -->
<g id="edge3" class="edge">
<title>PyPDF2&#45;&gt;opencf_converters</title><style>.edge>path:hover{stroke-width:8}</style>
<path fill="none" stroke="black" d="M271,-234C332.48,-240.88 332.59,-338.26 387.62,-310"/>
<path fill="none" stroke="black" d="M389.62,-310C452.84,-277.53 493.25,-199.77 511.68,-156.45"/>
<polygon fill="#c29947" stroke="black" points="515,-157.57 515.58,-146.99 508.53,-154.9 515,-157.57"/>
</g>
<!-- PyPDF2&#45;&gt;opencf_io_handlers -->
<g id="edge4" class="edge">
<title>PyPDF2&#45;&gt;opencf_io_handlers</title><style>.edge>path:hover{stroke-width:8}</style>
<path fill="none" stroke="black" d="M192.16,-222.7C212.93,-226.27 242.74,-231.06 269,-234"/>
<path fill="none" stroke="black" d="M271,-234C303.74,-237.66 336.85,-218.2 359.38,-200.66"/>
<polygon fill="#c29947" stroke="black" points="361.62,-203.35 367.18,-194.33 357.21,-197.91 361.62,-203.35"/>
</g>
<!-- cv2 -->
<g id="node6" class="node">
<title>cv2</title><style>.edge>path:hover{stroke-width:8}</style>
<polygon fill="#99cc33" stroke="black" points="192,-344 189,-348 168,-348 165,-344 138,-344 138,-308 192,-308 192,-344"/>
<text text-anchor="middle" x="165" y="-323.5" font-family="Helvetica,sans-Serif" font-size="10.00" fill="#000000">cv2</text>
</g>
<!-- cv2&#45;&gt;opencf_converters -->
<g id="edge5" class="edge">
<title>cv2&#45;&gt;opencf_converters</title><style>.edge>path:hover{stroke-width:8}</style>
<path fill="none" stroke="black" d="M271,-310C319.96,-292.99 341.51,-333.68 387.62,-310"/>
</g>
<!-- cv2&#45;&gt;opencf_io_handlers -->
<g id="edge6" class="edge">
<title>cv2&#45;&gt;opencf_io_handlers</title><style>.edge>path:hover{stroke-width:8}</style>
<path fill="none" stroke="black" d="M192.02,-324.55C213.23,-322.76 243.7,-318.79 269,-310"/>
<path fill="none" stroke="black" d="M271,-310C320.61,-292.77 355.66,-239.14 373.68,-204.89"/>
<polygon fill="#99cc33" stroke="black" points="376.89,-206.29 378.3,-195.79 370.65,-203.11 376.89,-206.29"/>
</g>
<!-- imageio -->
<g id="node7" class="node">
<title>imageio</title><style>.edge>path:hover{stroke-width:8}</style>
<polygon fill="#40c040" stroke="black" points="193,-182 190,-186 169,-186 166,-182 137,-182 137,-146 193,-146 193,-182"/>
<text text-anchor="middle" x="165" y="-161.5" font-family="Helvetica,sans-Serif" font-size="10.00" fill="#000000">imageio</text>
</g>
<!-- imageio&#45;&gt;opencf_io_handlers -->
<g id="edge7" class="edge">
<title>imageio&#45;&gt;opencf_io_handlers</title><style>.edge>path:hover{stroke-width:8}</style>
<path fill="none" stroke="black" d="M193.28,-161.73C214.15,-160.54 243.55,-160.05 269,-164"/>
</g>
<!-- numpy -->
<g id="node8" class="node">
<title>numpy</title><style>.edge>path:hover{stroke-width:8}</style>
<polygon fill="#0cf3a6" stroke="black" points="54,-344 51,-348 30,-348 27,-344 0,-344 0,-308 54,-308 54,-344"/>
<text text-anchor="middle" x="27" y="-323.5" font-family="Helvetica,sans-Serif" font-size="10.00" fill="#000000">numpy</text>
</g>
<!-- numpy&#45;&gt;opencf_converters -->
<g id="edge10" class="edge">
<title>numpy&#45;&gt;opencf_converters</title><style>.edge>path:hover{stroke-width:8}</style>
<path fill="none" stroke="black" d="M91,-326C110.11,-320.09 108.03,-346.68 127,-353 159.04,-363.68 169.44,-356.86 203,-353 286.7,-343.38 312.67,-348.49 387.62,-310"/>
</g>
<!-- numpy&#45;&gt;opencf_io_handlers -->
<g id="edge11" class="edge">
<title>numpy&#45;&gt;opencf_io_handlers</title><style>.edge>path:hover{stroke-width:8}</style>
<path fill="none" stroke="black" d="M54.2,-329.55C65.47,-330.18 78.63,-329.69 90,-326"/>
<path fill="none" stroke="black" d="M91,-326C172.34,-299.62 61.12,-191.52 127,-137 176.49,-96.04 205.52,-154.14 269,-164"/>
<path fill="none" stroke="black" d="M271,-164C289.38,-166.34 309.45,-168.4 327.68,-170.1"/>
<polygon fill="#0cf3a6" stroke="black" points="327.61,-173.61 337.89,-171.03 328.24,-166.63 327.61,-173.61"/>
</g>
<!-- numpy&#45;&gt;PIL -->
<g id="edge8" class="edge">
<title>numpy&#45;&gt;PIL</title><style>.edge>path:hover{stroke-width:8}</style>
<path fill="none" stroke="black" d="M91,-326C110.02,-319.83 110.92,-310.89 127,-299 128.2,-298.11 129.42,-297.21 130.65,-296.3"/>
<polygon fill="#0cf3a6" stroke="black" points="132.9,-299 138.89,-290.26 128.76,-293.35 132.9,-299"/>
</g>
<!-- numpy&#45;&gt;cv2 -->
<g id="edge9" class="edge">
<title>numpy&#45;&gt;cv2</title><style>.edge>path:hover{stroke-width:8}</style>
<path fill="none" stroke="black" d="M91,-326C102.56,-322.25 115.71,-321.31 127.63,-321.6"/>
<polygon fill="#0cf3a6" stroke="black" points="127.54,-325.1 137.71,-322.13 127.91,-318.11 127.54,-325.1"/>
</g>
<!-- opencf_core -->
<g id="node9" class="node">
<title>opencf_core</title><style>.edge>path:hover{stroke-width:8}</style>
<polygon fill="#3b3bce" stroke="black" points="203,-36 200,-40 179,-40 176,-36 127,-36 127,0 203,0 203,-36"/>
<text text-anchor="middle" x="165" y="-15.5" font-family="Helvetica,sans-Serif" font-size="10.00" fill="#ffffff">opencf_core</text>
</g>
<!-- opencf_core&#45;&gt;opencf_app -->
<g id="edge14" class="edge">
<title>opencf_core&#45;&gt;opencf_app</title><style>.edge>path:hover{stroke-width:8}</style>
<path fill="none" stroke="black" d="M191.15,-36.18C216.29,-54.15 253.38,-80.07 269,-88"/>
<path fill="none" stroke="black" d="M271,-88C317.22,-111.46 335.85,-85.43 387.62,-88"/>
<path fill="none" stroke="black" d="M389.62,-88C470.83,-92.03 491.21,-91.56 572.4,-96 580.87,-96.46 589.87,-97.01 598.6,-97.56"/>
<polygon fill="#3b3bce" stroke="black" points="598.47,-101.06 608.67,-98.22 598.92,-94.08 598.47,-101.06"/>
</g>
<!-- opencf_core&#45;&gt;opencf_converters -->
<g id="edge15" class="edge">
<title>opencf_core&#45;&gt;opencf_converters</title><style>.edge>path:hover{stroke-width:8}</style>
<path fill="none" stroke="black" d="M389.62,-88C420.39,-89.53 453.73,-98.98 479.42,-108.08"/>
<polygon fill="#3b3bce" stroke="black" points="478.27,-111.39 488.87,-111.53 480.68,-104.81 478.27,-111.39"/>
</g>
<!-- opencf_core&#45;&gt;opencf_io_handlers -->
<g id="edge16" class="edge">
<title>opencf_core&#45;&gt;opencf_io_handlers</title><style>.edge>path:hover{stroke-width:8}</style>
<path fill="none" stroke="black" d="M271,-88C303.3,-104.4 336,-129.72 358.52,-148.83"/>
<polygon fill="#3b3bce" stroke="black" points="356.48,-151.68 366.34,-155.55 361.05,-146.38 356.48,-151.68"/>
</g>
<!-- pandas -->
<g id="node10" class="node">
<title>pandas</title><style>.edge>path:hover{stroke-width:8}</style>
<polygon fill="#9933cc" stroke="black" points="192,-90 189,-94 168,-94 165,-90 138,-90 138,-54 192,-54 192,-90"/>
<text text-anchor="middle" x="165" y="-69.5" font-family="Helvetica,sans-Serif" font-size="10.00" fill="#ffffff">pandas</text>
</g>
<!-- pandas&#45;&gt;opencf_converters -->
<g id="edge17" class="edge">
<title>pandas&#45;&gt;opencf_converters</title><style>.edge>path:hover{stroke-width:8}</style>
<path fill="none" stroke="black" d="M192.15,-88.41C212.42,-100.45 241.58,-116.32 269,-126"/>
<path fill="none" stroke="black" d="M271,-126C336.45,-149.1 417.53,-143.61 469.83,-136.07"/>
<polygon fill="#9933cc" stroke="black" points="470.53,-139.5 479.89,-134.54 469.48,-132.58 470.53,-139.5"/>
</g>
<!-- pandas&#45;&gt;opencf_io_handlers -->
<g id="edge18" class="edge">
<title>pandas&#45;&gt;opencf_io_handlers</title><style>.edge>path:hover{stroke-width:8}</style>
<path fill="none" stroke="black" d="M271,-126C295.53,-134.66 322.33,-145.8 344.05,-155.27"/>
<polygon fill="#9933cc" stroke="black" points="342.77,-158.53 353.33,-159.35 345.59,-152.12 342.77,-158.53"/>
</g>
<!-- pdf2docx -->
<g id="node11" class="node">
<title>pdf2docx</title><style>.edge>path:hover{stroke-width:8}</style>
<polygon fill="#b65395" stroke="black" points="301,-412 298,-416 277,-416 274,-412 239,-412 239,-376 301,-376 301,-412"/>
<text text-anchor="middle" x="270" y="-391.5" font-family="Helvetica,sans-Serif" font-size="10.00" fill="#ffffff">pdf2docx</text>
</g>
<!-- pdf2docx&#45;&gt;opencf_converters -->
<g id="edge19" class="edge">
<title>pdf2docx&#45;&gt;opencf_converters</title><style>.edge>path:hover{stroke-width:8}</style>
<path fill="none" stroke="black" d="M292.08,-375.81C314.51,-357.2 351.66,-328.47 387.62,-310"/>
</g>
</g>
</svg>
