<?xml version="1.0" encoding="UTF-8" standalone="no"?>
<!DOCTYPE svg PUBLIC "-//W3C//DTD SVG 1.1//EN"
 "http://www.w3.org/Graphics/SVG/1.1/DTD/svg11.dtd">
<!-- Generated by graphviz version 2.43.0 (0)
 -->
<!-- Title: G Pages: 1 -->
<svg width="820pt" height="447pt"
 viewBox="0.00 0.00 820.37 447.21" xmlns="http://www.w3.org/2000/svg" xmlns:xlink="http://www.w3.org/1999/xlink">
<g id="graph0" class="graph" transform="scale(1 1) rotate(0) translate(4 443.21)">
<title>G</title><style>.edge>path:hover{stroke-width:8}</style>
<polygon fill="white" stroke="transparent" points="-4,4 -4,-443.21 816.37,-443.21 816.37,4 -4,4"/>
<!-- opencf -->
<g id="node1" class="node">
<title>opencf</title><style>.edge>path:hover{stroke-width:8}</style>
<ellipse fill="#4c7fb3" stroke="black" cx="347.55" cy="-21.21" rx="29.37" ry="18"/>
<text text-anchor="middle" x="347.55" y="-18.71" font-family="Helvetica,sans-Serif" font-size="10.00" fill="#ffffff">opencf</text>
</g>
<!-- opencf_app -->
<g id="node2" class="node">
<title>opencf_app</title><style>.edge>path:hover{stroke-width:8}</style>
<ellipse fill="#43709d" stroke="black" cx="771.16" cy="-130.21" rx="41.41" ry="18"/>
<text text-anchor="middle" x="771.16" y="-127.71" font-family="Helvetica,sans-Serif" font-size="10.00" fill="#ffffff">opencf.app</text>
</g>
<!-- opencf_converters -->
<g id="node3" class="node">
<title>opencf_converters</title><style>.edge>path:hover{stroke-width:8}</style>
<ellipse fill="#2866a3" stroke="black" cx="645.87" cy="-155.21" rx="48.17" ry="21.43"/>
<text text-anchor="middle" x="645.87" y="-158.21" font-family="Helvetica,sans-Serif" font-size="10.00" fill="#ffffff">opencf.</text>
<text text-anchor="middle" x="645.87" y="-147.21" font-family="Helvetica,sans-Serif" font-size="10.00" fill="#ffffff">converters</text>
</g>
<!-- opencf_converters&#45;&gt;opencf_app -->
<g id="edge12" class="edge">
<title>opencf_converters&#45;&gt;opencf_app</title><style>.edge>path:hover{stroke-width:8}</style>
<path fill="none" stroke="black" d="M689.99,-146.47C700.84,-144.27 712.53,-141.9 723.54,-139.67"/>
<polygon fill="#2866a3" stroke="black" points="724.31,-143.08 733.41,-137.67 722.91,-136.22 724.31,-143.08"/>
</g>
<!-- opencf_import_script -->
<g id="node4" class="node">
<title>opencf_import_script</title><style>.edge>path:hover{stroke-width:8}</style>
<ellipse fill="#407fc0" stroke="black" cx="216.28" cy="-21.21" rx="57.05" ry="21.43"/>
<text text-anchor="middle" x="216.28" y="-24.21" font-family="Helvetica,sans-Serif" font-size="10.00" fill="#ffffff">opencf.</text>
<text text-anchor="middle" x="216.28" y="-13.21" font-family="Helvetica,sans-Serif" font-size="10.00" fill="#ffffff">import_script</text>
</g>
<!-- opencf_import_script&#45;&gt;opencf -->
<g id="edge13" class="edge">
<title>opencf_import_script&#45;&gt;opencf</title><style>.edge>path:hover{stroke-width:8}</style>
<path fill="none" stroke="black" d="M273.6,-21.21C285.13,-21.21 297.03,-21.21 307.78,-21.21"/>
<polygon fill="#407fc0" stroke="black" points="308.09,-24.71 318.09,-21.21 308.09,-17.71 308.09,-24.71"/>
</g>
<!-- opencf_io_handlers -->
<g id="node5" class="node">
<title>opencf_io_handlers</title><style>.edge>path:hover{stroke-width:8}</style>
<ellipse fill="#264c73" stroke="black" cx="510.17" cy="-204.21" rx="51.74" ry="21.43"/>
<text text-anchor="middle" x="510.17" y="-207.21" font-family="Helvetica,sans-Serif" font-size="10.00" fill="#ffffff">opencf.</text>
<text text-anchor="middle" x="510.17" y="-196.21" font-family="Helvetica,sans-Serif" font-size="10.00" fill="#ffffff">io_handlers</text>
</g>
<!-- opencf_io_handlers&#45;&gt;opencf_converters -->
<g id="edge14" class="edge">
<title>opencf_io_handlers&#45;&gt;opencf_converters</title><style>.edge>path:hover{stroke-width:8}</style>
<path fill="none" stroke="black" d="M549.48,-190.17C564.82,-184.55 582.62,-178.03 598.67,-172.15"/>
<polygon fill="#264c73" stroke="black" points="600.21,-175.31 608.39,-168.58 597.8,-168.74 600.21,-175.31"/>
</g>
<!-- PIL -->
<g id="node6" class="node">
<title>PIL</title><style>.edge>path:hover{stroke-width:8}</style>
<polygon fill="#d92626" stroke="black" points="243.28,-347.21 240.28,-351.21 219.28,-351.21 216.28,-347.21 189.28,-347.21 189.28,-311.21 243.28,-311.21 243.28,-347.21"/>
<text text-anchor="middle" x="216.28" y="-326.71" font-family="Helvetica,sans-Serif" font-size="10.00" fill="#ffffff">PIL</text>
</g>
<!-- PIL&#45;&gt;opencf_io_handlers -->
<g id="edge1" class="edge">
<title>PIL&#45;&gt;opencf_io_handlers</title><style>.edge>path:hover{stroke-width:8}</style>
<path fill="none" stroke="black" d="M243.42,-343C275.3,-359.03 327.31,-382.42 346.55,-375.21"/>
<path fill="none" stroke="black" d="M348.55,-375.21C365.86,-368.73 372.59,-369.39 385.55,-356.21 410.92,-330.43 387.48,-295.36 421.55,-283.21"/>
</g>
<!-- pypdf -->
<g id="node16" class="node">
<title>pypdf</title><style>.edge>path:hover{stroke-width:8}</style>
<polygon fill="#b34c80" stroke="black" points="374.55,-347.21 371.55,-351.21 350.55,-351.21 347.55,-347.21 320.55,-347.21 320.55,-311.21 374.55,-311.21 374.55,-347.21"/>
<text text-anchor="middle" x="347.55" y="-326.71" font-family="Helvetica,sans-Serif" font-size="10.00" fill="#ffffff">pypdf</text>
</g>
<!-- PIL&#45;&gt;pypdf -->
<g id="edge2" class="edge">
<title>PIL&#45;&gt;pypdf</title><style>.edge>path:hover{stroke-width:8}</style>
<path fill="none" stroke="black" d="M243.44,-329.21C262.62,-329.21 288.92,-329.21 310.16,-329.21"/>
<polygon fill="#d92626" stroke="black" points="310.43,-332.71 320.43,-329.21 310.43,-325.71 310.43,-332.71"/>
</g>
<!-- aspose -->
<g id="node7" class="node">
<title>aspose</title><style>.edge>path:hover{stroke-width:8}</style>
<polygon fill="#b68553" stroke="black" points="374.55,-255.21 371.55,-259.21 350.55,-259.21 347.55,-255.21 320.55,-255.21 320.55,-219.21 374.55,-219.21 374.55,-255.21"/>
<text text-anchor="middle" x="347.55" y="-234.71" font-family="Helvetica,sans-Serif" font-size="10.00" fill="#000000">aspose</text>
</g>
<!-- aspose&#45;&gt;opencf_io_handlers -->
<g id="edge3" class="edge">
<title>aspose&#45;&gt;opencf_io_handlers</title><style>.edge>path:hover{stroke-width:8}</style>
<path fill="none" stroke="black" d="M369.25,-255.43C386.79,-269.88 410.76,-287.06 421.55,-283.21"/>
</g>
<!-- cv2 -->
<g id="node8" class="node">
<title>cv2</title><style>.edge>path:hover{stroke-width:8}</style>
<polygon fill="#bfc040" stroke="black" points="243.28,-293.21 240.28,-297.21 219.28,-297.21 216.28,-293.21 189.28,-293.21 189.28,-257.21 243.28,-257.21 243.28,-293.21"/>
<text text-anchor="middle" x="216.28" y="-272.71" font-family="Helvetica,sans-Serif" font-size="10.00" fill="#000000">cv2</text>
</g>
<!-- cv2&#45;&gt;opencf_io_handlers -->
<g id="edge4" class="edge">
<title>cv2&#45;&gt;opencf_io_handlers</title><style>.edge>path:hover{stroke-width:8}</style>
<path fill="none" stroke="black" d="M243.62,-275.79C269.82,-276.61 311.1,-278.57 346.55,-283.21"/>
</g>
<!-- fitz -->
<g id="node9" class="node">
<title>fitz</title><style>.edge>path:hover{stroke-width:8}</style>
<polygon fill="#85b653" stroke="black" points="374.55,-201.21 371.55,-205.21 350.55,-205.21 347.55,-201.21 320.55,-201.21 320.55,-165.21 374.55,-165.21 374.55,-201.21"/>
<text text-anchor="middle" x="347.55" y="-180.71" font-family="Helvetica,sans-Serif" font-size="10.00" fill="#000000">fitz</text>
</g>
<!-- fitz&#45;&gt;opencf_io_handlers -->
<g id="edge5" class="edge">
<title>fitz&#45;&gt;opencf_io_handlers</title><style>.edge>path:hover{stroke-width:8}</style>
<path fill="none" stroke="black" d="M374.62,-199.73C378.57,-202.91 382.38,-206.44 385.55,-210.21 408.84,-237.9 387.48,-295.36 421.55,-283.21"/>
</g>
<!-- generalimport -->
<g id="node10" class="node">
<title>generalimport</title><style>.edge>path:hover{stroke-width:8}</style>
<polygon fill="#40c040" stroke="black" points="86,-39.21 83,-43.21 62,-43.21 59,-39.21 0,-39.21 0,-3.21 86,-3.21 86,-39.21"/>
<text text-anchor="middle" x="43" y="-18.71" font-family="Helvetica,sans-Serif" font-size="10.00" fill="#000000">generalimport</text>
</g>
<!-- generalimport&#45;&gt;opencf_import_script -->
<g id="edge6" class="edge">
<title>generalimport&#45;&gt;opencf_import_script</title><style>.edge>path:hover{stroke-width:8}</style>
<path fill="none" stroke="black" d="M86.34,-21.21C105.15,-21.21 127.75,-21.21 148.74,-21.21"/>
<polygon fill="#40c040" stroke="black" points="148.88,-24.71 158.88,-21.21 148.88,-17.71 148.88,-24.71"/>
</g>
<!-- imageio -->
<g id="node11" class="node">
<title>imageio</title><style>.edge>path:hover{stroke-width:8}</style>
<polygon fill="#40c080" stroke="black" points="244.28,-239.21 241.28,-243.21 220.28,-243.21 217.28,-239.21 188.28,-239.21 188.28,-203.21 244.28,-203.21 244.28,-239.21"/>
<text text-anchor="middle" x="216.28" y="-218.71" font-family="Helvetica,sans-Serif" font-size="10.00" fill="#000000">imageio</text>
</g>
<!-- imageio&#45;&gt;opencf_io_handlers -->
<g id="edge7" class="edge">
<title>imageio&#45;&gt;opencf_io_handlers</title><style>.edge>path:hover{stroke-width:8}</style>
<path fill="none" stroke="black" d="M244.35,-234.21C282.23,-252.38 346.46,-283.2 346.55,-283.21"/>
<path fill="none" stroke="black" d="M348.55,-283.21C380.72,-287.43 390.99,-294.11 421.55,-283.21"/>
</g>
<!-- numpy -->
<g id="node12" class="node">
<title>numpy</title><style>.edge>path:hover{stroke-width:8}</style>
<polygon fill="#0cf3f3" stroke="black" points="70,-370.21 67,-374.21 46,-374.21 43,-370.21 16,-370.21 16,-334.21 70,-334.21 70,-370.21"/>
<text text-anchor="middle" x="43" y="-349.71" font-family="Helvetica,sans-Serif" font-size="10.00" fill="#000000">numpy</text>
</g>
<!-- numpy&#45;&gt;opencf_io_handlers -->
<g id="edge11" class="edge">
<title>numpy&#45;&gt;opencf_io_handlers</title><style>.edge>path:hover{stroke-width:8}</style>
<path fill="none" stroke="black" d="M123,-352.21C138.59,-348.18 142.99,-354.51 159,-356.21 242.31,-365.06 268.09,-404.6 346.55,-375.21"/>
</g>
<!-- numpy&#45;&gt;PIL -->
<g id="edge8" class="edge">
<title>numpy&#45;&gt;PIL</title><style>.edge>path:hover{stroke-width:8}</style>
<path fill="none" stroke="black" d="M123,-352.21C141.4,-347.45 161.91,-342.32 178.91,-338.12"/>
<polygon fill="#0cf3f3" stroke="black" points="180.12,-341.43 188.99,-335.63 178.45,-334.63 180.12,-341.43"/>
</g>
<!-- numpy&#45;&gt;cv2 -->
<g id="edge9" class="edge">
<title>numpy&#45;&gt;cv2</title><style>.edge>path:hover{stroke-width:8}</style>
<path fill="none" stroke="black" d="M123,-352.21C149.51,-345.35 138,-319.79 159,-302.21 165.19,-297.03 172.55,-292.57 179.87,-288.86"/>
<polygon fill="#0cf3f3" stroke="black" points="181.46,-291.98 189.03,-284.56 178.49,-285.65 181.46,-291.98"/>
</g>
<!-- numpy&#45;&gt;imageio -->
<g id="edge10" class="edge">
<title>numpy&#45;&gt;imageio</title><style>.edge>path:hover{stroke-width:8}</style>
<path fill="none" stroke="black" d="M70.06,-355.44C85.41,-356.55 105.09,-356.59 122,-352.21"/>
<path fill="none" stroke="black" d="M123,-352.21C170.35,-339.96 126.44,-284.72 159,-248.21 164.43,-242.13 171.52,-237.29 178.84,-233.49"/>
<polygon fill="#0cf3f3" stroke="black" points="180.5,-236.58 188.12,-229.21 177.57,-230.22 180.5,-236.58"/>
</g>
<!-- opencf_core -->
<g id="node13" class="node">
<title>opencf_core</title><style>.edge>path:hover{stroke-width:8}</style>
<polygon fill="#3b3bce" stroke="black" points="385.55,-93.21 382.55,-97.21 361.55,-97.21 358.55,-93.21 309.55,-93.21 309.55,-57.21 385.55,-57.21 385.55,-93.21"/>
<text text-anchor="middle" x="347.55" y="-72.71" font-family="Helvetica,sans-Serif" font-size="10.00" fill="#ffffff">opencf_core</text>
</g>
<!-- opencf_core&#45;&gt;opencf_app -->
<g id="edge15" class="edge">
<title>opencf_core&#45;&gt;opencf_app</title><style>.edge>path:hover{stroke-width:8}</style>
<path fill="none" stroke="black" d="M375.73,-93.35C379.19,-96.14 382.57,-99.13 385.55,-102.21 405.34,-122.69 397.22,-140.42 421.55,-155.21"/>
<path fill="none" stroke="black" d="M422.55,-155.21C455.45,-175.21 470.83,-158.65 509.17,-155.21"/>
<path fill="none" stroke="black" d="M511.17,-155.21C551.75,-151.58 557.61,-131.97 597.79,-125.21 639.94,-118.12 651.24,-123.81 693.96,-125.21 702.43,-125.49 711.43,-125.94 720.16,-126.46"/>
<polygon fill="#3b3bce" stroke="black" points="720.04,-129.96 730.24,-127.1 720.48,-122.98 720.04,-129.96"/>
</g>
<!-- opencf_core&#45;&gt;opencf_converters -->
<g id="edge16" class="edge">
<title>opencf_core&#45;&gt;opencf_converters</title><style>.edge>path:hover{stroke-width:8}</style>
<path fill="none" stroke="black" d="M511.17,-155.21C536.14,-152.98 563.84,-152.63 587.53,-152.97"/>
<polygon fill="#3b3bce" stroke="black" points="587.69,-156.48 597.75,-153.17 587.82,-149.48 587.69,-156.48"/>
</g>
<!-- opencf_core&#45;&gt;opencf_io_handlers -->
<g id="edge17" class="edge">
<title>opencf_core&#45;&gt;opencf_io_handlers</title><style>.edge>path:hover{stroke-width:8}</style>
<path fill="none" stroke="black" d="M422.55,-155.21C437.71,-164.43 454.65,-174.13 469.49,-182.45"/>
<polygon fill="#3b3bce" stroke="black" points="468,-185.63 478.43,-187.44 471.4,-179.51 468,-185.63"/>
</g>
<!-- openpyxl -->
<g id="node14" class="node">
<title>openpyxl</title><style>.edge>path:hover{stroke-width:8}</style>
<polygon fill="#7a18dd" stroke="black" points="378.55,-439.21 375.55,-443.21 354.55,-443.21 351.55,-439.21 316.55,-439.21 316.55,-403.21 378.55,-403.21 378.55,-439.21"/>
<text text-anchor="middle" x="347.55" y="-418.71" font-family="Helvetica,sans-Serif" font-size="10.00" fill="#ffffff">openpyxl</text>
</g>
<!-- openpyxl&#45;&gt;opencf_io_handlers -->
<g id="edge18" class="edge">
<title>openpyxl&#45;&gt;opencf_io_handlers</title><style>.edge>path:hover{stroke-width:8}</style>
<path fill="none" stroke="black" d="M373.51,-402.89C377.96,-398.77 382.23,-394.14 385.55,-389.21 413.34,-347.94 374.69,-299.92 421.55,-283.21"/>
</g>
<!-- pdf2docx -->
<g id="node15" class="node">
<title>pdf2docx</title><style>.edge>path:hover{stroke-width:8}</style>
<polygon fill="#b653b6" stroke="black" points="378.55,-147.21 375.55,-151.21 354.55,-151.21 351.55,-147.21 316.55,-147.21 316.55,-111.21 378.55,-111.21 378.55,-147.21"/>
<text text-anchor="middle" x="347.55" y="-126.71" font-family="Helvetica,sans-Serif" font-size="10.00" fill="#ffffff">pdf2docx</text>
</g>
<!-- pdf2docx&#45;&gt;opencf_io_handlers -->
<g id="edge19" class="edge">
<title>pdf2docx&#45;&gt;opencf_io_handlers</title><style>.edge>path:hover{stroke-width:8}</style>
<path fill="none" stroke="black" d="M377.82,-147.52C380.71,-150.17 383.37,-153.08 385.55,-156.21 419.08,-204.36 366.29,-302.91 421.55,-283.21"/>
<path fill="none" stroke="black" d="M422.55,-283.21C449.27,-273.69 472.57,-251.12 488.26,-232.53"/>
<polygon fill="#b653b6" stroke="black" points="491.11,-234.56 494.7,-224.6 485.68,-230.15 491.11,-234.56"/>
</g>
<!-- pypdf&#45;&gt;opencf_io_handlers -->
<g id="edge20" class="edge">
<title>pypdf&#45;&gt;opencf_io_handlers</title><style>.edge>path:hover{stroke-width:8}</style>
<path fill="none" stroke="black" d="M371.51,-311.04C385.24,-301.15 403.49,-289.65 421.55,-283.21"/>
</g>
</g>
</svg>
