<?xml version="1.0" encoding="UTF-8" standalone="no"?>
<!DOCTYPE svg PUBLIC "-//W3C//DTD SVG 1.1//EN"
 "http://www.w3.org/Graphics/SVG/1.1/DTD/svg11.dtd">
<!-- Generated by graphviz version 2.43.0 (0)
 -->
<!-- Title: G Pages: 1 -->
<svg width="639pt" height="376pt"
 viewBox="0.00 0.00 639.30 376.38" xmlns="http://www.w3.org/2000/svg" xmlns:xlink="http://www.w3.org/1999/xlink">
<g id="graph0" class="graph" transform="scale(1 1) rotate(0) translate(4 372.38)">
<title>G</title><style>.edge>path:hover{stroke-width:8}</style>
<polygon fill="white" stroke="transparent" points="-4,4 -4,-372.38 635.3,-372.38 635.3,4 -4,4"/>
<!-- openconv_app -->
<g id="node1" class="node">
<title>openconv_app</title><style>.edge>path:hover{stroke-width:8}</style>
<ellipse fill="#7546a4" stroke="black" cx="581.85" cy="-78" rx="49.4" ry="18"/>
<text text-anchor="middle" x="581.85" y="-75.5" font-family="Helvetica,sans-Serif" font-size="10.00" fill="#ffffff">openconv.app</text>
</g>
<!-- openconv_converters -->
<g id="node2" class="node">
<title>openconv_converters</title><style>.edge>path:hover{stroke-width:8}</style>
<ellipse fill="#4c1e7a" stroke="black" cx="448.32" cy="-103" rx="48.17" ry="21.43"/>
<text text-anchor="middle" x="448.32" y="-106" font-family="Helvetica,sans-Serif" font-size="10.00" fill="#ffffff">openconv.</text>
<text text-anchor="middle" x="448.32" y="-95" font-family="Helvetica,sans-Serif" font-size="10.00" fill="#ffffff">converters</text>
</g>
<!-- openconv_converters&#45;&gt;openconv_app -->
<g id="edge15" class="edge">
<title>openconv_converters&#45;&gt;openconv_app</title><style>.edge>path:hover{stroke-width:8}</style>
<path fill="none" stroke="black" d="M492.75,-94.74C503.87,-92.63 515.94,-90.34 527.49,-88.14"/>
<polygon fill="#4c1e7a" stroke="black" points="528.29,-91.55 537.46,-86.25 526.99,-84.68 528.29,-91.55"/>
</g>
<!-- openconv_io_handlers -->
<g id="node3" class="node">
<title>openconv_io_handlers</title><style>.edge>path:hover{stroke-width:8}</style>
<ellipse fill="#4c1e7a" stroke="black" cx="312.62" cy="-172" rx="51.74" ry="21.43"/>
<text text-anchor="middle" x="312.62" y="-175" font-family="Helvetica,sans-Serif" font-size="10.00" fill="#ffffff">openconv.</text>
<text text-anchor="middle" x="312.62" y="-164" font-family="Helvetica,sans-Serif" font-size="10.00" fill="#ffffff">io_handlers</text>
</g>
<!-- openconv_io_handlers&#45;&gt;openconv_converters -->
<g id="edge16" class="edge">
<title>openconv_io_handlers&#45;&gt;openconv_converters</title><style>.edge>path:hover{stroke-width:8}</style>
<path fill="none" stroke="black" d="M345.64,-155.47C364.18,-145.9 387.68,-133.78 407.42,-123.59"/>
<polygon fill="#4c1e7a" stroke="black" points="409.2,-126.61 416.48,-118.92 405.99,-120.39 409.2,-126.61"/>
</g>
<!-- PIL -->
<g id="node4" class="node">
<title>PIL</title><style>.edge>path:hover{stroke-width:8}</style>
<polygon fill="#d92626" stroke="black" points="184.5,-236 181.5,-240 160.5,-240 157.5,-236 130.5,-236 130.5,-200 184.5,-200 184.5,-236"/>
<text text-anchor="middle" x="157.5" y="-215.5" font-family="Helvetica,sans-Serif" font-size="10.00" fill="#ffffff">PIL</text>
</g>
<!-- PIL&#45;&gt;openconv_converters -->
<g id="edge1" class="edge">
<title>PIL&#45;&gt;openconv_converters</title><style>.edge>path:hover{stroke-width:8}</style>
<path fill="none" stroke="black" d="M225,-234C266.99,-236.08 275.85,-294.09 311.62,-272"/>
<path fill="none" stroke="black" d="M313.62,-272C369.22,-237.65 411.2,-171.49 432.25,-132.92"/>
<polygon fill="#d92626" stroke="black" points="435.53,-134.21 437.15,-123.74 429.36,-130.92 435.53,-134.21"/>
</g>
<!-- PIL&#45;&gt;openconv_io_handlers -->
<g id="edge2" class="edge">
<title>PIL&#45;&gt;openconv_io_handlers</title><style>.edge>path:hover{stroke-width:8}</style>
<path fill="none" stroke="black" d="M184.61,-226.79C196.48,-230.15 210.79,-233.35 224,-234"/>
<path fill="none" stroke="black" d="M225,-234C250.63,-235.27 273.92,-216.95 289.88,-199.9"/>
<polygon fill="#d92626" stroke="black" points="292.66,-202.04 296.68,-192.24 287.43,-197.4 292.66,-202.04"/>
</g>
<!-- PyPDF2 -->
<g id="node5" class="node">
<title>PyPDF2</title><style>.edge>path:hover{stroke-width:8}</style>
<polygon fill="#c2a347" stroke="black" points="184.5,-144 181.5,-148 160.5,-148 157.5,-144 130.5,-144 130.5,-108 184.5,-108 184.5,-144"/>
<text text-anchor="middle" x="157.5" y="-123.5" font-family="Helvetica,sans-Serif" font-size="10.00" fill="#000000">PyPDF2</text>
</g>
<!-- PyPDF2&#45;&gt;openconv_converters -->
<g id="edge3" class="edge">
<title>PyPDF2&#45;&gt;openconv_converters</title><style>.edge>path:hover{stroke-width:8}</style>
<path fill="none" stroke="black" d="M184.71,-126.8C196.72,-127.37 211.12,-128.34 224,-130"/>
<path fill="none" stroke="black" d="M225,-130C283.98,-137.58 351.83,-126.47 396.91,-116.29"/>
<polygon fill="#c2a347" stroke="black" points="397.78,-119.68 406.73,-114.01 396.2,-112.86 397.78,-119.68"/>
</g>
<!-- PyPDF2&#45;&gt;openconv_io_handlers -->
<g id="edge4" class="edge">
<title>PyPDF2&#45;&gt;openconv_io_handlers</title><style>.edge>path:hover{stroke-width:8}</style>
<path fill="none" stroke="black" d="M225,-130C242.98,-132.31 261.28,-140.21 276.39,-148.54"/>
<polygon fill="#c2a347" stroke="black" points="274.96,-151.75 285.36,-153.73 278.47,-145.69 274.96,-151.75"/>
</g>
<!-- convcore -->
<g id="node6" class="node">
<title>convcore</title><style>.edge>path:hover{stroke-width:8}</style>
<polygon fill="#85ce3b" stroke="black" points="188,-36 185,-40 164,-40 161,-36 127,-36 127,0 188,0 188,-36"/>
<text text-anchor="middle" x="157.5" y="-15.5" font-family="Helvetica,sans-Serif" font-size="10.00" fill="#000000">convcore</text>
</g>
<!-- convcore&#45;&gt;openconv_app -->
<g id="edge5" class="edge">
<title>convcore&#45;&gt;openconv_app</title><style>.edge>path:hover{stroke-width:8}</style>
<path fill="none" stroke="black" d="M188.12,-33.65C199.46,-39.8 212.44,-47.04 224,-54"/>
<path fill="none" stroke="black" d="M225,-54C257.99,-73.84 273.27,-50.57 311.62,-54"/>
<path fill="none" stroke="black" d="M313.62,-54C385.97,-60.48 469.34,-67.97 523.46,-72.84"/>
<polygon fill="#85ce3b" stroke="black" points="523.27,-76.33 533.55,-73.74 523.9,-69.36 523.27,-76.33"/>
</g>
<!-- convcore&#45;&gt;openconv_converters -->
<g id="edge6" class="edge">
<title>convcore&#45;&gt;openconv_converters</title><style>.edge>path:hover{stroke-width:8}</style>
<path fill="none" stroke="black" d="M313.62,-54C346.73,-56.97 381.95,-70.34 407.93,-82.36"/>
<polygon fill="#85ce3b" stroke="black" points="406.53,-85.57 417.06,-86.71 409.54,-79.25 406.53,-85.57"/>
</g>
<!-- convcore&#45;&gt;openconv_io_handlers -->
<g id="edge7" class="edge">
<title>convcore&#45;&gt;openconv_io_handlers</title><style>.edge>path:hover{stroke-width:8}</style>
<path fill="none" stroke="black" d="M225,-54C259.09,-74.51 283.88,-114.06 297.99,-141.69"/>
<polygon fill="#85ce3b" stroke="black" points="294.98,-143.5 302.54,-150.92 301.26,-140.4 294.98,-143.5"/>
</g>
<!-- cv2 -->
<g id="node7" class="node">
<title>cv2</title><style>.edge>path:hover{stroke-width:8}</style>
<polygon fill="#33cc59" stroke="black" points="184.5,-290 181.5,-294 160.5,-294 157.5,-290 130.5,-290 130.5,-254 184.5,-254 184.5,-290"/>
<text text-anchor="middle" x="157.5" y="-269.5" font-family="Helvetica,sans-Serif" font-size="10.00" fill="#000000">cv2</text>
</g>
<!-- cv2&#45;&gt;openconv_converters -->
<g id="edge8" class="edge">
<title>cv2&#45;&gt;openconv_converters</title><style>.edge>path:hover{stroke-width:8}</style>
<path fill="none" stroke="black" d="M225,-272C262.22,-262.18 278.87,-292.23 311.62,-272"/>
</g>
<!-- cv2&#45;&gt;openconv_io_handlers -->
<g id="edge9" class="edge">
<title>cv2&#45;&gt;openconv_io_handlers</title><style>.edge>path:hover{stroke-width:8}</style>
<path fill="none" stroke="black" d="M184.71,-275.04C196.85,-275.68 211.36,-275.34 224,-272"/>
<path fill="none" stroke="black" d="M225,-272C259.42,-262.92 283.91,-228.19 297.88,-202.19"/>
<polygon fill="#33cc59" stroke="black" points="301.1,-203.56 302.54,-193.07 294.87,-200.37 301.1,-203.56"/>
</g>
<!-- imageio -->
<g id="node8" class="node">
<title>imageio</title><style>.edge>path:hover{stroke-width:8}</style>
<polygon fill="#40bfc0" stroke="black" points="185.5,-90 182.5,-94 161.5,-94 158.5,-90 129.5,-90 129.5,-54 185.5,-54 185.5,-90"/>
<text text-anchor="middle" x="157.5" y="-69.5" font-family="Helvetica,sans-Serif" font-size="10.00" fill="#000000">imageio</text>
</g>
<!-- imageio&#45;&gt;openconv_io_handlers -->
<g id="edge10" class="edge">
<title>imageio&#45;&gt;openconv_io_handlers</title><style>.edge>path:hover{stroke-width:8}</style>
<path fill="none" stroke="black" d="M185.52,-89.65C210.62,-106.04 248.17,-130.56 275.77,-148.59"/>
<polygon fill="#40bfc0" stroke="black" points="274.07,-151.65 284.35,-154.19 277.89,-145.79 274.07,-151.65"/>
</g>
<!-- numpy -->
<g id="node9" class="node">
<title>numpy</title><style>.edge>path:hover{stroke-width:8}</style>
<polygon fill="#0c46f3" stroke="black" points="54,-290 51,-294 30,-294 27,-290 0,-290 0,-254 54,-254 54,-290"/>
<text text-anchor="middle" x="27" y="-269.5" font-family="Helvetica,sans-Serif" font-size="10.00" fill="#ffffff">numpy</text>
</g>
<!-- numpy&#45;&gt;openconv_converters -->
<g id="edge13" class="edge">
<title>numpy&#45;&gt;openconv_converters</title><style>.edge>path:hover{stroke-width:8}</style>
<path fill="none" stroke="black" d="M91,-272C130.25,-268.66 93.97,-331.53 127,-353 202.13,-401.83 235.39,-319.09 311.62,-272"/>
</g>
<!-- numpy&#45;&gt;openconv_io_handlers -->
<g id="edge14" class="edge">
<title>numpy&#45;&gt;openconv_io_handlers</title><style>.edge>path:hover{stroke-width:8}</style>
<path fill="none" stroke="black" d="M54.3,-273.15C65.35,-273.34 78.33,-273.16 90,-272"/>
<path fill="none" stroke="black" d="M91,-272C130.2,-268.09 95.11,-214.13 127,-191 163.35,-164.63 214.84,-161.34 254.21,-163.82"/>
<polygon fill="#0c46f3" stroke="black" points="253.96,-167.31 264.2,-164.58 254.49,-160.33 253.96,-167.31"/>
</g>
<!-- numpy&#45;&gt;PIL -->
<g id="edge11" class="edge">
<title>numpy&#45;&gt;PIL</title><style>.edge>path:hover{stroke-width:8}</style>
<path fill="none" stroke="black" d="M91,-272C95.92,-271.51 113.65,-256.72 129.42,-242.75"/>
<polygon fill="#0c46f3" stroke="black" points="131.82,-245.3 136.94,-236.02 127.16,-240.08 131.82,-245.3"/>
</g>
<!-- numpy&#45;&gt;cv2 -->
<g id="edge12" class="edge">
<title>numpy&#45;&gt;cv2</title><style>.edge>path:hover{stroke-width:8}</style>
<path fill="none" stroke="black" d="M91,-272C100.47,-271.06 110.76,-270.73 120.3,-270.72"/>
<polygon fill="#0c46f3" stroke="black" points="120.27,-274.22 130.31,-270.81 120.34,-267.22 120.27,-274.22"/>
</g>
<!-- pandas -->
<g id="node10" class="node">
<title>pandas</title><style>.edge>path:hover{stroke-width:8}</style>
<polygon fill="#cc33a6" stroke="black" points="184.5,-344 181.5,-348 160.5,-348 157.5,-344 130.5,-344 130.5,-308 184.5,-308 184.5,-344"/>
<text text-anchor="middle" x="157.5" y="-323.5" font-family="Helvetica,sans-Serif" font-size="10.00" fill="#ffffff">pandas</text>
</g>
<!-- pandas&#45;&gt;openconv_converters -->
<g id="edge17" class="edge">
<title>pandas&#45;&gt;openconv_converters</title><style>.edge>path:hover{stroke-width:8}</style>
<path fill="none" stroke="black" d="M225,-310C261.7,-289.49 275.85,-294.09 311.62,-272"/>
</g>
<!-- pandas&#45;&gt;openconv_io_handlers -->
<g id="edge18" class="edge">
<title>pandas&#45;&gt;openconv_io_handlers</title><style>.edge>path:hover{stroke-width:8}</style>
<path fill="none" stroke="black" d="M184.57,-322.94C197.08,-320.66 211.94,-316.74 224,-310"/>
<path fill="none" stroke="black" d="M225,-310C230.51,-306.92 270.49,-240.98 294.16,-201.38"/>
<polygon fill="#cc33a6" stroke="black" points="297.25,-203.03 299.37,-192.65 291.24,-199.44 297.25,-203.03"/>
</g>
</g>
</svg>
