<?xml version="1.0" encoding="UTF-8" standalone="no"?>
<!DOCTYPE svg PUBLIC "-//W3C//DTD SVG 1.1//EN"
 "http://www.w3.org/Graphics/SVG/1.1/DTD/svg11.dtd">
<!-- Generated by graphviz version 2.43.0 (0)
 -->
<!-- Title: G Pages: 1 -->
<svg width="1305pt" height="482pt"
 viewBox="0.00 0.00 1304.88 481.98" xmlns="http://www.w3.org/2000/svg" xmlns:xlink="http://www.w3.org/1999/xlink">
<g id="graph0" class="graph" transform="scale(1 1) rotate(0) translate(4 477.98)">
<title>G</title><style>.edge>path:hover{stroke-width:8}</style>
<polygon fill="white" stroke="transparent" points="-4,4 -4,-477.98 1300.88,-477.98 1300.88,4 -4,4"/>
<!-- opencf -->
<g id="node1" class="node">
<title>opencf</title><style>.edge>path:hover{stroke-width:8}</style>
<ellipse fill="#4c5fb3" stroke="black" cx="340.55" cy="-28.99" rx="29.37" ry="18"/>
<text text-anchor="middle" x="340.55" y="-26.49" font-family="Helvetica,sans-Serif" font-size="10.00" fill="#ffffff">opencf</text>
</g>
<!-- opencf_app -->
<g id="node2" class="node">
<title>opencf_app</title><style>.edge>path:hover{stroke-width:8}</style>
<ellipse fill="#4c5fb3" stroke="black" cx="1255.67" cy="-180.99" rx="41.41" ry="18"/>
<text text-anchor="middle" x="1255.67" y="-178.49" font-family="Helvetica,sans-Serif" font-size="10.00" fill="#ffffff">opencf.app</text>
</g>
<!-- opencf_converters -->
<g id="node3" class="node">
<title>opencf_converters</title><style>.edge>path:hover{stroke-width:8}</style>
<ellipse fill="#3549a1" stroke="black" cx="1130.38" cy="-180.99" rx="48.17" ry="21.43"/>
<text text-anchor="middle" x="1130.38" y="-183.99" font-family="Helvetica,sans-Serif" font-size="10.00" fill="#ffffff">opencf.</text>
<text text-anchor="middle" x="1130.38" y="-172.99" font-family="Helvetica,sans-Serif" font-size="10.00" fill="#ffffff">converters</text>
</g>
<!-- opencf_converters&#45;&gt;opencf_app -->
<g id="edge14" class="edge">
<title>opencf_converters&#45;&gt;opencf_app</title><style>.edge>path:hover{stroke-width:8}</style>
<path fill="none" stroke="black" d="M1178.7,-180.99C1187,-180.99 1195.67,-180.99 1204.06,-180.99"/>
<polygon fill="#3549a1" stroke="black" points="1204.11,-184.49 1214.11,-180.99 1204.11,-177.49 1204.11,-184.49"/>
</g>
<!-- opencf_converters_document -->
<g id="node4" class="node">
<title>opencf_converters_document</title><style>.edge>path:hover{stroke-width:8}</style>
<ellipse fill="#3d53b8" stroke="black" cx="991.85" cy="-332.99" rx="50.41" ry="28.98"/>
<text text-anchor="middle" x="991.85" y="-341.49" font-family="Helvetica,sans-Serif" font-size="10.00" fill="#ffffff">opencf.</text>
<text text-anchor="middle" x="991.85" y="-330.49" font-family="Helvetica,sans-Serif" font-size="10.00" fill="#ffffff">converters.</text>
<text text-anchor="middle" x="991.85" y="-319.49" font-family="Helvetica,sans-Serif" font-size="10.00" fill="#ffffff">document</text>
</g>
<!-- opencf_converters_document&#45;&gt;opencf_converters -->
<g id="edge15" class="edge">
<title>opencf_converters_document&#45;&gt;opencf_converters</title><style>.edge>path:hover{stroke-width:8}</style>
<path fill="none" stroke="black" d="M1026.4,-311.66C1033.31,-306.59 1040.31,-300.91 1046.3,-294.99 1072.4,-269.19 1096.42,-234.53 1111.84,-210.23"/>
<polygon fill="#3d53b8" stroke="black" points="1114.99,-211.8 1117.32,-201.46 1109.05,-208.09 1114.99,-211.8"/>
</g>
<!-- opencf_converters_markup -->
<g id="node5" class="node">
<title>opencf_converters_markup</title><style>.edge>path:hover{stroke-width:8}</style>
<ellipse fill="#475ec2" stroke="black" cx="991.85" cy="-256.99" rx="50.41" ry="28.98"/>
<text text-anchor="middle" x="991.85" y="-265.49" font-family="Helvetica,sans-Serif" font-size="10.00" fill="#ffffff">opencf.</text>
<text text-anchor="middle" x="991.85" y="-254.49" font-family="Helvetica,sans-Serif" font-size="10.00" fill="#ffffff">converters.</text>
<text text-anchor="middle" x="991.85" y="-243.49" font-family="Helvetica,sans-Serif" font-size="10.00" fill="#ffffff">markup</text>
</g>
<!-- opencf_converters_markup&#45;&gt;opencf_converters -->
<g id="edge16" class="edge">
<title>opencf_converters_markup&#45;&gt;opencf_converters</title><style>.edge>path:hover{stroke-width:8}</style>
<path fill="none" stroke="black" d="M1028.73,-237.02C1047.82,-226.39 1071.32,-213.31 1090.81,-202.46"/>
<polygon fill="#475ec2" stroke="black" points="1092.7,-205.42 1099.74,-197.49 1089.3,-199.3 1092.7,-205.42"/>
</g>
<!-- opencf_converters_pdf -->
<g id="node6" class="node">
<title>opencf_converters_pdf</title><style>.edge>path:hover{stroke-width:8}</style>
<ellipse fill="#3a50b0" stroke="black" cx="991.85" cy="-180.99" rx="50.41" ry="28.98"/>
<text text-anchor="middle" x="991.85" y="-189.49" font-family="Helvetica,sans-Serif" font-size="10.00" fill="#ffffff">opencf.</text>
<text text-anchor="middle" x="991.85" y="-178.49" font-family="Helvetica,sans-Serif" font-size="10.00" fill="#ffffff">converters.</text>
<text text-anchor="middle" x="991.85" y="-167.49" font-family="Helvetica,sans-Serif" font-size="10.00" fill="#ffffff">pdf</text>
</g>
<!-- opencf_converters_pdf&#45;&gt;opencf_converters -->
<g id="edge17" class="edge">
<title>opencf_converters_pdf&#45;&gt;opencf_converters</title><style>.edge>path:hover{stroke-width:8}</style>
<path fill="none" stroke="black" d="M1042.14,-180.99C1051.78,-180.99 1061.97,-180.99 1071.84,-180.99"/>
<polygon fill="#3a50b0" stroke="black" points="1071.99,-184.49 1081.99,-180.99 1071.99,-177.49 1071.99,-184.49"/>
</g>
<!-- opencf_converters_spreadsheet -->
<g id="node7" class="node">
<title>opencf_converters_spreadsheet</title><style>.edge>path:hover{stroke-width:8}</style>
<ellipse fill="#4057c0" stroke="black" cx="991.85" cy="-28.99" rx="54.39" ry="28.98"/>
<text text-anchor="middle" x="991.85" y="-37.49" font-family="Helvetica,sans-Serif" font-size="10.00" fill="#ffffff">opencf.</text>
<text text-anchor="middle" x="991.85" y="-26.49" font-family="Helvetica,sans-Serif" font-size="10.00" fill="#ffffff">converters.</text>
<text text-anchor="middle" x="991.85" y="-15.49" font-family="Helvetica,sans-Serif" font-size="10.00" fill="#ffffff">spreadsheet</text>
</g>
<!-- opencf_converters_spreadsheet&#45;&gt;opencf_converters -->
<g id="edge18" class="edge">
<title>opencf_converters_spreadsheet&#45;&gt;opencf_converters</title><style>.edge>path:hover{stroke-width:8}</style>
<path fill="none" stroke="black" d="M1027.52,-51.15C1034.07,-56.01 1040.63,-61.39 1046.3,-66.99 1072.4,-92.79 1096.42,-127.45 1111.84,-151.75"/>
<polygon fill="#4057c0" stroke="black" points="1109.05,-153.9 1117.32,-160.52 1114.99,-150.19 1109.05,-153.9"/>
</g>
<!-- opencf_converters_video -->
<g id="node8" class="node">
<title>opencf_converters_video</title><style>.edge>path:hover{stroke-width:8}</style>
<ellipse fill="#3d53b8" stroke="black" cx="991.85" cy="-104.99" rx="50.41" ry="28.98"/>
<text text-anchor="middle" x="991.85" y="-113.49" font-family="Helvetica,sans-Serif" font-size="10.00" fill="#ffffff">opencf.</text>
<text text-anchor="middle" x="991.85" y="-102.49" font-family="Helvetica,sans-Serif" font-size="10.00" fill="#ffffff">converters.</text>
<text text-anchor="middle" x="991.85" y="-91.49" font-family="Helvetica,sans-Serif" font-size="10.00" fill="#ffffff">video</text>
</g>
<!-- opencf_converters_video&#45;&gt;opencf_converters -->
<g id="edge19" class="edge">
<title>opencf_converters_video&#45;&gt;opencf_converters</title><style>.edge>path:hover{stroke-width:8}</style>
<path fill="none" stroke="black" d="M1028.73,-124.96C1047.82,-135.59 1071.32,-148.67 1090.81,-159.52"/>
<polygon fill="#3d53b8" stroke="black" points="1089.3,-162.68 1099.74,-164.49 1092.7,-156.57 1089.3,-162.68"/>
</g>
<!-- opencf_import_script -->
<g id="node9" class="node">
<title>opencf_import_script</title><style>.edge>path:hover{stroke-width:8}</style>
<ellipse fill="#4057c0" stroke="black" cx="216.28" cy="-28.99" rx="57.05" ry="21.43"/>
<text text-anchor="middle" x="216.28" y="-31.99" font-family="Helvetica,sans-Serif" font-size="10.00" fill="#ffffff">opencf.</text>
<text text-anchor="middle" x="216.28" y="-20.99" font-family="Helvetica,sans-Serif" font-size="10.00" fill="#ffffff">import_script</text>
</g>
<!-- opencf_import_script&#45;&gt;opencf -->
<g id="edge20" class="edge">
<title>opencf_import_script&#45;&gt;opencf</title><style>.edge>path:hover{stroke-width:8}</style>
<path fill="none" stroke="black" d="M273.76,-28.99C282.92,-28.99 292.23,-28.99 300.84,-28.99"/>
<polygon fill="#4057c0" stroke="black" points="300.95,-32.49 310.95,-28.99 300.95,-25.49 300.95,-32.49"/>
</g>
<!-- opencf_io_handlers_aspose -->
<g id="node10" class="node">
<title>opencf_io_handlers_aspose</title><style>.edge>path:hover{stroke-width:8}</style>
<ellipse fill="#3d53b8" stroke="black" cx="702.77" cy="-444.99" rx="53.98" ry="28.98"/>
<text text-anchor="middle" x="702.77" y="-453.49" font-family="Helvetica,sans-Serif" font-size="10.00" fill="#ffffff">opencf.</text>
<text text-anchor="middle" x="702.77" y="-442.49" font-family="Helvetica,sans-Serif" font-size="10.00" fill="#ffffff">io_handlers.</text>
<text text-anchor="middle" x="702.77" y="-431.49" font-family="Helvetica,sans-Serif" font-size="10.00" fill="#ffffff">aspose</text>
</g>
<!-- opencf_io_handlers_aspose&#45;&gt;opencf_converters_document -->
<g id="edge21" class="edge">
<title>opencf_io_handlers_aspose&#45;&gt;opencf_converters_document</title><style>.edge>path:hover{stroke-width:8}</style>
<path fill="none" stroke="black" d="M750.69,-431.82C778.34,-424.22 814.04,-414.67 845.96,-406.99"/>
</g>
<!-- opencf_io_handlers_opencv -->
<g id="node11" class="node">
<title>opencf_io_handlers_opencv</title><style>.edge>path:hover{stroke-width:8}</style>
<ellipse fill="#3549a1" stroke="black" cx="559.29" cy="-132.99" rx="53.98" ry="28.98"/>
<text text-anchor="middle" x="559.29" y="-141.49" font-family="Helvetica,sans-Serif" font-size="10.00" fill="#ffffff">opencf.</text>
<text text-anchor="middle" x="559.29" y="-130.49" font-family="Helvetica,sans-Serif" font-size="10.00" fill="#ffffff">io_handlers.</text>
<text text-anchor="middle" x="559.29" y="-119.49" font-family="Helvetica,sans-Serif" font-size="10.00" fill="#ffffff">opencv</text>
</g>
<!-- opencf_io_handlers_opencv&#45;&gt;opencf_converters_video -->
<g id="edge22" class="edge">
<title>opencf_io_handlers_opencv&#45;&gt;opencf_converters_video</title><style>.edge>path:hover{stroke-width:8}</style>
<path fill="none" stroke="black" d="M608.38,-121.01C621.48,-118.2 635.73,-115.58 649.03,-113.99 747.57,-102.25 863.18,-102 931.54,-103.25"/>
<polygon fill="#3549a1" stroke="black" points="931.62,-106.75 941.68,-103.45 931.76,-99.75 931.62,-106.75"/>
</g>
<!-- opencf_io_handlers_pdf2docx -->
<g id="node12" class="node">
<title>opencf_io_handlers_pdf2docx</title><style>.edge>path:hover{stroke-width:8}</style>
<ellipse fill="#4057c0" stroke="black" cx="702.77" cy="-368.99" rx="53.98" ry="28.98"/>
<text text-anchor="middle" x="702.77" y="-377.49" font-family="Helvetica,sans-Serif" font-size="10.00" fill="#ffffff">opencf.</text>
<text text-anchor="middle" x="702.77" y="-366.49" font-family="Helvetica,sans-Serif" font-size="10.00" fill="#ffffff">io_handlers.</text>
<text text-anchor="middle" x="702.77" y="-355.49" font-family="Helvetica,sans-Serif" font-size="10.00" fill="#ffffff">pdf2docx</text>
</g>
<!-- opencf_io_handlers_pdf2docx&#45;&gt;opencf_converters_document -->
<g id="edge23" class="edge">
<title>opencf_io_handlers_pdf2docx&#45;&gt;opencf_converters_document</title><style>.edge>path:hover{stroke-width:8}</style>
<path fill="none" stroke="black" d="M741.06,-389.39C769.67,-402.5 810.19,-415.6 845.96,-406.99"/>
<path fill="none" stroke="black" d="M847.96,-406.99C884.97,-398.09 923.06,-377.7 950.6,-360.57"/>
<polygon fill="#4057c0" stroke="black" points="952.59,-363.46 959.16,-355.15 948.84,-357.55 952.59,-363.46"/>
</g>
<!-- opencf_io_handlers_pillow -->
<g id="node13" class="node">
<title>opencf_io_handlers_pillow</title><style>.edge>path:hover{stroke-width:8}</style>
<ellipse fill="#314bc4" stroke="black" cx="702.77" cy="-151.99" rx="53.98" ry="28.98"/>
<text text-anchor="middle" x="702.77" y="-160.49" font-family="Helvetica,sans-Serif" font-size="10.00" fill="#ffffff">opencf.</text>
<text text-anchor="middle" x="702.77" y="-149.49" font-family="Helvetica,sans-Serif" font-size="10.00" fill="#ffffff">io_handlers.</text>
<text text-anchor="middle" x="702.77" y="-138.49" font-family="Helvetica,sans-Serif" font-size="10.00" fill="#ffffff">pillow</text>
</g>
<!-- opencf_io_handlers_pillow&#45;&gt;opencf_converters_pdf -->
<g id="edge24" class="edge">
<title>opencf_io_handlers_pillow&#45;&gt;opencf_converters_pdf</title><style>.edge>path:hover{stroke-width:8}</style>
<path fill="none" stroke="black" d="M847.96,-166.99C876.11,-166.14 907.25,-168.77 933.26,-171.97"/>
<polygon fill="#314bc4" stroke="black" points="932.96,-175.46 943.33,-173.27 933.86,-168.52 932.96,-175.46"/>
</g>
<!-- opencf_io_handlers_pillow&#45;&gt;opencf_converters_video -->
<g id="edge25" class="edge">
<title>opencf_io_handlers_pillow&#45;&gt;opencf_converters_video</title><style>.edge>path:hover{stroke-width:8}</style>
<path fill="none" stroke="black" d="M754.32,-160.68C781.43,-164.49 815.44,-167.91 845.96,-166.99"/>
<path fill="none" stroke="black" d="M847.96,-166.99C884.79,-165.88 922.89,-148.39 950.48,-132.27"/>
<polygon fill="#314bc4" stroke="black" points="952.29,-135.26 959.06,-127.1 948.68,-129.26 952.29,-135.26"/>
</g>
<!-- opencf_io_handlers_pymupdf -->
<g id="node14" class="node">
<title>opencf_io_handlers_pymupdf</title><style>.edge>path:hover{stroke-width:8}</style>
<ellipse fill="#3a50b0" stroke="black" cx="559.29" cy="-322.99" rx="53.98" ry="28.98"/>
<text text-anchor="middle" x="559.29" y="-331.49" font-family="Helvetica,sans-Serif" font-size="10.00" fill="#ffffff">opencf.</text>
<text text-anchor="middle" x="559.29" y="-320.49" font-family="Helvetica,sans-Serif" font-size="10.00" fill="#ffffff">io_handlers.</text>
<text text-anchor="middle" x="559.29" y="-309.49" font-family="Helvetica,sans-Serif" font-size="10.00" fill="#ffffff">pymupdf</text>
</g>
<!-- opencf_io_handlers_pymupdf&#45;&gt;opencf_converters_pdf -->
<g id="edge26" class="edge">
<title>opencf_io_handlers_pymupdf&#45;&gt;opencf_converters_pdf</title><style>.edge>path:hover{stroke-width:8}</style>
<path fill="none" stroke="black" d="M612.6,-318.61C670.22,-313.19 765.41,-302.47 845.96,-284.99"/>
</g>
<!-- opencf_io_handlers_pypdf -->
<g id="node15" class="node">
<title>opencf_io_handlers_pypdf</title><style>.edge>path:hover{stroke-width:8}</style>
<ellipse fill="#3a50b0" stroke="black" cx="702.77" cy="-227.99" rx="53.98" ry="28.98"/>
<text text-anchor="middle" x="702.77" y="-236.49" font-family="Helvetica,sans-Serif" font-size="10.00" fill="#ffffff">opencf.</text>
<text text-anchor="middle" x="702.77" y="-225.49" font-family="Helvetica,sans-Serif" font-size="10.00" fill="#ffffff">io_handlers.</text>
<text text-anchor="middle" x="702.77" y="-214.49" font-family="Helvetica,sans-Serif" font-size="10.00" fill="#ffffff">pypdf</text>
</g>
<!-- opencf_io_handlers_pypdf&#45;&gt;opencf_converters_pdf -->
<g id="edge27" class="edge">
<title>opencf_io_handlers_pypdf&#45;&gt;opencf_converters_pdf</title><style>.edge>path:hover{stroke-width:8}</style>
<path fill="none" stroke="black" d="M733.89,-251.69C762.05,-270.99 805.67,-293.73 845.96,-284.99"/>
<path fill="none" stroke="black" d="M847.96,-284.99C896.24,-274.51 897.39,-247.97 937.41,-218.99 941.84,-215.78 946.5,-212.43 951.14,-209.11"/>
<polygon fill="#3a50b0" stroke="black" points="953.31,-211.86 959.42,-203.2 949.24,-206.16 953.31,-211.86"/>
</g>
<!-- opencf_io_handlers_spreadsheet -->
<g id="node16" class="node">
<title>opencf_io_handlers_spreadsheet</title><style>.edge>path:hover{stroke-width:8}</style>
<ellipse fill="#3549a1" stroke="black" cx="846.96" cy="-28.99" rx="54.39" ry="28.98"/>
<text text-anchor="middle" x="846.96" y="-37.49" font-family="Helvetica,sans-Serif" font-size="10.00" fill="#ffffff">opencf.</text>
<text text-anchor="middle" x="846.96" y="-26.49" font-family="Helvetica,sans-Serif" font-size="10.00" fill="#ffffff">io_handlers.</text>
<text text-anchor="middle" x="846.96" y="-15.49" font-family="Helvetica,sans-Serif" font-size="10.00" fill="#ffffff">spreadsheet</text>
</g>
<!-- opencf_io_handlers_spreadsheet&#45;&gt;opencf_converters_spreadsheet -->
<g id="edge28" class="edge">
<title>opencf_io_handlers_spreadsheet&#45;&gt;opencf_converters_spreadsheet</title><style>.edge>path:hover{stroke-width:8}</style>
<path fill="none" stroke="black" d="M901.57,-28.99C909.79,-28.99 918.35,-28.99 926.77,-28.99"/>
<polygon fill="#3549a1" stroke="black" points="926.94,-32.49 936.94,-28.99 926.94,-25.49 926.94,-32.49"/>
</g>
<!-- PIL -->
<g id="node17" class="node">
<title>PIL</title><style>.edge>path:hover{stroke-width:8}</style>
<polygon fill="#f30c0c" stroke="black" points="243.28,-249.99 240.28,-253.99 219.28,-253.99 216.28,-249.99 189.28,-249.99 189.28,-213.99 243.28,-213.99 243.28,-249.99"/>
<text text-anchor="middle" x="216.28" y="-229.49" font-family="Helvetica,sans-Serif" font-size="10.00" fill="#ffffff">PIL</text>
</g>
<!-- PIL&#45;&gt;opencf_io_handlers_pillow -->
<g id="edge1" class="edge">
<title>PIL&#45;&gt;opencf_io_handlers_pillow</title><style>.edge>path:hover{stroke-width:8}</style>
<path fill="none" stroke="black" d="M243.52,-233.77C300.91,-237.21 441.75,-243.16 558.29,-227.99"/>
<path fill="none" stroke="black" d="M560.29,-227.99C580.69,-224.65 624.91,-199.69 658.52,-179.27"/>
<polygon fill="#f30c0c" stroke="black" points="660.55,-182.13 667.25,-173.92 656.9,-176.16 660.55,-182.13"/>
</g>
<!-- PIL&#45;&gt;opencf_io_handlers_pymupdf -->
<g id="edge2" class="edge">
<title>PIL&#45;&gt;opencf_io_handlers_pymupdf</title><style>.edge>path:hover{stroke-width:8}</style>
<path fill="none" stroke="black" d="M232.3,-250.32C253.3,-273.98 294.02,-313.09 339.55,-320.99"/>
<path fill="none" stroke="black" d="M341.55,-320.99C392.87,-329.9 452.05,-329.76 495.59,-327.75"/>
<polygon fill="#f30c0c" stroke="black" points="495.94,-331.24 505.75,-327.24 495.58,-324.25 495.94,-331.24"/>
</g>
<!-- PIL&#45;&gt;opencf_io_handlers_pypdf -->
<g id="edge3" class="edge">
<title>PIL&#45;&gt;opencf_io_handlers_pypdf</title><style>.edge>path:hover{stroke-width:8}</style>
<path fill="none" stroke="black" d="M560.29,-227.99C585.87,-224.66 614.26,-224.06 638.86,-224.52"/>
<polygon fill="#f30c0c" stroke="black" points="639.07,-228.02 649.16,-224.77 639.24,-221.02 639.07,-228.02"/>
</g>
<!-- pypdf -->
<g id="node26" class="node">
<title>pypdf</title><style>.edge>path:hover{stroke-width:8}</style>
<polygon fill="#b34c84" stroke="black" points="367.55,-291.99 364.55,-295.99 343.55,-295.99 340.55,-291.99 313.55,-291.99 313.55,-255.99 367.55,-255.99 367.55,-291.99"/>
<text text-anchor="middle" x="340.55" y="-271.49" font-family="Helvetica,sans-Serif" font-size="10.00" fill="#ffffff">pypdf</text>
</g>
<!-- PIL&#45;&gt;pypdf -->
<g id="edge4" class="edge">
<title>PIL&#45;&gt;pypdf</title><style>.edge>path:hover{stroke-width:8}</style>
<path fill="none" stroke="black" d="M243.51,-241C261.08,-247.04 284.43,-255.06 303.71,-261.68"/>
<polygon fill="#f30c0c" stroke="black" points="302.77,-265.06 313.36,-265 305.04,-258.44 302.77,-265.06"/>
</g>
<!-- aspose -->
<g id="node18" class="node">
<title>aspose</title><style>.edge>path:hover{stroke-width:8}</style>
<polygon fill="#b68953" stroke="black" points="367.55,-462.99 364.55,-466.99 343.55,-466.99 340.55,-462.99 313.55,-462.99 313.55,-426.99 367.55,-426.99 367.55,-462.99"/>
<text text-anchor="middle" x="340.55" y="-442.49" font-family="Helvetica,sans-Serif" font-size="10.00" fill="#000000">aspose</text>
</g>
<!-- aspose&#45;&gt;opencf_io_handlers_aspose -->
<g id="edge5" class="edge">
<title>aspose&#45;&gt;opencf_io_handlers_aspose</title><style>.edge>path:hover{stroke-width:8}</style>
<path fill="none" stroke="black" d="M367.75,-444.99C424.15,-444.99 558.43,-444.99 638.5,-444.99"/>
<polygon fill="#b68953" stroke="black" points="638.95,-448.49 648.95,-444.99 638.95,-441.49 638.95,-448.49"/>
</g>
<!-- cv2 -->
<g id="node19" class="node">
<title>cv2</title><style>.edge>path:hover{stroke-width:8}</style>
<polygon fill="#b4c040" stroke="black" points="243.28,-157.99 240.28,-161.99 219.28,-161.99 216.28,-157.99 189.28,-157.99 189.28,-121.99 243.28,-121.99 243.28,-157.99"/>
<text text-anchor="middle" x="216.28" y="-137.49" font-family="Helvetica,sans-Serif" font-size="10.00" fill="#000000">cv2</text>
</g>
<!-- cv2&#45;&gt;opencf_io_handlers_opencv -->
<g id="edge6" class="edge">
<title>cv2&#45;&gt;opencf_io_handlers_opencv</title><style>.edge>path:hover{stroke-width:8}</style>
<path fill="none" stroke="black" d="M243.7,-152.99C267.95,-164.18 305.23,-179.51 339.55,-185.99"/>
</g>
<!-- fitz -->
<g id="node20" class="node">
<title>fitz</title><style>.edge>path:hover{stroke-width:8}</style>
<polygon fill="#77b653" stroke="black" points="243.28,-338.99 240.28,-342.99 219.28,-342.99 216.28,-338.99 189.28,-338.99 189.28,-302.99 243.28,-302.99 243.28,-338.99"/>
<text text-anchor="middle" x="216.28" y="-318.49" font-family="Helvetica,sans-Serif" font-size="10.00" fill="#000000">fitz</text>
</g>
<!-- fitz&#45;&gt;opencf_io_handlers_pymupdf -->
<g id="edge7" class="edge">
<title>fitz&#45;&gt;opencf_io_handlers_pymupdf</title><style>.edge>path:hover{stroke-width:8}</style>
<path fill="none" stroke="black" d="M243.74,-318.4C268.66,-316.57 306.92,-315.33 339.55,-320.99"/>
</g>
<!-- generalimport -->
<g id="node21" class="node">
<title>generalimport</title><style>.edge>path:hover{stroke-width:8}</style>
<polygon fill="#40c057" stroke="black" points="86,-46.99 83,-50.99 62,-50.99 59,-46.99 0,-46.99 0,-10.99 86,-10.99 86,-46.99"/>
<text text-anchor="middle" x="43" y="-26.49" font-family="Helvetica,sans-Serif" font-size="10.00" fill="#000000">generalimport</text>
</g>
<!-- generalimport&#45;&gt;opencf_import_script -->
<g id="edge8" class="edge">
<title>generalimport&#45;&gt;opencf_import_script</title><style>.edge>path:hover{stroke-width:8}</style>
<path fill="none" stroke="black" d="M86.34,-28.99C105.15,-28.99 127.75,-28.99 148.74,-28.99"/>
<polygon fill="#40c057" stroke="black" points="148.88,-32.49 158.88,-28.99 148.88,-25.49 148.88,-32.49"/>
</g>
<!-- imageio -->
<g id="node22" class="node">
<title>imageio</title><style>.edge>path:hover{stroke-width:8}</style>
<polygon fill="#40c09d" stroke="black" points="244.28,-103.99 241.28,-107.99 220.28,-107.99 217.28,-103.99 188.28,-103.99 188.28,-67.99 244.28,-67.99 244.28,-103.99"/>
<text text-anchor="middle" x="216.28" y="-83.49" font-family="Helvetica,sans-Serif" font-size="10.00" fill="#000000">imageio</text>
</g>
<!-- imageio&#45;&gt;opencf_io_handlers_opencv -->
<g id="edge9" class="edge">
<title>imageio&#45;&gt;opencf_io_handlers_opencv</title><style>.edge>path:hover{stroke-width:8}</style>
<path fill="none" stroke="black" d="M244.54,-96.5C254.17,-100.86 264.78,-106.44 273.55,-112.99 308.59,-139.17 296.57,-177.88 339.55,-185.99"/>
<path fill="none" stroke="black" d="M341.55,-185.99C400.06,-197.04 466.46,-175.71 510.17,-156.9"/>
<polygon fill="#40c09d" stroke="black" points="511.68,-160.06 519.41,-152.82 508.85,-153.66 511.68,-160.06"/>
</g>
<!-- numpy -->
<g id="node23" class="node">
<title>numpy</title><style>.edge>path:hover{stroke-width:8}</style>
<polygon fill="#0cb4f3" stroke="black" points="70,-203.99 67,-207.99 46,-207.99 43,-203.99 16,-203.99 16,-167.99 70,-167.99 70,-203.99"/>
<text text-anchor="middle" x="43" y="-183.49" font-family="Helvetica,sans-Serif" font-size="10.00" fill="#000000">numpy</text>
</g>
<!-- numpy&#45;&gt;opencf_io_handlers_opencv -->
<g id="edge13" class="edge">
<title>numpy&#45;&gt;opencf_io_handlers_opencv</title><style>.edge>path:hover{stroke-width:8}</style>
<path fill="none" stroke="black" d="M123,-185.99C218.43,-173.49 244.4,-171.52 339.55,-185.99"/>
</g>
<!-- numpy&#45;&gt;PIL -->
<g id="edge10" class="edge">
<title>numpy&#45;&gt;PIL</title><style>.edge>path:hover{stroke-width:8}</style>
<path fill="none" stroke="black" d="M123,-185.99C129.27,-185.17 156.71,-199.26 180.05,-212.05"/>
<polygon fill="#0cb4f3" stroke="black" points="178.63,-215.27 189.07,-217.04 182.02,-209.14 178.63,-215.27"/>
</g>
<!-- numpy&#45;&gt;cv2 -->
<g id="edge11" class="edge">
<title>numpy&#45;&gt;cv2</title><style>.edge>path:hover{stroke-width:8}</style>
<path fill="none" stroke="black" d="M123,-185.99C134.83,-184.44 159.35,-172.04 180.14,-160.5"/>
<polygon fill="#0cb4f3" stroke="black" points="182.08,-163.43 189.08,-155.47 178.65,-157.33 182.08,-163.43"/>
</g>
<!-- numpy&#45;&gt;imageio -->
<g id="edge12" class="edge">
<title>numpy&#45;&gt;imageio</title><style>.edge>path:hover{stroke-width:8}</style>
<path fill="none" stroke="black" d="M70.11,-187.68C85.31,-188.24 104.81,-188.24 122,-185.99"/>
<path fill="none" stroke="black" d="M123,-185.99C158.87,-181.29 133.28,-138.43 159,-112.99 164.69,-107.36 171.78,-102.74 178.98,-99"/>
<polygon fill="#0cb4f3" stroke="black" points="180.51,-102.15 188.08,-94.74 177.54,-95.81 180.51,-102.15"/>
</g>
<!-- openpyxl -->
<g id="node24" class="node">
<title>openpyxl</title><style>.edge>path:hover{stroke-width:8}</style>
<polygon fill="#6631c4" stroke="black" points="469.55,-46.99 466.55,-50.99 445.55,-50.99 442.55,-46.99 407.55,-46.99 407.55,-10.99 469.55,-10.99 469.55,-46.99"/>
<text text-anchor="middle" x="438.55" y="-26.49" font-family="Helvetica,sans-Serif" font-size="10.00" fill="#ffffff">openpyxl</text>
</g>
<!-- openpyxl&#45;&gt;opencf_io_handlers_spreadsheet -->
<g id="edge29" class="edge">
<title>openpyxl&#45;&gt;opencf_io_handlers_spreadsheet</title><style>.edge>path:hover{stroke-width:8}</style>
<path fill="none" stroke="black" d="M469.77,-28.99C535.59,-28.99 693.16,-28.99 782.08,-28.99"/>
<polygon fill="#6631c4" stroke="black" points="782.31,-32.49 792.31,-28.99 782.31,-25.49 782.31,-32.49"/>
</g>
<!-- pdf2docx -->
<g id="node25" class="node">
<title>pdf2docx</title><style>.edge>path:hover{stroke-width:8}</style>
<polygon fill="#ad53b6" stroke="black" points="371.55,-397.99 368.55,-401.99 347.55,-401.99 344.55,-397.99 309.55,-397.99 309.55,-361.99 371.55,-361.99 371.55,-397.99"/>
<text text-anchor="middle" x="340.55" y="-377.49" font-family="Helvetica,sans-Serif" font-size="10.00" fill="#ffffff">pdf2docx</text>
</g>
<!-- pdf2docx&#45;&gt;opencf_io_handlers_pdf2docx -->
<g id="edge30" class="edge">
<title>pdf2docx&#45;&gt;opencf_io_handlers_pdf2docx</title><style>.edge>path:hover{stroke-width:8}</style>
<path fill="none" stroke="black" d="M371.64,-379.07C430.14,-377.29 560.32,-373.31 638.59,-370.92"/>
<polygon fill="#ad53b6" stroke="black" points="638.92,-374.41 648.81,-370.61 638.71,-367.42 638.92,-374.41"/>
</g>
<!-- pypdf&#45;&gt;opencf_io_handlers_pypdf -->
<g id="edge31" class="edge">
<title>pypdf&#45;&gt;opencf_io_handlers_pypdf</title><style>.edge>path:hover{stroke-width:8}</style>
<path fill="none" stroke="black" d="M367.8,-271.24C416.31,-266.09 523.23,-254.36 613.03,-241.99 622.11,-240.74 631.69,-239.33 641.07,-237.89"/>
<polygon fill="#b34c84" stroke="black" points="641.79,-241.32 651.14,-236.33 640.72,-234.4 641.79,-241.32"/>
</g>
</g>
</svg>
