<?xml version="1.0" encoding="UTF-8" standalone="no"?>
<!DOCTYPE svg PUBLIC "-//W3C//DTD SVG 1.1//EN"
 "http://www.w3.org/Graphics/SVG/1.1/DTD/svg11.dtd">
<!-- Generated by graphviz version 2.43.0 (0)
 -->
<!-- Title: G Pages: 1 -->
<svg width="1122pt" height="912pt"
 viewBox="0.00 0.00 1121.54 912.11" xmlns="http://www.w3.org/2000/svg" xmlns:xlink="http://www.w3.org/1999/xlink">
<g id="graph0" class="graph" transform="scale(1 1) rotate(0) translate(4 908.11)">
<title>G</title><style>.edge>path:hover{stroke-width:8}</style>
<polygon fill="white" stroke="transparent" points="-4,4 -4,-908.11 1117.54,-908.11 1117.54,4 -4,4"/>
<!-- opencf -->
<g id="node1" class="node">
<title>opencf</title><style>.edge>path:hover{stroke-width:8}</style>
<ellipse fill="#614cb3" stroke="black" cx="338.98" cy="-21.21" rx="29.37" ry="18"/>
<text text-anchor="middle" x="338.98" y="-18.71" font-family="Helvetica,sans-Serif" font-size="10.00" fill="#ffffff">opencf</text>
</g>
<!-- opencf_app -->
<g id="node2" class="node">
<title>opencf_app</title><style>.edge>path:hover{stroke-width:8}</style>
<ellipse fill="#5946a4" stroke="black" cx="1072.33" cy="-296.21" rx="41.41" ry="18"/>
<text text-anchor="middle" x="1072.33" y="-293.71" font-family="Helvetica,sans-Serif" font-size="10.00" fill="#ffffff">opencf.app</text>
</g>
<!-- opencf_converters -->
<g id="node3" class="node">
<title>opencf_converters</title><style>.edge>path:hover{stroke-width:8}</style>
<ellipse fill="#4e38a8" stroke="black" cx="947.04" cy="-363.21" rx="48.17" ry="21.43"/>
<text text-anchor="middle" x="947.04" y="-366.21" font-family="Helvetica,sans-Serif" font-size="10.00" fill="#ffffff">opencf.</text>
<text text-anchor="middle" x="947.04" y="-355.21" font-family="Helvetica,sans-Serif" font-size="10.00" fill="#ffffff">converters</text>
</g>
<!-- opencf_converters&#45;&gt;opencf_app -->
<g id="edge17" class="edge">
<title>opencf_converters&#45;&gt;opencf_app</title><style>.edge>path:hover{stroke-width:8}</style>
<path fill="none" stroke="black" d="M978.2,-346.82C995.89,-337.21 1018.3,-325.03 1036.71,-315.03"/>
<polygon fill="#4e38a8" stroke="black" points="1038.53,-318.02 1045.65,-310.17 1035.19,-311.87 1038.53,-318.02"/>
</g>
<!-- opencf_converters_document -->
<g id="node4" class="node">
<title>opencf_converters_document</title><style>.edge>path:hover{stroke-width:8}</style>
<ellipse fill="#3c2b82" stroke="black" cx="812.75" cy="-515.21" rx="50.41" ry="28.98"/>
<text text-anchor="middle" x="812.75" y="-523.71" font-family="Helvetica,sans-Serif" font-size="10.00" fill="#ffffff">opencf.</text>
<text text-anchor="middle" x="812.75" y="-512.71" font-family="Helvetica,sans-Serif" font-size="10.00" fill="#ffffff">converters.</text>
<text text-anchor="middle" x="812.75" y="-501.71" font-family="Helvetica,sans-Serif" font-size="10.00" fill="#ffffff">document</text>
</g>
<!-- opencf_converters_document&#45;&gt;opencf_converters -->
<g id="edge18" class="edge">
<title>opencf_converters_document&#45;&gt;opencf_converters</title><style>.edge>path:hover{stroke-width:8}</style>
<path fill="none" stroke="black" d="M845.33,-492.97C851.45,-488.08 857.62,-482.71 862.96,-477.21 888.39,-451.06 912.36,-416.74 927.96,-392.62"/>
<polygon fill="#3c2b82" stroke="black" points="931.08,-394.22 933.51,-383.91 925.18,-390.46 931.08,-394.22"/>
</g>
<!-- opencf_converters_markup -->
<g id="node5" class="node">
<title>opencf_converters_markup</title><style>.edge>path:hover{stroke-width:8}</style>
<ellipse fill="#4e38a8" stroke="black" cx="812.75" cy="-363.21" rx="50.41" ry="28.98"/>
<text text-anchor="middle" x="812.75" y="-371.71" font-family="Helvetica,sans-Serif" font-size="10.00" fill="#ffffff">opencf.</text>
<text text-anchor="middle" x="812.75" y="-360.71" font-family="Helvetica,sans-Serif" font-size="10.00" fill="#ffffff">converters.</text>
<text text-anchor="middle" x="812.75" y="-349.71" font-family="Helvetica,sans-Serif" font-size="10.00" fill="#ffffff">markup</text>
</g>
<!-- opencf_converters_markup&#45;&gt;opencf_converters -->
<g id="edge19" class="edge">
<title>opencf_converters_markup&#45;&gt;opencf_converters</title><style>.edge>path:hover{stroke-width:8}</style>
<path fill="none" stroke="black" d="M863.01,-363.21C871.46,-363.21 880.3,-363.21 888.94,-363.21"/>
<polygon fill="#4e38a8" stroke="black" points="888.94,-366.71 898.94,-363.21 888.94,-359.71 888.94,-366.71"/>
</g>
<!-- opencf_converters_structured -->
<g id="node6" class="node">
<title>opencf_converters_structured</title><style>.edge>path:hover{stroke-width:8}</style>
<ellipse fill="#473399" stroke="black" cx="812.75" cy="-287.21" rx="50.41" ry="28.98"/>
<text text-anchor="middle" x="812.75" y="-295.71" font-family="Helvetica,sans-Serif" font-size="10.00" fill="#ffffff">opencf.</text>
<text text-anchor="middle" x="812.75" y="-284.71" font-family="Helvetica,sans-Serif" font-size="10.00" fill="#ffffff">converters.</text>
<text text-anchor="middle" x="812.75" y="-273.71" font-family="Helvetica,sans-Serif" font-size="10.00" fill="#ffffff">structured</text>
</g>
<!-- opencf_converters_structured&#45;&gt;opencf_converters -->
<g id="edge20" class="edge">
<title>opencf_converters_structured&#45;&gt;opencf_converters</title><style>.edge>path:hover{stroke-width:8}</style>
<path fill="none" stroke="black" d="M848.86,-307.38C867.14,-317.89 889.53,-330.74 908.2,-341.47"/>
<polygon fill="#473399" stroke="black" points="906.62,-344.6 917.03,-346.55 910.11,-338.53 906.62,-344.6"/>
</g>
<!-- opencf_converters_video -->
<g id="node7" class="node">
<title>opencf_converters_video</title><style>.edge>path:hover{stroke-width:8}</style>
<ellipse fill="#3c2b82" stroke="black" cx="812.75" cy="-439.21" rx="50.41" ry="28.98"/>
<text text-anchor="middle" x="812.75" y="-447.71" font-family="Helvetica,sans-Serif" font-size="10.00" fill="#ffffff">opencf.</text>
<text text-anchor="middle" x="812.75" y="-436.71" font-family="Helvetica,sans-Serif" font-size="10.00" fill="#ffffff">converters.</text>
<text text-anchor="middle" x="812.75" y="-425.71" font-family="Helvetica,sans-Serif" font-size="10.00" fill="#ffffff">video</text>
</g>
<!-- opencf_converters_video&#45;&gt;opencf_converters -->
<g id="edge21" class="edge">
<title>opencf_converters_video&#45;&gt;opencf_converters</title><style>.edge>path:hover{stroke-width:8}</style>
<path fill="none" stroke="black" d="M848.86,-419.05C867.14,-408.54 889.53,-395.68 908.2,-384.95"/>
<polygon fill="#3c2b82" stroke="black" points="910.11,-387.9 917.03,-379.88 906.62,-381.83 910.11,-387.9"/>
</g>
<!-- opencf_import_script -->
<g id="node8" class="node">
<title>opencf_import_script</title><style>.edge>path:hover{stroke-width:8}</style>
<ellipse fill="#5940c0" stroke="black" cx="216.28" cy="-21.21" rx="57.05" ry="21.43"/>
<text text-anchor="middle" x="216.28" y="-24.21" font-family="Helvetica,sans-Serif" font-size="10.00" fill="#ffffff">opencf.</text>
<text text-anchor="middle" x="216.28" y="-13.21" font-family="Helvetica,sans-Serif" font-size="10.00" fill="#ffffff">import_script</text>
</g>
<!-- opencf_import_script&#45;&gt;opencf -->
<g id="edge22" class="edge">
<title>opencf_import_script&#45;&gt;opencf</title><style>.edge>path:hover{stroke-width:8}</style>
<path fill="none" stroke="black" d="M273.74,-21.21C282.46,-21.21 291.28,-21.21 299.48,-21.21"/>
<polygon fill="#5940c0" stroke="black" points="299.48,-24.71 309.48,-21.21 299.48,-17.71 299.48,-24.71"/>
</g>
<!-- opencf_io_handlers -->
<g id="node9" class="node">
<title>opencf_io_handlers</title><style>.edge>path:hover{stroke-width:8}</style>
<ellipse fill="#3e20b6" stroke="black" cx="637.93" cy="-477.21" rx="51.74" ry="21.43"/>
<text text-anchor="middle" x="637.93" y="-480.21" font-family="Helvetica,sans-Serif" font-size="10.00" fill="#ffffff">opencf.</text>
<text text-anchor="middle" x="637.93" y="-469.21" font-family="Helvetica,sans-Serif" font-size="10.00" fill="#ffffff">io_handlers</text>
</g>
<!-- opencf_io_handlers&#45;&gt;opencf_converters_document -->
<g id="edge23" class="edge">
<title>opencf_io_handlers&#45;&gt;opencf_converters_document</title><style>.edge>path:hover{stroke-width:8}</style>
<path fill="none" stroke="black" d="M726.55,-477.21C742.87,-471.89 760.28,-477.49 775.09,-485.88"/>
<polygon fill="#3e20b6" stroke="black" points="773.6,-489.07 783.93,-491.39 777.3,-483.13 773.6,-489.07"/>
</g>
<!-- opencf_io_handlers&#45;&gt;opencf_converters_structured -->
<g id="edge24" class="edge">
<title>opencf_io_handlers&#45;&gt;opencf_converters_structured</title><style>.edge>path:hover{stroke-width:8}</style>
<path fill="none" stroke="black" d="M688.33,-482.52C700.73,-482.41 713.83,-481.04 725.55,-477.21"/>
<path fill="none" stroke="black" d="M726.55,-477.21C792.55,-455.68 724.92,-383.55 762.55,-325.21 764.85,-321.64 767.61,-318.27 770.63,-315.12"/>
<polygon fill="#3e20b6" stroke="black" points="773.14,-317.57 778.06,-308.19 768.36,-312.45 773.14,-317.57"/>
</g>
<!-- opencf_io_handlers&#45;&gt;opencf_converters_video -->
<g id="edge25" class="edge">
<title>opencf_io_handlers&#45;&gt;opencf_converters_video</title><style>.edge>path:hover{stroke-width:8}</style>
<path fill="none" stroke="black" d="M726.55,-477.21C739.31,-473.05 752.74,-467.6 765.07,-462.13"/>
<polygon fill="#3e20b6" stroke="black" points="766.58,-465.28 774.25,-457.97 763.69,-458.91 766.58,-465.28"/>
</g>
<!-- opencf_io_handlers_img_opencv -->
<g id="node10" class="node">
<title>opencf_io_handlers_img_opencv</title><style>.edge>path:hover{stroke-width:8}</style>
<ellipse fill="#4e38a8" stroke="black" cx="495.86" cy="-477.21" rx="53.98" ry="28.98"/>
<text text-anchor="middle" x="495.86" y="-485.71" font-family="Helvetica,sans-Serif" font-size="10.00" fill="#ffffff">opencf.</text>
<text text-anchor="middle" x="495.86" y="-474.71" font-family="Helvetica,sans-Serif" font-size="10.00" fill="#ffffff">io_handlers.</text>
<text text-anchor="middle" x="495.86" y="-463.71" font-family="Helvetica,sans-Serif" font-size="10.00" fill="#ffffff">img_opencv</text>
</g>
<!-- opencf_io_handlers_img_opencv&#45;&gt;opencf_io_handlers -->
<g id="edge26" class="edge">
<title>opencf_io_handlers_img_opencv&#45;&gt;opencf_io_handlers</title><style>.edge>path:hover{stroke-width:8}</style>
<path fill="none" stroke="black" d="M549.82,-477.21C558.39,-477.21 567.33,-477.21 576.08,-477.21"/>
<polygon fill="#4e38a8" stroke="black" points="576.22,-480.71 586.22,-477.21 576.22,-473.71 576.22,-480.71"/>
</g>
<!-- opencf_io_handlers_img_pillow -->
<g id="node11" class="node">
<title>opencf_io_handlers_img_pillow</title><style>.edge>path:hover{stroke-width:8}</style>
<ellipse fill="#4e38a8" stroke="black" cx="495.86" cy="-667.21" rx="53.98" ry="28.98"/>
<text text-anchor="middle" x="495.86" y="-675.71" font-family="Helvetica,sans-Serif" font-size="10.00" fill="#ffffff">opencf.</text>
<text text-anchor="middle" x="495.86" y="-664.71" font-family="Helvetica,sans-Serif" font-size="10.00" fill="#ffffff">io_handlers.</text>
<text text-anchor="middle" x="495.86" y="-653.71" font-family="Helvetica,sans-Serif" font-size="10.00" fill="#ffffff">img_pillow</text>
</g>
<!-- opencf_io_handlers_img_pillow&#45;&gt;opencf_io_handlers -->
<g id="edge27" class="edge">
<title>opencf_io_handlers_img_pillow&#45;&gt;opencf_io_handlers</title><style>.edge>path:hover{stroke-width:8}</style>
<path fill="none" stroke="black" d="M516.64,-640.39C542.89,-604.79 589.05,-542.17 615.91,-505.73"/>
<polygon fill="#4e38a8" stroke="black" points="618.86,-507.62 621.98,-497.5 613.23,-503.47 618.86,-507.62"/>
</g>
<!-- opencf_io_handlers_pdf -->
<g id="node12" class="node">
<title>opencf_io_handlers_pdf</title><style>.edge>path:hover{stroke-width:8}</style>
<ellipse fill="#523ab0" stroke="black" cx="495.86" cy="-553.21" rx="53.98" ry="28.98"/>
<text text-anchor="middle" x="495.86" y="-561.71" font-family="Helvetica,sans-Serif" font-size="10.00" fill="#ffffff">opencf.</text>
<text text-anchor="middle" x="495.86" y="-550.71" font-family="Helvetica,sans-Serif" font-size="10.00" fill="#ffffff">io_handlers.</text>
<text text-anchor="middle" x="495.86" y="-539.71" font-family="Helvetica,sans-Serif" font-size="10.00" fill="#ffffff">pdf</text>
</g>
<!-- opencf_io_handlers_pdf&#45;&gt;opencf_io_handlers -->
<g id="edge28" class="edge">
<title>opencf_io_handlers_pdf&#45;&gt;opencf_io_handlers</title><style>.edge>path:hover{stroke-width:8}</style>
<path fill="none" stroke="black" d="M534.4,-532.85C553.71,-522.37 577.25,-509.6 596.9,-498.93"/>
<polygon fill="#523ab0" stroke="black" points="598.8,-501.89 605.92,-494.04 595.46,-495.73 598.8,-501.89"/>
</g>
<!-- opencf_io_handlers_spreadsheet -->
<g id="node13" class="node">
<title>opencf_io_handlers_spreadsheet</title><style>.edge>path:hover{stroke-width:8}</style>
<ellipse fill="#523ab0" stroke="black" cx="495.86" cy="-401.21" rx="54.39" ry="28.98"/>
<text text-anchor="middle" x="495.86" y="-409.71" font-family="Helvetica,sans-Serif" font-size="10.00" fill="#ffffff">opencf.</text>
<text text-anchor="middle" x="495.86" y="-398.71" font-family="Helvetica,sans-Serif" font-size="10.00" fill="#ffffff">io_handlers.</text>
<text text-anchor="middle" x="495.86" y="-387.71" font-family="Helvetica,sans-Serif" font-size="10.00" fill="#ffffff">spreadsheet</text>
</g>
<!-- opencf_io_handlers_spreadsheet&#45;&gt;opencf_io_handlers -->
<g id="edge29" class="edge">
<title>opencf_io_handlers_spreadsheet&#45;&gt;opencf_io_handlers</title><style>.edge>path:hover{stroke-width:8}</style>
<path fill="none" stroke="black" d="M534.77,-421.78C554.07,-432.25 577.53,-444.98 597.1,-455.6"/>
<polygon fill="#523ab0" stroke="black" points="595.62,-458.78 606.08,-460.47 598.96,-452.63 595.62,-458.78"/>
</g>
<!-- opencf_io_handlers_video -->
<g id="node14" class="node">
<title>opencf_io_handlers_video</title><style>.edge>path:hover{stroke-width:8}</style>
<ellipse fill="#473399" stroke="black" cx="495.86" cy="-249.21" rx="53.98" ry="28.98"/>
<text text-anchor="middle" x="495.86" y="-257.71" font-family="Helvetica,sans-Serif" font-size="10.00" fill="#ffffff">opencf.</text>
<text text-anchor="middle" x="495.86" y="-246.71" font-family="Helvetica,sans-Serif" font-size="10.00" fill="#ffffff">io_handlers.</text>
<text text-anchor="middle" x="495.86" y="-235.71" font-family="Helvetica,sans-Serif" font-size="10.00" fill="#ffffff">video</text>
</g>
<!-- opencf_io_handlers_video&#45;&gt;opencf_io_handlers -->
<g id="edge30" class="edge">
<title>opencf_io_handlers_video&#45;&gt;opencf_io_handlers</title><style>.edge>path:hover{stroke-width:8}</style>
<path fill="none" stroke="black" d="M515.27,-276.36C525.74,-291.98 538.98,-312.06 550.31,-330.21 575.36,-370.35 602.87,-417.62 620.02,-447.5"/>
<polygon fill="#473399" stroke="black" points="617.2,-449.63 625.21,-456.56 623.27,-446.15 617.2,-449.63"/>
</g>
<!-- PIL -->
<g id="node15" class="node">
<title>PIL</title><style>.edge>path:hover{stroke-width:8}</style>
<polygon fill="#e61919" stroke="black" points="243.28,-595.21 240.28,-599.21 219.28,-599.21 216.28,-595.21 189.28,-595.21 189.28,-559.21 243.28,-559.21 243.28,-595.21"/>
<text text-anchor="middle" x="216.28" y="-574.71" font-family="Helvetica,sans-Serif" font-size="10.00" fill="#ffffff">PIL</text>
</g>
<!-- PIL&#45;&gt;opencf_converters_document -->
<g id="edge1" class="edge">
<title>PIL&#45;&gt;opencf_converters_document</title><style>.edge>path:hover{stroke-width:8}</style>
<path fill="none" stroke="black" d="M224.9,-595.43C238.91,-627.8 270.9,-696.66 309.55,-747.21 406.2,-873.64 482.26,-929.66 636.93,-892.21"/>
</g>
<!-- PIL&#45;&gt;opencf_converters_video -->
<g id="edge2" class="edge">
<title>PIL&#45;&gt;opencf_converters_video</title><style>.edge>path:hover{stroke-width:8}</style>
<path fill="none" stroke="black" d="M339.98,-733.21C419.32,-765.64 668.43,-788.11 725.55,-724.21"/>
<path fill="none" stroke="black" d="M726.55,-724.21C794.59,-636.59 706.57,-572.99 762.55,-477.21 764.58,-473.75 767.05,-470.49 769.8,-467.45"/>
<polygon fill="#e61919" stroke="black" points="772.38,-469.82 777.11,-460.34 767.5,-464.8 772.38,-469.82"/>
</g>
<!-- PIL&#45;&gt;opencf_io_handlers_img_pillow -->
<g id="edge3" class="edge">
<title>PIL&#45;&gt;opencf_io_handlers_img_pillow</title><style>.edge>path:hover{stroke-width:8}</style>
<path fill="none" stroke="black" d="M243.54,-587.34C254.08,-592.52 265.59,-599.75 273.55,-609.21 313.55,-656.73 277,-721.44 337.98,-733.21"/>
<path fill="none" stroke="black" d="M339.98,-733.21C361.74,-737.41 412.07,-713.48 449.49,-693.27"/>
<polygon fill="#e61919" stroke="black" points="451.6,-696.1 458.7,-688.23 448.24,-689.96 451.6,-696.1"/>
</g>
<!-- PyPDF2 -->
<g id="node16" class="node">
<title>PyPDF2</title><style>.edge>path:hover{stroke-width:8}</style>
<polygon fill="#c29147" stroke="black" points="243.28,-541.21 240.28,-545.21 219.28,-545.21 216.28,-541.21 189.28,-541.21 189.28,-505.21 243.28,-505.21 243.28,-541.21"/>
<text text-anchor="middle" x="216.28" y="-520.71" font-family="Helvetica,sans-Serif" font-size="10.00" fill="#000000">PyPDF2</text>
</g>
<!-- PyPDF2&#45;&gt;opencf_converters_document -->
<g id="edge4" class="edge">
<title>PyPDF2&#45;&gt;opencf_converters_document</title><style>.edge>path:hover{stroke-width:8}</style>
<path fill="none" stroke="black" d="M243.53,-531.28C253.94,-535.55 265.36,-541.7 273.55,-550.21 301.44,-579.18 282.43,-603.52 309.55,-633.21 381.13,-711.58 702.95,-844.39 725.55,-827.21"/>
<path fill="none" stroke="black" d="M726.55,-827.21C765.74,-789.25 794.54,-629.09 806.13,-554.17"/>
<polygon fill="#c29147" stroke="black" points="809.61,-554.59 807.65,-544.18 802.68,-553.54 809.61,-554.59"/>
</g>
<!-- PyPDF2&#45;&gt;opencf_io_handlers_pdf -->
<g id="edge5" class="edge">
<title>PyPDF2&#45;&gt;opencf_io_handlers_pdf</title><style>.edge>path:hover{stroke-width:8}</style>
<path fill="none" stroke="black" d="M243.41,-514.56C281.14,-503.68 352.09,-489.33 404.42,-515.21"/>
</g>
<!-- aspose -->
<g id="node17" class="node">
<title>aspose</title><style>.edge>path:hover{stroke-width:8}</style>
<polygon fill="#a2b653" stroke="black" points="522.86,-864.21 519.86,-868.21 498.86,-868.21 495.86,-864.21 468.86,-864.21 468.86,-828.21 522.86,-828.21 522.86,-864.21"/>
<text text-anchor="middle" x="495.86" y="-843.71" font-family="Helvetica,sans-Serif" font-size="10.00" fill="#000000">aspose</text>
</g>
<!-- aspose&#45;&gt;opencf_converters_document -->
<g id="edge6" class="edge">
<title>aspose&#45;&gt;opencf_converters_document</title><style>.edge>path:hover{stroke-width:8}</style>
<path fill="none" stroke="black" d="M522.94,-858.43C557.05,-873.78 615.04,-897.51 636.93,-892.21"/>
<path fill="none" stroke="black" d="M638.93,-892.21C685.71,-880.89 687.23,-856.34 725.55,-827.21"/>
</g>
<!-- cv2 -->
<g id="node18" class="node">
<title>cv2</title><style>.edge>path:hover{stroke-width:8}</style>
<polygon fill="#4ad926" stroke="black" points="243.28,-395.21 240.28,-399.21 219.28,-399.21 216.28,-395.21 189.28,-395.21 189.28,-359.21 243.28,-359.21 243.28,-395.21"/>
<text text-anchor="middle" x="216.28" y="-374.71" font-family="Helvetica,sans-Serif" font-size="10.00" fill="#000000">cv2</text>
</g>
<!-- cv2&#45;&gt;opencf_converters_video -->
<g id="edge7" class="edge">
<title>cv2&#45;&gt;opencf_converters_video</title><style>.edge>path:hover{stroke-width:8}</style>
<path fill="none" stroke="black" d="M228.28,-359.15C243.76,-335.06 274.07,-292.42 309.55,-266.21 397.84,-201 447.34,-173.21 550.31,-211.21 669.08,-255.05 666.92,-318.25 762.55,-401.21 765.94,-404.16 769.53,-407.15 773.17,-410.09"/>
<polygon fill="#4ad926" stroke="black" points="771.13,-412.94 781.13,-416.43 775.49,-407.47 771.13,-412.94"/>
</g>
<!-- cv2&#45;&gt;opencf_io_handlers_img_opencv -->
<g id="edge8" class="edge">
<title>cv2&#45;&gt;opencf_io_handlers_img_opencv</title><style>.edge>path:hover{stroke-width:8}</style>
<path fill="none" stroke="black" d="M243.38,-384.96C273.65,-394.06 324.93,-409.87 368.42,-425.21 384.61,-430.93 387.59,-435.84 404.42,-439.21"/>
<path fill="none" stroke="black" d="M405.42,-439.21C419.89,-441.55 434.85,-446.68 448.29,-452.44"/>
<polygon fill="#4ad926" stroke="black" points="447.23,-455.8 457.78,-456.71 450.1,-449.41 447.23,-455.8"/>
</g>
<!-- cv2&#45;&gt;opencf_io_handlers_video -->
<g id="edge9" class="edge">
<title>cv2&#45;&gt;opencf_io_handlers_video</title><style>.edge>path:hover{stroke-width:8}</style>
<path fill="none" stroke="black" d="M231.92,-358.99C248.63,-339.46 277.78,-309.01 309.55,-292.21 347.72,-272.04 395.22,-261.26 432.58,-255.54"/>
<polygon fill="#4ad926" stroke="black" points="433.43,-258.95 442.83,-254.05 432.43,-252.02 433.43,-258.95"/>
</g>
<!-- generalimport -->
<g id="node19" class="node">
<title>generalimport</title><style>.edge>path:hover{stroke-width:8}</style>
<polygon fill="#40c073" stroke="black" points="86,-39.21 83,-43.21 62,-43.21 59,-39.21 0,-39.21 0,-3.21 86,-3.21 86,-39.21"/>
<text text-anchor="middle" x="43" y="-18.71" font-family="Helvetica,sans-Serif" font-size="10.00" fill="#000000">generalimport</text>
</g>
<!-- generalimport&#45;&gt;opencf_import_script -->
<g id="edge10" class="edge">
<title>generalimport&#45;&gt;opencf_import_script</title><style>.edge>path:hover{stroke-width:8}</style>
<path fill="none" stroke="black" d="M86.34,-21.21C105.15,-21.21 127.75,-21.21 148.74,-21.21"/>
<polygon fill="#40c073" stroke="black" points="148.88,-24.71 158.88,-21.21 148.88,-17.71 148.88,-24.71"/>
</g>
<!-- imageio -->
<g id="node20" class="node">
<title>imageio</title><style>.edge>path:hover{stroke-width:8}</style>
<polygon fill="#40bfc0" stroke="black" points="244.28,-96.21 241.28,-100.21 220.28,-100.21 217.28,-96.21 188.28,-96.21 188.28,-60.21 244.28,-60.21 244.28,-96.21"/>
<text text-anchor="middle" x="216.28" y="-75.71" font-family="Helvetica,sans-Serif" font-size="10.00" fill="#000000">imageio</text>
</g>
<!-- imageio&#45;&gt;opencf_io_handlers_video -->
<g id="edge11" class="edge">
<title>imageio&#45;&gt;opencf_io_handlers_video</title><style>.edge>path:hover{stroke-width:8}</style>
<path fill="none" stroke="black" d="M244.32,-82.22C282.89,-88.96 354.64,-105.4 405.42,-140.21 433.29,-159.32 457.11,-189.52 473.15,-213.29"/>
<polygon fill="#40bfc0" stroke="black" points="470.28,-215.29 478.7,-221.72 476.12,-211.44 470.28,-215.29"/>
</g>
<!-- numpy -->
<g id="node21" class="node">
<title>numpy</title><style>.edge>path:hover{stroke-width:8}</style>
<polygon fill="#0667f9" stroke="black" points="70,-495.21 67,-499.21 46,-499.21 43,-495.21 16,-495.21 16,-459.21 70,-459.21 70,-495.21"/>
<text text-anchor="middle" x="43" y="-474.71" font-family="Helvetica,sans-Serif" font-size="10.00" fill="#ffffff">numpy</text>
</g>
<!-- numpy&#45;&gt;opencf_converters_video -->
<g id="edge14" class="edge">
<title>numpy&#45;&gt;opencf_converters_video</title><style>.edge>path:hover{stroke-width:8}</style>
<path fill="none" stroke="black" d="M123,-477.21C180.82,-467.28 128.65,-554 159,-604.21 206.74,-683.19 227.73,-704.53 309.55,-747.21 459.54,-825.46 538.42,-845.22 689.55,-769.21 712.43,-757.71 709.84,-744.44 725.55,-724.21"/>
</g>
<!-- numpy&#45;&gt;opencf_io_handlers_img_opencv -->
<g id="edge15" class="edge">
<title>numpy&#45;&gt;opencf_io_handlers_img_opencv</title><style>.edge>path:hover{stroke-width:8}</style>
<path fill="none" stroke="black" d="M123,-477.21C230.94,-458.25 261.81,-478.64 368.42,-453.21 385.12,-449.23 387.47,-436.48 404.42,-439.21"/>
</g>
<!-- numpy&#45;&gt;opencf_io_handlers_video -->
<g id="edge16" class="edge">
<title>numpy&#45;&gt;opencf_io_handlers_video</title><style>.edge>path:hover{stroke-width:8}</style>
<path fill="none" stroke="black" d="M70.21,-479.55C85.45,-480.32 104.95,-480.32 122,-477.21"/>
<path fill="none" stroke="black" d="M123,-477.21C186.67,-465.6 110.49,-231.05 159,-188.21 241.85,-115.04 382.27,-180.88 452.39,-222"/>
<polygon fill="#0667f9" stroke="black" points="450.6,-225.02 460.99,-227.13 454.19,-219 450.6,-225.02"/>
</g>
<!-- numpy&#45;&gt;PIL -->
<g id="edge12" class="edge">
<title>numpy&#45;&gt;PIL</title><style>.edge>path:hover{stroke-width:8}</style>
<path fill="none" stroke="black" d="M123,-477.21C158.63,-470.95 133.28,-524.77 159,-550.21 164.9,-556.05 172.32,-560.82 179.81,-564.63"/>
<polygon fill="#0667f9" stroke="black" points="178.68,-567.96 189.23,-568.95 181.6,-561.6 178.68,-567.96"/>
</g>
<!-- numpy&#45;&gt;cv2 -->
<g id="edge13" class="edge">
<title>numpy&#45;&gt;cv2</title><style>.edge>path:hover{stroke-width:8}</style>
<path fill="none" stroke="black" d="M123,-477.21C158.63,-470.95 133.28,-429.65 159,-404.21 164.9,-398.37 172.32,-393.61 179.81,-389.8"/>
<polygon fill="#0667f9" stroke="black" points="181.6,-392.83 189.23,-385.48 178.68,-386.47 181.6,-392.83"/>
</g>
<!-- opencf_core -->
<g id="node22" class="node">
<title>opencf_core</title><style>.edge>path:hover{stroke-width:8}</style>
<polygon fill="#cb10f9" stroke="black" points="254.28,-449.21 251.28,-453.21 230.28,-453.21 227.28,-449.21 178.28,-449.21 178.28,-413.21 254.28,-413.21 254.28,-449.21"/>
<text text-anchor="middle" x="216.28" y="-428.71" font-family="Helvetica,sans-Serif" font-size="10.00" fill="#ffffff">opencf_core</text>
</g>
<!-- opencf_core&#45;&gt;opencf_app -->
<g id="edge31" class="edge">
<title>opencf_core&#45;&gt;opencf_app</title><style>.edge>path:hover{stroke-width:8}</style>
<path fill="none" stroke="black" d="M405.42,-306.21C464.6,-279.46 486.96,-301.54 550.31,-287.21 630.19,-269.15 643.65,-230.21 725.55,-230.21 725.55,-230.21 725.55,-230.21 813.75,-230.21 893.6,-230.21 983.14,-260.34 1032.82,-279.89"/>
<polygon fill="#cb10f9" stroke="black" points="1031.62,-283.18 1042.21,-283.64 1034.22,-276.68 1031.62,-283.18"/>
</g>
<!-- opencf_core&#45;&gt;opencf_converters_document -->
<g id="edge32" class="edge">
<title>opencf_core&#45;&gt;opencf_converters_document</title><style>.edge>path:hover{stroke-width:8}</style>
<path fill="none" stroke="black" d="M232.91,-449.3C273.51,-495.92 380.78,-616.71 404.42,-619.21"/>
<path fill="none" stroke="black" d="M405.42,-619.21C468.73,-650.4 669.14,-574.73 762.72,-536.14"/>
<polygon fill="#cb10f9" stroke="black" points="764.08,-539.37 771.97,-532.31 761.4,-532.9 764.08,-539.37"/>
</g>
<!-- opencf_core&#45;&gt;opencf_converters_markup -->
<g id="edge33" class="edge">
<title>opencf_core&#45;&gt;opencf_converters_markup</title><style>.edge>path:hover{stroke-width:8}</style>
<path fill="none" stroke="black" d="M496.86,-344.21C597.78,-300.28 617.79,-416.81 725.55,-439.21"/>
<path fill="none" stroke="black" d="M726.55,-439.21C749.78,-440.41 745.29,-416.81 762.55,-401.21 765.88,-398.2 769.43,-395.16 773.04,-392.19"/>
<polygon fill="#cb10f9" stroke="black" points="775.37,-394.8 780.97,-385.81 770.99,-389.35 775.37,-394.8"/>
</g>
<!-- opencf_core&#45;&gt;opencf_converters_structured -->
<g id="edge34" class="edge">
<title>opencf_core&#45;&gt;opencf_converters_structured</title><style>.edge>path:hover{stroke-width:8}</style>
<path fill="none" stroke="black" d="M254.37,-432.49C278.31,-433.61 310.07,-435.64 337.98,-439.21"/>
<path fill="none" stroke="black" d="M339.98,-439.21C372.96,-443.44 373.97,-414.56 404.42,-401.21"/>
<path fill="none" stroke="black" d="M405.42,-401.21C426.72,-391.87 421.92,-375.9 441.42,-363.21 462.55,-349.46 471.05,-352.48 494.86,-344.21"/>
<path fill="none" stroke="black" d="M496.86,-344.21C583.17,-314.24 688.54,-299.25 752.86,-292.37"/>
<polygon fill="#cb10f9" stroke="black" points="753.24,-295.85 762.82,-291.33 752.51,-288.89 753.24,-295.85"/>
</g>
<!-- opencf_core&#45;&gt;opencf_converters_video -->
<g id="edge35" class="edge">
<title>opencf_core&#45;&gt;opencf_converters_video</title><style>.edge>path:hover{stroke-width:8}</style>
<path fill="none" stroke="black" d="M726.55,-439.21C734.88,-440.94 743.76,-441.9 752.53,-442.34"/>
<polygon fill="#cb10f9" stroke="black" points="752.64,-445.84 762.74,-442.63 752.84,-438.84 752.64,-445.84"/>
</g>
<!-- opencf_core&#45;&gt;opencf_io_handlers_img_opencv -->
<g id="edge36" class="edge">
<title>opencf_core&#45;&gt;opencf_io_handlers_img_opencv</title><style>.edge>path:hover{stroke-width:8}</style>
<path fill="none" stroke="black" d="M339.98,-439.21C368.39,-442.85 376.34,-433.58 404.42,-439.21"/>
</g>
<!-- opencf_core&#45;&gt;opencf_io_handlers_img_pillow -->
<g id="edge37" class="edge">
<title>opencf_core&#45;&gt;opencf_io_handlers_img_pillow</title><style>.edge>path:hover{stroke-width:8}</style>
<path fill="none" stroke="black" d="M405.42,-619.21C423.29,-621.11 441.12,-629.11 456.1,-638.05"/>
<polygon fill="#cb10f9" stroke="black" points="454.25,-641.02 464.57,-643.39 457.98,-635.1 454.25,-641.02"/>
</g>
<!-- opencf_core&#45;&gt;opencf_io_handlers_pdf -->
<g id="edge38" class="edge">
<title>opencf_core&#45;&gt;opencf_io_handlers_pdf</title><style>.edge>path:hover{stroke-width:8}</style>
<path fill="none" stroke="black" d="M339.98,-439.21C383.91,-444.84 365.44,-494.19 404.42,-515.21"/>
<path fill="none" stroke="black" d="M405.42,-515.21C417.01,-521.47 429.86,-527.44 442.11,-532.73"/>
<polygon fill="#cb10f9" stroke="black" points="440.76,-535.96 451.34,-536.63 443.49,-529.51 440.76,-535.96"/>
</g>
<!-- opencf_core&#45;&gt;opencf_io_handlers_spreadsheet -->
<g id="edge39" class="edge">
<title>opencf_core&#45;&gt;opencf_io_handlers_spreadsheet</title><style>.edge>path:hover{stroke-width:8}</style>
<path fill="none" stroke="black" d="M405.42,-401.21C413.88,-397.5 423.24,-395.52 432.62,-394.66"/>
<polygon fill="#cb10f9" stroke="black" points="432.96,-398.14 442.76,-394.13 432.6,-391.15 432.96,-398.14"/>
</g>
<!-- opencf_core&#45;&gt;opencf_io_handlers_video -->
<g id="edge40" class="edge">
<title>opencf_core&#45;&gt;opencf_io_handlers_video</title><style>.edge>path:hover{stroke-width:8}</style>
<path fill="none" stroke="black" d="M254.45,-414.65C260.94,-411.4 267.53,-407.87 273.55,-404.21 335.69,-366.54 332.59,-317.2 404.42,-306.21"/>
<path fill="none" stroke="black" d="M405.42,-306.21C422.39,-298.54 439.91,-288.03 454.9,-278.13"/>
<polygon fill="#cb10f9" stroke="black" points="457.08,-280.88 463.41,-272.39 453.17,-275.08 457.08,-280.88"/>
</g>
<!-- pandas -->
<g id="node23" class="node">
<title>pandas</title><style>.edge>path:hover{stroke-width:8}</style>
<polygon fill="#cc338f" stroke="black" points="243.28,-233.21 240.28,-237.21 219.28,-237.21 216.28,-233.21 189.28,-233.21 189.28,-197.21 243.28,-197.21 243.28,-233.21"/>
<text text-anchor="middle" x="216.28" y="-212.71" font-family="Helvetica,sans-Serif" font-size="10.00" fill="#ffffff">pandas</text>
</g>
<!-- pandas&#45;&gt;opencf_converters_structured -->
<g id="edge41" class="edge">
<title>pandas&#45;&gt;opencf_converters_structured</title><style>.edge>path:hover{stroke-width:8}</style>
<path fill="none" stroke="black" d="M236.27,-197.06C268.24,-168.47 336.05,-116.21 404.42,-116.21 404.42,-116.21 404.42,-116.21 638.93,-116.21 714.43,-116.21 768.8,-199.69 794.7,-250"/>
<polygon fill="#cc338f" stroke="black" points="791.59,-251.61 799.21,-258.98 797.85,-248.47 791.59,-251.61"/>
</g>
<!-- pandas&#45;&gt;opencf_io_handlers_spreadsheet -->
<g id="edge42" class="edge">
<title>pandas&#45;&gt;opencf_io_handlers_spreadsheet</title><style>.edge>path:hover{stroke-width:8}</style>
<path fill="none" stroke="black" d="M243.35,-220.06C282.65,-228.53 357.55,-249.38 405.42,-292.21 430.32,-314.49 419.99,-332.58 441.42,-358.21 445.28,-362.84 449.71,-367.31 454.32,-371.52"/>
<polygon fill="#cc338f" stroke="black" points="452.34,-374.43 462.2,-378.32 456.92,-369.14 452.34,-374.43"/>
</g>
</g>
</svg>
