<?xml version="1.0" encoding="UTF-8" standalone="no"?>
<!DOCTYPE svg PUBLIC "-//W3C//DTD SVG 1.1//EN"
 "http://www.w3.org/Graphics/SVG/1.1/DTD/svg11.dtd">
<!-- Generated by graphviz version 2.43.0 (0)
 -->
<!-- Title: G Pages: 1 -->
<svg width="995pt" height="698pt"
 viewBox="0.00 0.00 994.60 697.76" xmlns="http://www.w3.org/2000/svg" xmlns:xlink="http://www.w3.org/1999/xlink">
<g id="graph0" class="graph" transform="scale(1 1) rotate(0) translate(4 693.76)">
<title>G</title><style>.edge>path:hover{stroke-width:8}</style>
<polygon fill="white" stroke="transparent" points="-4,4 -4,-693.76 990.6,-693.76 990.6,4 -4,4"/>
<!-- openconv_app -->
<g id="node1" class="node">
<title>openconv_app</title><style>.edge>path:hover{stroke-width:8}</style>
<ellipse fill="#7546a4" stroke="black" cx="937.16" cy="-594.76" rx="49.4" ry="18"/>
<text text-anchor="middle" x="937.16" y="-592.26" font-family="Helvetica,sans-Serif" font-size="10.00" fill="#ffffff">openconv.app</text>
</g>
<!-- openconv_converters -->
<g id="node2" class="node">
<title>openconv_converters</title><style>.edge>path:hover{stroke-width:8}</style>
<ellipse fill="#7038a8" stroke="black" cx="803.62" cy="-499.76" rx="48.17" ry="21.43"/>
<text text-anchor="middle" x="803.62" y="-502.76" font-family="Helvetica,sans-Serif" font-size="10.00" fill="#ffffff">openconv.</text>
<text text-anchor="middle" x="803.62" y="-491.76" font-family="Helvetica,sans-Serif" font-size="10.00" fill="#ffffff">converters</text>
</g>
<!-- openconv_converters&#45;&gt;openconv_app -->
<g id="edge25" class="edge">
<title>openconv_converters&#45;&gt;openconv_app</title><style>.edge>path:hover{stroke-width:8}</style>
<path fill="none" stroke="black" d="M829.67,-517.86C851.22,-533.42 882.38,-555.92 905.43,-572.57"/>
<polygon fill="#7038a8" stroke="black" points="903.67,-575.62 913.83,-578.64 907.77,-569.94 903.67,-575.62"/>
</g>
<!-- openconv_converters_document -->
<g id="node3" class="node">
<title>openconv_converters_document</title><style>.edge>path:hover{stroke-width:8}</style>
<ellipse fill="#613091" stroke="black" cx="669.34" cy="-575.76" rx="50.41" ry="28.98"/>
<text text-anchor="middle" x="669.34" y="-584.26" font-family="Helvetica,sans-Serif" font-size="10.00" fill="#ffffff">openconv.</text>
<text text-anchor="middle" x="669.34" y="-573.26" font-family="Helvetica,sans-Serif" font-size="10.00" fill="#ffffff">converters.</text>
<text text-anchor="middle" x="669.34" y="-562.26" font-family="Helvetica,sans-Serif" font-size="10.00" fill="#ffffff">document</text>
</g>
<!-- openconv_converters_document&#45;&gt;openconv_converters -->
<g id="edge26" class="edge">
<title>openconv_converters_document&#45;&gt;openconv_converters</title><style>.edge>path:hover{stroke-width:8}</style>
<path fill="none" stroke="black" d="M705.44,-555.6C723.73,-545.09 746.11,-532.23 764.78,-521.5"/>
<polygon fill="#613091" stroke="black" points="766.69,-524.45 773.62,-516.43 763.2,-518.38 766.69,-524.45"/>
</g>
<!-- openconv_converters_markup -->
<g id="node4" class="node">
<title>openconv_converters_markup</title><style>.edge>path:hover{stroke-width:8}</style>
<ellipse fill="#7038a8" stroke="black" cx="669.34" cy="-499.76" rx="50.41" ry="28.98"/>
<text text-anchor="middle" x="669.34" y="-508.26" font-family="Helvetica,sans-Serif" font-size="10.00" fill="#ffffff">openconv.</text>
<text text-anchor="middle" x="669.34" y="-497.26" font-family="Helvetica,sans-Serif" font-size="10.00" fill="#ffffff">converters.</text>
<text text-anchor="middle" x="669.34" y="-486.26" font-family="Helvetica,sans-Serif" font-size="10.00" fill="#ffffff">markup</text>
</g>
<!-- openconv_converters_markup&#45;&gt;openconv_converters -->
<g id="edge27" class="edge">
<title>openconv_converters_markup&#45;&gt;openconv_converters</title><style>.edge>path:hover{stroke-width:8}</style>
<path fill="none" stroke="black" d="M719.6,-499.76C728.04,-499.76 736.89,-499.76 745.52,-499.76"/>
<polygon fill="#7038a8" stroke="black" points="745.52,-503.26 755.52,-499.76 745.52,-496.26 745.52,-503.26"/>
</g>
<!-- openconv_converters_structured -->
<g id="node5" class="node">
<title>openconv_converters_structured</title><style>.edge>path:hover{stroke-width:8}</style>
<ellipse fill="#663399" stroke="black" cx="669.34" cy="-309.76" rx="50.41" ry="28.98"/>
<text text-anchor="middle" x="669.34" y="-318.26" font-family="Helvetica,sans-Serif" font-size="10.00" fill="#ffffff">openconv.</text>
<text text-anchor="middle" x="669.34" y="-307.26" font-family="Helvetica,sans-Serif" font-size="10.00" fill="#ffffff">converters.</text>
<text text-anchor="middle" x="669.34" y="-296.26" font-family="Helvetica,sans-Serif" font-size="10.00" fill="#ffffff">structured</text>
</g>
<!-- openconv_converters_structured&#45;&gt;openconv_converters -->
<g id="edge28" class="edge">
<title>openconv_converters_structured&#45;&gt;openconv_converters</title><style>.edge>path:hover{stroke-width:8}</style>
<path fill="none" stroke="black" d="M689.01,-336.58C713.8,-372.19 757.4,-434.81 782.77,-471.25"/>
<polygon fill="#663399" stroke="black" points="779.92,-473.27 788.5,-479.48 785.66,-469.27 779.92,-473.27"/>
</g>
<!-- openconv_converters_video -->
<g id="node6" class="node">
<title>openconv_converters_video</title><style>.edge>path:hover{stroke-width:8}</style>
<ellipse fill="#572b82" stroke="black" cx="669.34" cy="-423.76" rx="50.41" ry="28.98"/>
<text text-anchor="middle" x="669.34" y="-432.26" font-family="Helvetica,sans-Serif" font-size="10.00" fill="#ffffff">openconv.</text>
<text text-anchor="middle" x="669.34" y="-421.26" font-family="Helvetica,sans-Serif" font-size="10.00" fill="#ffffff">converters.</text>
<text text-anchor="middle" x="669.34" y="-410.26" font-family="Helvetica,sans-Serif" font-size="10.00" fill="#ffffff">video</text>
</g>
<!-- openconv_converters_video&#45;&gt;openconv_converters -->
<g id="edge29" class="edge">
<title>openconv_converters_video&#45;&gt;openconv_converters</title><style>.edge>path:hover{stroke-width:8}</style>
<path fill="none" stroke="black" d="M705.44,-443.93C723.73,-454.44 746.11,-467.29 764.78,-478.02"/>
<polygon fill="#572b82" stroke="black" points="763.2,-481.15 773.62,-483.1 766.69,-475.08 763.2,-481.15"/>
</g>
<!-- openconv_io_handlers -->
<g id="node7" class="node">
<title>openconv_io_handlers</title><style>.edge>path:hover{stroke-width:8}</style>
<ellipse fill="#6b20b6" stroke="black" cx="494.51" cy="-362.76" rx="51.74" ry="21.43"/>
<text text-anchor="middle" x="494.51" y="-365.76" font-family="Helvetica,sans-Serif" font-size="10.00" fill="#ffffff">openconv.</text>
<text text-anchor="middle" x="494.51" y="-354.76" font-family="Helvetica,sans-Serif" font-size="10.00" fill="#ffffff">io_handlers</text>
</g>
<!-- openconv_io_handlers&#45;&gt;openconv_converters_document -->
<g id="edge30" class="edge">
<title>openconv_io_handlers&#45;&gt;openconv_converters_document</title><style>.edge>path:hover{stroke-width:8}</style>
<path fill="none" stroke="black" d="M507.29,-383.38C527.46,-417.69 571.13,-487.67 619.13,-537.76 622.2,-540.96 625.54,-544.11 629,-547.15"/>
<polygon fill="#6b20b6" stroke="black" points="626.78,-549.85 636.69,-553.58 631.27,-544.48 626.78,-549.85"/>
</g>
<!-- openconv_io_handlers&#45;&gt;openconv_converters_structured -->
<g id="edge31" class="edge">
<title>openconv_io_handlers&#45;&gt;openconv_converters_structured</title><style>.edge>path:hover{stroke-width:8}</style>
<path fill="none" stroke="black" d="M519.73,-344.14C528.1,-337.69 537.54,-330.42 546.13,-323.76 562.16,-311.36 562.96,-302.34 582.13,-295.76 592.78,-292.11 604.51,-291.75 615.79,-293.09"/>
<polygon fill="#6b20b6" stroke="black" points="615.55,-296.6 625.98,-294.75 616.67,-289.69 615.55,-296.6"/>
</g>
<!-- openconv_io_handlers&#45;&gt;openconv_converters_video -->
<g id="edge32" class="edge">
<title>openconv_io_handlers&#45;&gt;openconv_converters_video</title><style>.edge>path:hover{stroke-width:8}</style>
<path fill="none" stroke="black" d="M520.7,-344.34C543.98,-327.81 575.88,-306.6 582.13,-309.76"/>
</g>
<!-- openconv_io_handlers_img_opencv -->
<g id="node8" class="node">
<title>openconv_io_handlers_img_opencv</title><style>.edge>path:hover{stroke-width:8}</style>
<ellipse fill="#7038a8" stroke="black" cx="352.45" cy="-252.76" rx="53.98" ry="28.98"/>
<text text-anchor="middle" x="352.45" y="-261.26" font-family="Helvetica,sans-Serif" font-size="10.00" fill="#ffffff">openconv.</text>
<text text-anchor="middle" x="352.45" y="-250.26" font-family="Helvetica,sans-Serif" font-size="10.00" fill="#ffffff">io_handlers.</text>
<text text-anchor="middle" x="352.45" y="-239.26" font-family="Helvetica,sans-Serif" font-size="10.00" fill="#ffffff">img_opencv</text>
</g>
<!-- openconv_io_handlers_img_opencv&#45;&gt;openconv_io_handlers -->
<g id="edge33" class="edge">
<title>openconv_io_handlers_img_opencv&#45;&gt;openconv_io_handlers</title><style>.edge>path:hover{stroke-width:8}</style>
<path fill="none" stroke="black" d="M383.59,-276.86C400.89,-290.66 423.06,-308.25 442.89,-323.76 448.78,-328.37 455.08,-333.25 461.16,-337.94"/>
<polygon fill="#7038a8" stroke="black" points="459.2,-340.85 469.26,-344.19 463.47,-335.31 459.2,-340.85"/>
</g>
<!-- openconv_io_handlers_img_pillow -->
<g id="node9" class="node">
<title>openconv_io_handlers_img_pillow</title><style>.edge>path:hover{stroke-width:8}</style>
<ellipse fill="#7038a8" stroke="black" cx="352.45" cy="-442.76" rx="53.98" ry="28.98"/>
<text text-anchor="middle" x="352.45" y="-451.26" font-family="Helvetica,sans-Serif" font-size="10.00" fill="#ffffff">openconv.</text>
<text text-anchor="middle" x="352.45" y="-440.26" font-family="Helvetica,sans-Serif" font-size="10.00" fill="#ffffff">io_handlers.</text>
<text text-anchor="middle" x="352.45" y="-429.26" font-family="Helvetica,sans-Serif" font-size="10.00" fill="#ffffff">img_pillow</text>
</g>
<!-- openconv_io_handlers_img_pillow&#45;&gt;openconv_io_handlers -->
<g id="edge34" class="edge">
<title>openconv_io_handlers_img_pillow&#45;&gt;openconv_io_handlers</title><style>.edge>path:hover{stroke-width:8}</style>
<path fill="none" stroke="black" d="M389.88,-421.95C409.7,-410.63 434.23,-396.62 454.45,-385.07"/>
<polygon fill="#7038a8" stroke="black" points="456.45,-387.96 463.4,-379.96 452.98,-381.88 456.45,-387.96"/>
</g>
<!-- openconv_io_handlers_pdf -->
<g id="node10" class="node">
<title>openconv_io_handlers_pdf</title><style>.edge>path:hover{stroke-width:8}</style>
<ellipse fill="#753ab0" stroke="black" cx="352.45" cy="-518.76" rx="53.98" ry="28.98"/>
<text text-anchor="middle" x="352.45" y="-527.26" font-family="Helvetica,sans-Serif" font-size="10.00" fill="#ffffff">openconv.</text>
<text text-anchor="middle" x="352.45" y="-516.26" font-family="Helvetica,sans-Serif" font-size="10.00" fill="#ffffff">io_handlers.</text>
<text text-anchor="middle" x="352.45" y="-505.26" font-family="Helvetica,sans-Serif" font-size="10.00" fill="#ffffff">pdf</text>
</g>
<!-- openconv_io_handlers_pdf&#45;&gt;openconv_io_handlers -->
<g id="edge35" class="edge">
<title>openconv_io_handlers_pdf&#45;&gt;openconv_io_handlers</title><style>.edge>path:hover{stroke-width:8}</style>
<path fill="none" stroke="black" d="M387.82,-496.8C394.46,-491.88 401.14,-486.44 406.89,-480.76 434.31,-453.76 459.59,-417.42 475.68,-392.24"/>
<polygon fill="#753ab0" stroke="black" points="478.81,-393.83 481.18,-383.5 472.89,-390.1 478.81,-393.83"/>
</g>
<!-- openconv_io_handlers_spreadsheet -->
<g id="node11" class="node">
<title>openconv_io_handlers_spreadsheet</title><style>.edge>path:hover{stroke-width:8}</style>
<ellipse fill="#753ab0" stroke="black" cx="352.45" cy="-366.76" rx="54.39" ry="28.98"/>
<text text-anchor="middle" x="352.45" y="-375.26" font-family="Helvetica,sans-Serif" font-size="10.00" fill="#ffffff">openconv.</text>
<text text-anchor="middle" x="352.45" y="-364.26" font-family="Helvetica,sans-Serif" font-size="10.00" fill="#ffffff">io_handlers.</text>
<text text-anchor="middle" x="352.45" y="-353.26" font-family="Helvetica,sans-Serif" font-size="10.00" fill="#ffffff">spreadsheet</text>
</g>
<!-- openconv_io_handlers_spreadsheet&#45;&gt;openconv_io_handlers -->
<g id="edge36" class="edge">
<title>openconv_io_handlers_spreadsheet&#45;&gt;openconv_io_handlers</title><style>.edge>path:hover{stroke-width:8}</style>
<path fill="none" stroke="black" d="M407.2,-365.23C415.54,-364.99 424.2,-364.74 432.68,-364.5"/>
<polygon fill="#753ab0" stroke="black" points="433,-367.99 442.9,-364.21 432.8,-361 433,-367.99"/>
</g>
<!-- openconv_io_handlers_video -->
<g id="node12" class="node">
<title>openconv_io_handlers_video</title><style>.edge>path:hover{stroke-width:8}</style>
<ellipse fill="#663399" stroke="black" cx="352.45" cy="-138.76" rx="53.98" ry="28.98"/>
<text text-anchor="middle" x="352.45" y="-147.26" font-family="Helvetica,sans-Serif" font-size="10.00" fill="#ffffff">openconv.</text>
<text text-anchor="middle" x="352.45" y="-136.26" font-family="Helvetica,sans-Serif" font-size="10.00" fill="#ffffff">io_handlers.</text>
<text text-anchor="middle" x="352.45" y="-125.26" font-family="Helvetica,sans-Serif" font-size="10.00" fill="#ffffff">video</text>
</g>
<!-- openconv_io_handlers_video&#45;&gt;openconv_io_handlers -->
<g id="edge37" class="edge">
<title>openconv_io_handlers_video&#45;&gt;openconv_io_handlers</title><style>.edge>path:hover{stroke-width:8}</style>
<path fill="none" stroke="black" d="M375.05,-165.33C385.71,-179.39 398.13,-197.33 406.89,-214.76 429.82,-260.34 413.39,-282.14 442.89,-323.76 446.82,-329.3 451.75,-334.41 457,-338.99"/>
<polygon fill="#663399" stroke="black" points="454.83,-341.75 464.81,-345.31 459.23,-336.3 454.83,-341.75"/>
</g>
<!-- PIL -->
<g id="node13" class="node">
<title>PIL</title><style>.edge>path:hover{stroke-width:8}</style>
<polygon fill="#e61919" stroke="black" points="184.5,-510.76 181.5,-514.76 160.5,-514.76 157.5,-510.76 130.5,-510.76 130.5,-474.76 184.5,-474.76 184.5,-510.76"/>
<text text-anchor="middle" x="157.5" y="-490.26" font-family="Helvetica,sans-Serif" font-size="10.00" fill="#ffffff">PIL</text>
</g>
<!-- PIL&#45;&gt;openconv_converters_document -->
<g id="edge1" class="edge">
<title>PIL&#45;&gt;openconv_converters_document</title><style>.edge>path:hover{stroke-width:8}</style>
<path fill="none" stroke="black" d="M168.93,-511C194.32,-552.77 263.77,-651.76 351.45,-651.76"/>
</g>
<!-- PIL&#45;&gt;openconv_converters_video -->
<g id="edge2" class="edge">
<title>PIL&#45;&gt;openconv_converters_video</title><style>.edge>path:hover{stroke-width:8}</style>
<path fill="none" stroke="black" d="M172.81,-510.97C191,-532.88 224.45,-569.28 261,-589.76 267.77,-593.56 343.67,-613.76 351.45,-613.76 351.45,-613.76 351.45,-613.76 495.51,-613.76 582.59,-613.76 556.79,-522.56 619.13,-461.76 622.3,-458.67 625.72,-455.59 629.23,-452.6"/>
<polygon fill="#e61919" stroke="black" points="631.48,-455.29 636.98,-446.23 627.03,-449.88 631.48,-455.29"/>
</g>
<!-- PIL&#45;&gt;openconv_io_handlers_img_pillow -->
<g id="edge3" class="edge">
<title>PIL&#45;&gt;openconv_io_handlers_img_pillow</title><style>.edge>path:hover{stroke-width:8}</style>
<path fill="none" stroke="black" d="M184.52,-486.02C212.35,-478.81 257.38,-467.14 293.66,-457.74"/>
<polygon fill="#e61919" stroke="black" points="294.84,-461.05 303.64,-455.15 293.09,-454.27 294.84,-461.05"/>
</g>
<!-- PyPDF2 -->
<g id="node14" class="node">
<title>PyPDF2</title><style>.edge>path:hover{stroke-width:8}</style>
<polygon fill="#c2a347" stroke="black" points="184.5,-688.76 181.5,-692.76 160.5,-692.76 157.5,-688.76 130.5,-688.76 130.5,-652.76 184.5,-652.76 184.5,-688.76"/>
<text text-anchor="middle" x="157.5" y="-668.26" font-family="Helvetica,sans-Serif" font-size="10.00" fill="#000000">PyPDF2</text>
</g>
<!-- PyPDF2&#45;&gt;openconv_converters_document -->
<g id="edge4" class="edge">
<title>PyPDF2&#45;&gt;openconv_converters_document</title><style>.edge>path:hover{stroke-width:8}</style>
<path fill="none" stroke="black" d="M184.67,-665.51C221.72,-658.69 291.65,-648.05 351.45,-651.76"/>
</g>
<!-- PyPDF2&#45;&gt;openconv_io_handlers_pdf -->
<g id="edge5" class="edge">
<title>PyPDF2&#45;&gt;openconv_io_handlers_pdf</title><style>.edge>path:hover{stroke-width:8}</style>
<path fill="none" stroke="black" d="M172.07,-652.57C190.25,-629.18 224.48,-588.39 261,-561.76 272.53,-553.36 285.97,-545.92 298.9,-539.7"/>
<polygon fill="#c2a347" stroke="black" points="300.6,-542.77 308.19,-535.38 297.65,-536.42 300.6,-542.77"/>
</g>
<!-- convcore -->
<g id="node15" class="node">
<title>convcore</title><style>.edge>path:hover{stroke-width:8}</style>
<polygon fill="#85f910" stroke="black" points="188,-456.76 185,-460.76 164,-460.76 161,-456.76 127,-456.76 127,-420.76 188,-420.76 188,-456.76"/>
<text text-anchor="middle" x="157.5" y="-436.26" font-family="Helvetica,sans-Serif" font-size="10.00" fill="#000000">convcore</text>
</g>
<!-- convcore&#45;&gt;openconv_app -->
<g id="edge6" class="edge">
<title>convcore&#45;&gt;openconv_app</title><style>.edge>path:hover{stroke-width:8}</style>
<path fill="none" stroke="black" d="M179.98,-456.86C182.83,-459.7 185.6,-462.71 188,-465.76 264.17,-562.65 228.21,-689.76 351.45,-689.76 351.45,-689.76 351.45,-689.76 670.34,-689.76 758.04,-689.76 853.03,-643.33 902.26,-615.39"/>
<polygon fill="#85f910" stroke="black" points="904.28,-618.27 911.19,-610.24 900.78,-612.2 904.28,-618.27"/>
</g>
<!-- convcore&#45;&gt;openconv_converters_document -->
<g id="edge7" class="edge">
<title>convcore&#45;&gt;openconv_converters_document</title><style>.edge>path:hover{stroke-width:8}</style>
<path fill="none" stroke="black" d="M262,-575.76C295.35,-615.88 300.2,-641.99 351.45,-651.76"/>
<path fill="none" stroke="black" d="M353.45,-651.76C449.93,-670.16 561.33,-628.08 622.39,-599.48"/>
<polygon fill="#85f910" stroke="black" points="624.23,-602.48 631.74,-595.02 621.21,-596.16 624.23,-602.48"/>
</g>
<!-- convcore&#45;&gt;openconv_converters_markup -->
<g id="edge8" class="edge">
<title>convcore&#45;&gt;openconv_converters_markup</title><style>.edge>path:hover{stroke-width:8}</style>
<path fill="none" stroke="black" d="M225,-442.76C286.21,-444.59 220.47,-529.85 261,-575.76"/>
<path fill="none" stroke="black" d="M262,-575.76C308.31,-628.22 519.84,-556.66 618.02,-519.58"/>
<polygon fill="#85f910" stroke="black" points="619.33,-522.83 627.44,-516 616.84,-516.28 619.33,-522.83"/>
</g>
<!-- convcore&#45;&gt;openconv_converters_structured -->
<g id="edge9" class="edge">
<title>convcore&#45;&gt;openconv_converters_structured</title><style>.edge>path:hover{stroke-width:8}</style>
<path fill="none" stroke="black" d="M262,-309.76C297.79,-272.8 444.17,-324.33 493.51,-309.76"/>
<path fill="none" stroke="black" d="M495.51,-309.76C557.08,-293.68 519.59,-184.03 582.13,-195.76"/>
</g>
<!-- convcore&#45;&gt;openconv_converters_video -->
<g id="edge10" class="edge">
<title>convcore&#45;&gt;openconv_converters_video</title><style>.edge>path:hover{stroke-width:8}</style>
<path fill="none" stroke="black" d="M495.51,-309.76C532.43,-298.86 547.77,-292.4 582.13,-309.76"/>
</g>
<!-- convcore&#45;&gt;openconv_io_handlers_img_opencv -->
<g id="edge11" class="edge">
<title>convcore&#45;&gt;openconv_io_handlers_img_opencv</title><style>.edge>path:hover{stroke-width:8}</style>
<path fill="none" stroke="black" d="M188.15,-440.97C199.38,-441.7 212.27,-442.41 224,-442.76"/>
<path fill="none" stroke="black" d="M225,-442.76C286.21,-444.59 218.4,-353.76 261,-309.76"/>
<path fill="none" stroke="black" d="M262,-309.76C273.99,-297.38 289.16,-286.44 303.59,-277.53"/>
<polygon fill="#85f910" stroke="black" points="305.65,-280.38 312.45,-272.26 302.06,-274.37 305.65,-280.38"/>
</g>
<!-- convcore&#45;&gt;openconv_io_handlers_img_pillow -->
<g id="edge12" class="edge">
<title>convcore&#45;&gt;openconv_io_handlers_img_pillow</title><style>.edge>path:hover{stroke-width:8}</style>
<path fill="none" stroke="black" d="M262,-442.76C270.48,-442.76 279.42,-442.76 288.23,-442.76"/>
<polygon fill="#85f910" stroke="black" points="288.47,-446.26 298.47,-442.76 288.47,-439.26 288.47,-446.26"/>
</g>
<!-- convcore&#45;&gt;openconv_io_handlers_pdf -->
<g id="edge13" class="edge">
<title>convcore&#45;&gt;openconv_io_handlers_pdf</title><style>.edge>path:hover{stroke-width:8}</style>
<path fill="none" stroke="black" d="M262,-442.76C285.26,-442.76 280.44,-465.51 298,-480.76 301.67,-483.95 305.61,-487.14 309.62,-490.23"/>
<polygon fill="#85f910" stroke="black" points="307.79,-493.23 317.9,-496.42 311.98,-487.63 307.79,-493.23"/>
</g>
<!-- convcore&#45;&gt;openconv_io_handlers_spreadsheet -->
<g id="edge14" class="edge">
<title>convcore&#45;&gt;openconv_io_handlers_spreadsheet</title><style>.edge>path:hover{stroke-width:8}</style>
<path fill="none" stroke="black" d="M225,-442.76C240.99,-443.24 245,-442.76 261,-442.76"/>
<path fill="none" stroke="black" d="M262,-442.76C285.26,-442.76 280.44,-420.02 298,-404.76 301.62,-401.62 305.5,-398.47 309.46,-395.42"/>
<polygon fill="#85f910" stroke="black" points="311.71,-398.11 317.61,-389.31 307.51,-392.5 311.71,-398.11"/>
</g>
<!-- convcore&#45;&gt;openconv_io_handlers_video -->
<g id="edge15" class="edge">
<title>convcore&#45;&gt;openconv_io_handlers_video</title><style>.edge>path:hover{stroke-width:8}</style>
<path fill="none" stroke="black" d="M167.55,-420.51C173.68,-407.83 181.77,-390.45 188,-374.76 206.79,-327.48 214.05,-177.36 261,-157.76"/>
</g>
<!-- cv2 -->
<g id="node16" class="node">
<title>cv2</title><style>.edge>path:hover{stroke-width:8}</style>
<polygon fill="#26d953" stroke="black" points="184.5,-167.76 181.5,-171.76 160.5,-171.76 157.5,-167.76 130.5,-167.76 130.5,-131.76 184.5,-131.76 184.5,-167.76"/>
<text text-anchor="middle" x="157.5" y="-147.26" font-family="Helvetica,sans-Serif" font-size="10.00" fill="#000000">cv2</text>
</g>
<!-- cv2&#45;&gt;openconv_converters_video -->
<g id="edge16" class="edge">
<title>cv2&#45;&gt;openconv_converters_video</title><style>.edge>path:hover{stroke-width:8}</style>
<path fill="none" stroke="black" d="M184.8,-134.43C231.57,-109.32 331.41,-65.55 406.89,-100.76 516.75,-152.01 473.94,-255.1 582.13,-309.76"/>
<path fill="none" stroke="black" d="M583.13,-309.76C599.16,-319.76 626.44,-358.48 645.81,-388.05"/>
<polygon fill="#26d953" stroke="black" points="642.92,-390.02 651.3,-396.5 648.79,-386.21 642.92,-390.02"/>
</g>
<!-- cv2&#45;&gt;openconv_io_handlers_img_opencv -->
<g id="edge17" class="edge">
<title>cv2&#45;&gt;openconv_io_handlers_img_opencv</title><style>.edge>path:hover{stroke-width:8}</style>
<path fill="none" stroke="black" d="M225,-157.76C247.25,-164.56 240.78,-184.26 261,-195.76"/>
<path fill="none" stroke="black" d="M262,-195.76C277.79,-204.74 294.69,-215.27 309.5,-224.81"/>
<polygon fill="#26d953" stroke="black" points="307.66,-227.79 317.96,-230.29 311.47,-221.92 307.66,-227.79"/>
</g>
<!-- cv2&#45;&gt;openconv_io_handlers_video -->
<g id="edge18" class="edge">
<title>cv2&#45;&gt;openconv_io_handlers_video</title><style>.edge>path:hover{stroke-width:8}</style>
<path fill="none" stroke="black" d="M184.76,-150.87C196.9,-151.91 211.4,-153.91 224,-157.76"/>
<path fill="none" stroke="black" d="M225,-157.76C240.3,-162.44 245.92,-163.1 261,-157.76"/>
</g>
<!-- imageio -->
<g id="node17" class="node">
<title>imageio</title><style>.edge>path:hover{stroke-width:8}</style>
<polygon fill="#40bfc0" stroke="black" points="185.5,-113.76 182.5,-117.76 161.5,-117.76 158.5,-113.76 129.5,-113.76 129.5,-77.76 185.5,-77.76 185.5,-113.76"/>
<text text-anchor="middle" x="157.5" y="-93.26" font-family="Helvetica,sans-Serif" font-size="10.00" fill="#000000">imageio</text>
</g>
<!-- imageio&#45;&gt;openconv_io_handlers_video -->
<g id="edge19" class="edge">
<title>imageio&#45;&gt;openconv_io_handlers_video</title><style>.edge>path:hover{stroke-width:8}</style>
<path fill="none" stroke="black" d="M184.08,-114.08C211.69,-133.39 252.81,-160.66 261,-157.76"/>
<path fill="none" stroke="black" d="M262,-157.76C270.92,-154.04 280.65,-151.02 290.3,-148.56"/>
<polygon fill="#40bfc0" stroke="black" points="291.37,-151.91 300.3,-146.21 289.77,-145.1 291.37,-151.91"/>
</g>
<!-- numpy -->
<g id="node18" class="node">
<title>numpy</title><style>.edge>path:hover{stroke-width:8}</style>
<polygon fill="#0643f9" stroke="black" points="54,-213.76 51,-217.76 30,-217.76 27,-213.76 0,-213.76 0,-177.76 54,-177.76 54,-213.76"/>
<text text-anchor="middle" x="27" y="-193.26" font-family="Helvetica,sans-Serif" font-size="10.00" fill="#ffffff">numpy</text>
</g>
<!-- numpy&#45;&gt;openconv_converters_video -->
<g id="edge22" class="edge">
<title>numpy&#45;&gt;openconv_converters_video</title><style>.edge>path:hover{stroke-width:8}</style>
<path fill="none" stroke="black" d="M54.16,-193.53C65.3,-193.15 78.38,-193.47 90,-195.76"/>
<path fill="none" stroke="black" d="M91,-195.76C148.56,-207.12 80.2,-104.14 127,-68.76 276.7,44.4 409.72,9.1 546.13,-119.76 565.47,-138.03 607.75,-323.72 619.13,-347.76 625.75,-361.73 634.54,-376.18 642.86,-388.68"/>
<polygon fill="#0643f9" stroke="black" points="639.99,-390.69 648.51,-396.99 645.78,-386.75 639.99,-390.69"/>
</g>
<!-- numpy&#45;&gt;openconv_io_handlers_img_opencv -->
<g id="edge23" class="edge">
<title>numpy&#45;&gt;openconv_io_handlers_img_opencv</title><style>.edge>path:hover{stroke-width:8}</style>
<path fill="none" stroke="black" d="M225,-195.76C240.55,-192 247.09,-187.85 261,-195.76"/>
</g>
<!-- numpy&#45;&gt;openconv_io_handlers_video -->
<g id="edge24" class="edge">
<title>numpy&#45;&gt;openconv_io_handlers_video</title><style>.edge>path:hover{stroke-width:8}</style>
<path fill="none" stroke="black" d="M91,-195.76C149.14,-206.45 166.54,-209.65 224,-195.76"/>
<path fill="none" stroke="black" d="M225,-195.76C247.25,-188.96 239.13,-165.7 261,-157.76"/>
</g>
<!-- numpy&#45;&gt;PIL -->
<g id="edge20" class="edge">
<title>numpy&#45;&gt;PIL</title><style>.edge>path:hover{stroke-width:8}</style>
<path fill="none" stroke="black" d="M91,-195.76C150.53,-206.71 98.99,-412.1 127,-465.76 127.1,-465.96 127.21,-466.16 127.32,-466.36"/>
<polygon fill="#0643f9" stroke="black" points="124.67,-468.67 133.34,-474.75 130.35,-464.58 124.67,-468.67"/>
</g>
<!-- numpy&#45;&gt;cv2 -->
<g id="edge21" class="edge">
<title>numpy&#45;&gt;cv2</title><style>.edge>path:hover{stroke-width:8}</style>
<path fill="none" stroke="black" d="M91,-195.76C99.57,-197.34 115.46,-186.33 129.44,-174.7"/>
<polygon fill="#0643f9" stroke="black" points="132.09,-177.04 137.38,-167.86 127.52,-171.73 132.09,-177.04"/>
</g>
<!-- pandas -->
<g id="node19" class="node">
<title>pandas</title><style>.edge>path:hover{stroke-width:8}</style>
<polygon fill="#cc33a6" stroke="black" points="184.5,-365.76 181.5,-369.76 160.5,-369.76 157.5,-365.76 130.5,-365.76 130.5,-329.76 184.5,-329.76 184.5,-365.76"/>
<text text-anchor="middle" x="157.5" y="-345.26" font-family="Helvetica,sans-Serif" font-size="10.00" fill="#ffffff">pandas</text>
</g>
<!-- pandas&#45;&gt;openconv_converters_structured -->
<g id="edge38" class="edge">
<title>pandas&#45;&gt;openconv_converters_structured</title><style>.edge>path:hover{stroke-width:8}</style>
<path fill="none" stroke="black" d="M184.67,-353.1C197.21,-354.36 212.06,-353.89 224,-347.76"/>
<path fill="none" stroke="black" d="M225,-347.76C285,-316.99 241.15,-251.02 298,-214.76 351.35,-180.73 519.8,-184.86 582.13,-195.76"/>
<path fill="none" stroke="black" d="M583.13,-195.76C619.95,-202.67 643.04,-241.37 655.75,-271.79"/>
<polygon fill="#cc33a6" stroke="black" points="652.59,-273.31 659.52,-281.32 659.1,-270.74 652.59,-273.31"/>
</g>
<!-- pandas&#45;&gt;openconv_io_handlers_spreadsheet -->
<g id="edge39" class="edge">
<title>pandas&#45;&gt;openconv_io_handlers_spreadsheet</title><style>.edge>path:hover{stroke-width:8}</style>
<path fill="none" stroke="black" d="M225,-347.76C248.14,-336.46 276.28,-339.3 300.13,-345.79"/>
<polygon fill="#cc33a6" stroke="black" points="299.13,-349.15 309.72,-348.65 301.14,-342.44 299.13,-349.15"/>
</g>
</g>
</svg>
