<?xml version="1.0" encoding="UTF-8" standalone="no"?>
<!DOCTYPE svg PUBLIC "-//W3C//DTD SVG 1.1//EN"
 "http://www.w3.org/Graphics/SVG/1.1/DTD/svg11.dtd">
<!-- Generated by graphviz version 2.43.0 (0)
 -->
<!-- Title: G Pages: 1 -->
<svg width="1026pt" height="544pt"
 viewBox="0.00 0.00 1026.40 544.20" xmlns="http://www.w3.org/2000/svg" xmlns:xlink="http://www.w3.org/1999/xlink">
<g id="graph0" class="graph" transform="scale(1 1) rotate(0) translate(4 540.2)">
<title>G</title><style>.edge>path:hover{stroke-width:8}</style>
<polygon fill="white" stroke="transparent" points="-4,4 -4,-540.2 1022.4,-540.2 1022.4,4 -4,4"/>
<!-- opencf -->
<g id="node1" class="node">
<title>opencf</title><style>.edge>path:hover{stroke-width:8}</style>
<ellipse fill="#4c91b3" stroke="black" cx="424.29" cy="-21.21" rx="29.37" ry="18"/>
<text text-anchor="middle" x="424.29" y="-18.71" font-family="Helvetica,sans-Serif" font-size="10.00" fill="#000000">opencf</text>
</g>
<!-- opencf_app -->
<g id="node2" class="node">
<title>opencf_app</title><style>.edge>path:hover{stroke-width:8}</style>
<ellipse fill="#4c91b3" stroke="black" cx="977.19" cy="-279.21" rx="41.41" ry="18"/>
<text text-anchor="middle" x="977.19" y="-276.71" font-family="Helvetica,sans-Serif" font-size="10.00" fill="#000000">opencf.app</text>
</g>
<!-- opencf_converters -->
<g id="node3" class="node">
<title>opencf_converters</title><style>.edge>path:hover{stroke-width:8}</style>
<ellipse fill="#357da1" stroke="black" cx="851.9" cy="-279.21" rx="48.17" ry="21.43"/>
<text text-anchor="middle" x="851.9" y="-282.21" font-family="Helvetica,sans-Serif" font-size="10.00" fill="#ffffff">opencf.</text>
<text text-anchor="middle" x="851.9" y="-271.21" font-family="Helvetica,sans-Serif" font-size="10.00" fill="#ffffff">converters</text>
</g>
<!-- opencf_converters&#45;&gt;opencf_app -->
<g id="edge6" class="edge">
<title>opencf_converters&#45;&gt;opencf_app</title><style>.edge>path:hover{stroke-width:8}</style>
<path fill="none" stroke="black" d="M900.22,-279.21C908.52,-279.21 917.19,-279.21 925.58,-279.21"/>
<polygon fill="#357da1" stroke="black" points="925.63,-282.71 935.63,-279.21 925.63,-275.71 925.63,-282.71"/>
</g>
<!-- opencf_converters_document -->
<g id="node4" class="node">
<title>opencf_converters_document</title><style>.edge>path:hover{stroke-width:8}</style>
<ellipse fill="#3d8fb8" stroke="black" cx="713.37" cy="-431.21" rx="50.41" ry="28.98"/>
<text text-anchor="middle" x="713.37" y="-439.71" font-family="Helvetica,sans-Serif" font-size="10.00" fill="#ffffff">opencf.</text>
<text text-anchor="middle" x="713.37" y="-428.71" font-family="Helvetica,sans-Serif" font-size="10.00" fill="#ffffff">converters.</text>
<text text-anchor="middle" x="713.37" y="-417.71" font-family="Helvetica,sans-Serif" font-size="10.00" fill="#ffffff">document</text>
</g>
<!-- opencf_converters_document&#45;&gt;opencf_converters -->
<g id="edge7" class="edge">
<title>opencf_converters_document&#45;&gt;opencf_converters</title><style>.edge>path:hover{stroke-width:8}</style>
<path fill="none" stroke="black" d="M747.92,-409.88C754.83,-404.81 761.83,-399.14 767.82,-393.21 793.92,-367.42 817.94,-332.76 833.36,-308.45"/>
<polygon fill="#3d8fb8" stroke="black" points="836.51,-310.02 838.84,-299.68 830.57,-306.31 836.51,-310.02"/>
</g>
<!-- opencf_converters_markup -->
<g id="node5" class="node">
<title>opencf_converters_markup</title><style>.edge>path:hover{stroke-width:8}</style>
<ellipse fill="#4799c2" stroke="black" cx="713.37" cy="-355.21" rx="50.41" ry="28.98"/>
<text text-anchor="middle" x="713.37" y="-363.71" font-family="Helvetica,sans-Serif" font-size="10.00" fill="#000000">opencf.</text>
<text text-anchor="middle" x="713.37" y="-352.71" font-family="Helvetica,sans-Serif" font-size="10.00" fill="#000000">converters.</text>
<text text-anchor="middle" x="713.37" y="-341.71" font-family="Helvetica,sans-Serif" font-size="10.00" fill="#000000">markup</text>
</g>
<!-- opencf_converters_markup&#45;&gt;opencf_converters -->
<g id="edge8" class="edge">
<title>opencf_converters_markup&#45;&gt;opencf_converters</title><style>.edge>path:hover{stroke-width:8}</style>
<path fill="none" stroke="black" d="M750.24,-335.25C769.34,-324.61 792.84,-311.53 812.33,-300.68"/>
<polygon fill="#4799c2" stroke="black" points="814.22,-303.64 821.26,-295.72 810.82,-297.52 814.22,-303.64"/>
</g>
<!-- opencf_converters_pdf -->
<g id="node6" class="node">
<title>opencf_converters_pdf</title><style>.edge>path:hover{stroke-width:8}</style>
<ellipse fill="#3a89b0" stroke="black" cx="713.37" cy="-203.21" rx="50.41" ry="28.98"/>
<text text-anchor="middle" x="713.37" y="-211.71" font-family="Helvetica,sans-Serif" font-size="10.00" fill="#ffffff">opencf.</text>
<text text-anchor="middle" x="713.37" y="-200.71" font-family="Helvetica,sans-Serif" font-size="10.00" fill="#ffffff">converters.</text>
<text text-anchor="middle" x="713.37" y="-189.71" font-family="Helvetica,sans-Serif" font-size="10.00" fill="#ffffff">pdf</text>
</g>
<!-- opencf_converters_pdf&#45;&gt;opencf_converters -->
<g id="edge9" class="edge">
<title>opencf_converters_pdf&#45;&gt;opencf_converters</title><style>.edge>path:hover{stroke-width:8}</style>
<path fill="none" stroke="black" d="M750.24,-223.18C769.34,-233.81 792.84,-246.89 812.33,-257.74"/>
<polygon fill="#3a89b0" stroke="black" points="810.82,-260.9 821.26,-262.71 814.22,-254.79 810.82,-260.9"/>
</g>
<!-- opencf_converters_spreadsheet -->
<g id="node7" class="node">
<title>opencf_converters_spreadsheet</title><style>.edge>path:hover{stroke-width:8}</style>
<ellipse fill="#4095c0" stroke="black" cx="713.37" cy="-127.21" rx="54.39" ry="28.98"/>
<text text-anchor="middle" x="713.37" y="-135.71" font-family="Helvetica,sans-Serif" font-size="10.00" fill="#000000">opencf.</text>
<text text-anchor="middle" x="713.37" y="-124.71" font-family="Helvetica,sans-Serif" font-size="10.00" fill="#000000">converters.</text>
<text text-anchor="middle" x="713.37" y="-113.71" font-family="Helvetica,sans-Serif" font-size="10.00" fill="#000000">spreadsheet</text>
</g>
<!-- opencf_converters_spreadsheet&#45;&gt;opencf_converters -->
<g id="edge10" class="edge">
<title>opencf_converters_spreadsheet&#45;&gt;opencf_converters</title><style>.edge>path:hover{stroke-width:8}</style>
<path fill="none" stroke="black" d="M749.04,-149.37C755.59,-154.23 762.15,-159.61 767.82,-165.21 793.92,-191.01 817.94,-225.67 833.36,-249.98"/>
<polygon fill="#4095c0" stroke="black" points="830.57,-252.12 838.84,-258.74 836.51,-248.41 830.57,-252.12"/>
</g>
<!-- opencf_converters_video -->
<g id="node8" class="node">
<title>opencf_converters_video</title><style>.edge>path:hover{stroke-width:8}</style>
<ellipse fill="#3d8fb8" stroke="black" cx="713.37" cy="-279.21" rx="50.41" ry="28.98"/>
<text text-anchor="middle" x="713.37" y="-287.71" font-family="Helvetica,sans-Serif" font-size="10.00" fill="#ffffff">opencf.</text>
<text text-anchor="middle" x="713.37" y="-276.71" font-family="Helvetica,sans-Serif" font-size="10.00" fill="#ffffff">converters.</text>
<text text-anchor="middle" x="713.37" y="-265.71" font-family="Helvetica,sans-Serif" font-size="10.00" fill="#ffffff">video</text>
</g>
<!-- opencf_converters_video&#45;&gt;opencf_converters -->
<g id="edge11" class="edge">
<title>opencf_converters_video&#45;&gt;opencf_converters</title><style>.edge>path:hover{stroke-width:8}</style>
<path fill="none" stroke="black" d="M763.66,-279.21C773.3,-279.21 783.49,-279.21 793.36,-279.21"/>
<polygon fill="#3d8fb8" stroke="black" points="793.51,-282.71 803.51,-279.21 793.51,-275.71 793.51,-282.71"/>
</g>
<!-- opencf_import_script -->
<g id="node9" class="node">
<title>opencf_import_script</title><style>.edge>path:hover{stroke-width:8}</style>
<ellipse fill="#4095c0" stroke="black" cx="277.28" cy="-21.21" rx="57.05" ry="21.43"/>
<text text-anchor="middle" x="277.28" y="-24.21" font-family="Helvetica,sans-Serif" font-size="10.00" fill="#000000">opencf.</text>
<text text-anchor="middle" x="277.28" y="-13.21" font-family="Helvetica,sans-Serif" font-size="10.00" fill="#000000">import_script</text>
</g>
<!-- opencf_import_script&#45;&gt;opencf -->
<g id="edge12" class="edge">
<title>opencf_import_script&#45;&gt;opencf</title><style>.edge>path:hover{stroke-width:8}</style>
<path fill="none" stroke="black" d="M334.76,-21.21C351.43,-21.21 369.29,-21.21 384.57,-21.21"/>
<polygon fill="#4095c0" stroke="black" points="384.69,-24.71 394.69,-21.21 384.69,-17.71 384.69,-24.71"/>
</g>
<!-- opencf_io_handlers_aspose -->
<g id="node10" class="node">
<title>opencf_io_handlers_aspose</title><style>.edge>path:hover{stroke-width:8}</style>
<ellipse fill="#3d8fb8" stroke="black" cx="424.29" cy="-507.21" rx="53.98" ry="28.98"/>
<text text-anchor="middle" x="424.29" y="-515.71" font-family="Helvetica,sans-Serif" font-size="10.00" fill="#ffffff">opencf.</text>
<text text-anchor="middle" x="424.29" y="-504.71" font-family="Helvetica,sans-Serif" font-size="10.00" fill="#ffffff">io_handlers.</text>
<text text-anchor="middle" x="424.29" y="-493.71" font-family="Helvetica,sans-Serif" font-size="10.00" fill="#ffffff">aspose</text>
</g>
<!-- opencf_io_handlers_aspose&#45;&gt;opencf_converters_document -->
<g id="edge13" class="edge">
<title>opencf_io_handlers_aspose&#45;&gt;opencf_converters_document</title><style>.edge>path:hover{stroke-width:8}</style>
<path fill="none" stroke="black" d="M470.14,-491.94C497.83,-483.34 534.28,-473.49 567.48,-469.21"/>
</g>
<!-- opencf_io_handlers_opencv -->
<g id="node11" class="node">
<title>opencf_io_handlers_opencv</title><style>.edge>path:hover{stroke-width:8}</style>
<ellipse fill="#3883a8" stroke="black" cx="424.29" cy="-355.21" rx="53.98" ry="28.98"/>
<text text-anchor="middle" x="424.29" y="-363.71" font-family="Helvetica,sans-Serif" font-size="10.00" fill="#ffffff">opencf.</text>
<text text-anchor="middle" x="424.29" y="-352.71" font-family="Helvetica,sans-Serif" font-size="10.00" fill="#ffffff">io_handlers.</text>
<text text-anchor="middle" x="424.29" y="-341.71" font-family="Helvetica,sans-Serif" font-size="10.00" fill="#ffffff">opencv</text>
</g>
<!-- opencf_io_handlers_opencv&#45;&gt;opencf_converters_video -->
<g id="edge14" class="edge">
<title>opencf_io_handlers_opencv&#45;&gt;opencf_converters_video</title><style>.edge>path:hover{stroke-width:8}</style>
<path fill="none" stroke="black" d="M473.02,-342.58C523.8,-329.14 604.01,-307.9 657.4,-293.77"/>
<polygon fill="#3883a8" stroke="black" points="658.6,-297.07 667.37,-291.13 656.81,-290.3 658.6,-297.07"/>
</g>
<!-- opencf_io_handlers_pdf2docx -->
<g id="node12" class="node">
<title>opencf_io_handlers_pdf2docx</title><style>.edge>path:hover{stroke-width:8}</style>
<ellipse fill="#4095c0" stroke="black" cx="424.29" cy="-431.21" rx="53.98" ry="28.98"/>
<text text-anchor="middle" x="424.29" y="-439.71" font-family="Helvetica,sans-Serif" font-size="10.00" fill="#000000">opencf.</text>
<text text-anchor="middle" x="424.29" y="-428.71" font-family="Helvetica,sans-Serif" font-size="10.00" fill="#000000">io_handlers.</text>
<text text-anchor="middle" x="424.29" y="-417.71" font-family="Helvetica,sans-Serif" font-size="10.00" fill="#000000">pdf2docx</text>
</g>
<!-- opencf_io_handlers_pdf2docx&#45;&gt;opencf_converters_document -->
<g id="edge15" class="edge">
<title>opencf_io_handlers_pdf2docx&#45;&gt;opencf_converters_document</title><style>.edge>path:hover{stroke-width:8}</style>
<path fill="none" stroke="black" d="M464.87,-450.49C493.08,-462.08 532.13,-473.77 567.48,-469.21"/>
<path fill="none" stroke="black" d="M569.48,-469.21C599.96,-465.28 633.17,-456.72 659.91,-448.72"/>
<polygon fill="#4095c0" stroke="black" points="661.28,-451.96 669.82,-445.69 659.23,-445.26 661.28,-451.96"/>
</g>
<!-- opencf_io_handlers_pillow -->
<g id="node13" class="node">
<title>opencf_io_handlers_pillow</title><style>.edge>path:hover{stroke-width:8}</style>
<ellipse fill="#3b9dce" stroke="black" cx="424.29" cy="-279.21" rx="53.98" ry="28.98"/>
<text text-anchor="middle" x="424.29" y="-287.71" font-family="Helvetica,sans-Serif" font-size="10.00" fill="#000000">opencf.</text>
<text text-anchor="middle" x="424.29" y="-276.71" font-family="Helvetica,sans-Serif" font-size="10.00" fill="#000000">io_handlers.</text>
<text text-anchor="middle" x="424.29" y="-265.71" font-family="Helvetica,sans-Serif" font-size="10.00" fill="#000000">pillow</text>
</g>
<!-- opencf_io_handlers_pillow&#45;&gt;opencf_converters_pdf -->
<g id="edge16" class="edge">
<title>opencf_io_handlers_pillow&#45;&gt;opencf_converters_pdf</title><style>.edge>path:hover{stroke-width:8}</style>
<path fill="none" stroke="black" d="M477.83,-282.41C504.75,-283.24 537.98,-283.02 567.48,-279.21"/>
<path fill="none" stroke="black" d="M569.48,-279.21C590.46,-276.51 636.18,-250.7 670.29,-229.9"/>
<polygon fill="#3b9dce" stroke="black" points="672.44,-232.68 679.13,-224.46 668.78,-226.72 672.44,-232.68"/>
</g>
<!-- opencf_io_handlers_pillow&#45;&gt;opencf_converters_video -->
<g id="edge17" class="edge">
<title>opencf_io_handlers_pillow&#45;&gt;opencf_converters_video</title><style>.edge>path:hover{stroke-width:8}</style>
<path fill="none" stroke="black" d="M569.48,-279.21C596.85,-275.68 627.41,-275.22 653.22,-275.83"/>
<polygon fill="#3b9dce" stroke="black" points="653.14,-279.33 663.23,-276.12 653.34,-272.33 653.14,-279.33"/>
</g>
<!-- opencf_io_handlers_pymupdf -->
<g id="node14" class="node">
<title>opencf_io_handlers_pymupdf</title><style>.edge>path:hover{stroke-width:8}</style>
<ellipse fill="#4095c0" stroke="black" cx="424.29" cy="-203.21" rx="53.98" ry="28.98"/>
<text text-anchor="middle" x="424.29" y="-211.71" font-family="Helvetica,sans-Serif" font-size="10.00" fill="#000000">opencf.</text>
<text text-anchor="middle" x="424.29" y="-200.71" font-family="Helvetica,sans-Serif" font-size="10.00" fill="#000000">io_handlers.</text>
<text text-anchor="middle" x="424.29" y="-189.71" font-family="Helvetica,sans-Serif" font-size="10.00" fill="#000000">pymupdf</text>
</g>
<!-- opencf_io_handlers_pymupdf&#45;&gt;opencf_converters_pdf -->
<g id="edge18" class="edge">
<title>opencf_io_handlers_pymupdf&#45;&gt;opencf_converters_pdf</title><style>.edge>path:hover{stroke-width:8}</style>
<path fill="none" stroke="black" d="M477.83,-200C504.75,-199.17 537.98,-199.39 567.48,-203.21"/>
</g>
<!-- opencf_io_handlers_pypdf -->
<g id="node15" class="node">
<title>opencf_io_handlers_pypdf</title><style>.edge>path:hover{stroke-width:8}</style>
<ellipse fill="#4095c0" stroke="black" cx="424.29" cy="-127.21" rx="53.98" ry="28.98"/>
<text text-anchor="middle" x="424.29" y="-135.71" font-family="Helvetica,sans-Serif" font-size="10.00" fill="#000000">opencf.</text>
<text text-anchor="middle" x="424.29" y="-124.71" font-family="Helvetica,sans-Serif" font-size="10.00" fill="#000000">io_handlers.</text>
<text text-anchor="middle" x="424.29" y="-113.71" font-family="Helvetica,sans-Serif" font-size="10.00" fill="#000000">pypdf</text>
</g>
<!-- opencf_io_handlers_pypdf&#45;&gt;opencf_converters_pdf -->
<g id="edge19" class="edge">
<title>opencf_io_handlers_pypdf&#45;&gt;opencf_converters_pdf</title><style>.edge>path:hover{stroke-width:8}</style>
<path fill="none" stroke="black" d="M459.63,-149.25C494.03,-170.64 544.99,-200.3 567.48,-203.21"/>
<path fill="none" stroke="black" d="M569.48,-203.21C596.85,-206.76 627.41,-207.22 653.22,-206.61"/>
<polygon fill="#4095c0" stroke="black" points="653.34,-210.11 663.23,-206.32 653.13,-203.12 653.34,-210.11"/>
</g>
<!-- opencf_io_handlers_spreadsheet -->
<g id="node16" class="node">
<title>opencf_io_handlers_spreadsheet</title><style>.edge>path:hover{stroke-width:8}</style>
<ellipse fill="#357da1" stroke="black" cx="568.48" cy="-127.21" rx="54.39" ry="28.98"/>
<text text-anchor="middle" x="568.48" y="-135.71" font-family="Helvetica,sans-Serif" font-size="10.00" fill="#ffffff">opencf.</text>
<text text-anchor="middle" x="568.48" y="-124.71" font-family="Helvetica,sans-Serif" font-size="10.00" fill="#ffffff">io_handlers.</text>
<text text-anchor="middle" x="568.48" y="-113.71" font-family="Helvetica,sans-Serif" font-size="10.00" fill="#ffffff">spreadsheet</text>
</g>
<!-- opencf_io_handlers_spreadsheet&#45;&gt;opencf_converters_spreadsheet -->
<g id="edge20" class="edge">
<title>opencf_io_handlers_spreadsheet&#45;&gt;opencf_converters_spreadsheet</title><style>.edge>path:hover{stroke-width:8}</style>
<path fill="none" stroke="black" d="M623.09,-127.21C631.31,-127.21 639.87,-127.21 648.29,-127.21"/>
<polygon fill="#357da1" stroke="black" points="648.46,-130.71 658.46,-127.21 648.46,-123.71 648.46,-130.71"/>
</g>
<!-- aspose -->
<g id="node17" class="node">
<title>aspose</title><style>.edge>path:hover{stroke-width:8}</style>
<polygon fill="#b65353" stroke="black" points="70,-525.21 67,-529.21 46,-529.21 43,-525.21 16,-525.21 16,-489.21 70,-489.21 70,-525.21"/>
<text text-anchor="middle" x="43" y="-504.71" font-family="Helvetica,sans-Serif" font-size="10.00" fill="#ffffff">aspose</text>
</g>
<!-- aspose&#45;&gt;opencf_io_handlers_aspose -->
<g id="edge1" class="edge">
<title>aspose&#45;&gt;opencf_io_handlers_aspose</title><style>.edge>path:hover{stroke-width:8}</style>
<path fill="none" stroke="black" d="M70.07,-507.21C129.36,-507.21 275.68,-507.21 360.23,-507.21"/>
<polygon fill="#b65353" stroke="black" points="360.47,-510.71 370.47,-507.21 360.47,-503.71 360.47,-510.71"/>
</g>
<!-- cv2 -->
<g id="node18" class="node">
<title>cv2</title><style>.edge>path:hover{stroke-width:8}</style>
<polygon fill="#c29947" stroke="black" points="70,-319.21 67,-323.21 46,-323.21 43,-319.21 16,-319.21 16,-283.21 70,-283.21 70,-319.21"/>
<text text-anchor="middle" x="43" y="-298.71" font-family="Helvetica,sans-Serif" font-size="10.00" fill="#000000">cv2</text>
</g>
<!-- cv2&#45;&gt;opencf_io_handlers_opencv -->
<g id="edge2" class="edge">
<title>cv2&#45;&gt;opencf_io_handlers_opencv</title><style>.edge>path:hover{stroke-width:8}</style>
<path fill="none" stroke="black" d="M70.17,-316.88C96.37,-332.09 135.14,-353.17 152,-355.21"/>
<path fill="none" stroke="black" d="M154,-355.21C224.42,-363.73 305.96,-362.15 360.7,-359.45"/>
<polygon fill="#c29947" stroke="black" points="361.14,-362.93 370.94,-358.92 360.77,-355.94 361.14,-362.93"/>
</g>
<!-- fitz -->
<g id="node19" class="node">
<title>fitz</title><style>.edge>path:hover{stroke-width:8}</style>
<polygon fill="#95b653" stroke="black" points="70,-221.21 67,-225.21 46,-225.21 43,-221.21 16,-221.21 16,-185.21 70,-185.21 70,-221.21"/>
<text text-anchor="middle" x="43" y="-200.71" font-family="Helvetica,sans-Serif" font-size="10.00" fill="#000000">fitz</text>
</g>
<!-- fitz&#45;&gt;opencf_io_handlers_pymupdf -->
<g id="edge3" class="edge">
<title>fitz&#45;&gt;opencf_io_handlers_pymupdf</title><style>.edge>path:hover{stroke-width:8}</style>
<path fill="none" stroke="black" d="M70.07,-203.21C129.36,-203.21 275.68,-203.21 360.23,-203.21"/>
<polygon fill="#95b653" stroke="black" points="360.47,-206.71 370.47,-203.21 360.47,-199.71 360.47,-206.71"/>
</g>
<!-- generalimport -->
<g id="node20" class="node">
<title>generalimport</title><style>.edge>path:hover{stroke-width:8}</style>
<polygon fill="#40c040" stroke="black" points="86,-39.21 83,-43.21 62,-43.21 59,-39.21 0,-39.21 0,-3.21 86,-3.21 86,-39.21"/>
<text text-anchor="middle" x="43" y="-18.71" font-family="Helvetica,sans-Serif" font-size="10.00" fill="#000000">generalimport</text>
</g>
<!-- generalimport&#45;&gt;opencf_import_script -->
<g id="edge4" class="edge">
<title>generalimport&#45;&gt;opencf_import_script</title><style>.edge>path:hover{stroke-width:8}</style>
<path fill="none" stroke="black" d="M86.06,-21.21C120.46,-21.21 169.73,-21.21 209.51,-21.21"/>
<polygon fill="#40c040" stroke="black" points="209.67,-24.71 219.67,-21.21 209.67,-17.71 209.67,-24.71"/>
</g>
<!-- imageio -->
<g id="node21" class="node">
<title>imageio</title><style>.edge>path:hover{stroke-width:8}</style>
<polygon fill="#40c095" stroke="black" points="71,-373.21 68,-377.21 47,-377.21 44,-373.21 15,-373.21 15,-337.21 71,-337.21 71,-373.21"/>
<text text-anchor="middle" x="43" y="-352.71" font-family="Helvetica,sans-Serif" font-size="10.00" fill="#000000">imageio</text>
</g>
<!-- imageio&#45;&gt;opencf_io_handlers_opencv -->
<g id="edge5" class="edge">
<title>imageio&#45;&gt;opencf_io_handlers_opencv</title><style>.edge>path:hover{stroke-width:8}</style>
<path fill="none" stroke="black" d="M71.18,-353.41C93.09,-352.4 124.64,-351.9 152,-355.21"/>
</g>
<!-- openpyxl -->
<g id="node22" class="node">
<title>openpyxl</title><style>.edge>path:hover{stroke-width:8}</style>
<polygon fill="#3131c4" stroke="black" points="184,-88.21 181,-92.21 160,-92.21 157,-88.21 122,-88.21 122,-52.21 184,-52.21 184,-88.21"/>
<text text-anchor="middle" x="153" y="-67.71" font-family="Helvetica,sans-Serif" font-size="10.00" fill="#ffffff">openpyxl</text>
</g>
<!-- openpyxl&#45;&gt;opencf_io_handlers_spreadsheet -->
<g id="edge21" class="edge">
<title>openpyxl&#45;&gt;opencf_io_handlers_spreadsheet</title><style>.edge>path:hover{stroke-width:8}</style>
<path fill="none" stroke="black" d="M184.42,-68.57C242.42,-66.19 372.41,-64.47 478.03,-89.21 491.78,-92.43 506.1,-97.61 519.14,-103.12"/>
<polygon fill="#3131c4" stroke="black" points="517.83,-106.36 528.39,-107.17 520.63,-99.95 517.83,-106.36"/>
</g>
<!-- pdf2docx -->
<g id="node23" class="node">
<title>pdf2docx</title><style>.edge>path:hover{stroke-width:8}</style>
<polygon fill="#9553b6" stroke="black" points="74,-449.21 71,-453.21 50,-453.21 47,-449.21 12,-449.21 12,-413.21 74,-413.21 74,-449.21"/>
<text text-anchor="middle" x="43" y="-428.71" font-family="Helvetica,sans-Serif" font-size="10.00" fill="#ffffff">pdf2docx</text>
</g>
<!-- pdf2docx&#45;&gt;opencf_io_handlers_pdf2docx -->
<g id="edge22" class="edge">
<title>pdf2docx&#45;&gt;opencf_io_handlers_pdf2docx</title><style>.edge>path:hover{stroke-width:8}</style>
<path fill="none" stroke="black" d="M74.08,-431.21C135.72,-431.21 277.54,-431.21 360.24,-431.21"/>
<polygon fill="#9553b6" stroke="black" points="360.27,-434.71 370.27,-431.21 360.27,-427.71 360.27,-434.71"/>
</g>
<!-- pypdf -->
<g id="node24" class="node">
<title>pypdf</title><style>.edge>path:hover{stroke-width:8}</style>
<polygon fill="#b65395" stroke="black" points="70,-145.21 67,-149.21 46,-149.21 43,-145.21 16,-145.21 16,-109.21 70,-109.21 70,-145.21"/>
<text text-anchor="middle" x="43" y="-124.71" font-family="Helvetica,sans-Serif" font-size="10.00" fill="#ffffff">pypdf</text>
</g>
<!-- pypdf&#45;&gt;opencf_io_handlers_pypdf -->
<g id="edge23" class="edge">
<title>pypdf&#45;&gt;opencf_io_handlers_pypdf</title><style>.edge>path:hover{stroke-width:8}</style>
<path fill="none" stroke="black" d="M70.07,-127.21C129.36,-127.21 275.68,-127.21 360.23,-127.21"/>
<polygon fill="#b65395" stroke="black" points="360.47,-130.71 370.47,-127.21 360.47,-123.71 360.47,-130.71"/>
</g>
</g>
</svg>
