<?xml version="1.0" encoding="UTF-8" standalone="no"?>
<!DOCTYPE svg PUBLIC "-//W3C//DTD SVG 1.1//EN"
 "http://www.w3.org/Graphics/SVG/1.1/DTD/svg11.dtd">
<!-- Generated by graphviz version 2.43.0 (0)
 -->
<!-- Title: G Pages: 1 -->
<svg width="1176pt" height="712pt"
 viewBox="0.00 0.00 1175.67 711.54" xmlns="http://www.w3.org/2000/svg" xmlns:xlink="http://www.w3.org/1999/xlink">
<g id="graph0" class="graph" transform="scale(1 1) rotate(0) translate(4 707.54)">
<title>G</title><style>.edge>path:hover{stroke-width:8}</style>
<polygon fill="white" stroke="transparent" points="-4,4 -4,-707.54 1171.67,-707.54 1171.67,4 -4,4"/>
<!-- opencf -->
<g id="node1" class="node">
<title>opencf</title><style>.edge>path:hover{stroke-width:8}</style>
<ellipse fill="#407fc0" stroke="black" cx="347.55" cy="-21.21" rx="29.37" ry="18"/>
<text text-anchor="middle" x="347.55" y="-18.71" font-family="Helvetica,sans-Serif" font-size="10.00" fill="#ffffff">opencf</text>
</g>
<!-- opencf_app -->
<g id="node2" class="node">
<title>opencf_app</title><style>.edge>path:hover{stroke-width:8}</style>
<ellipse fill="#3d668f" stroke="black" cx="1126.47" cy="-366.21" rx="41.41" ry="18"/>
<text text-anchor="middle" x="1126.47" y="-363.71" font-family="Helvetica,sans-Serif" font-size="10.00" fill="#ffffff">opencf.app</text>
</g>
<!-- opencf_converters -->
<g id="node3" class="node">
<title>opencf_converters</title><style>.edge>path:hover{stroke-width:8}</style>
<ellipse fill="#3870a8" stroke="black" cx="1001.18" cy="-338.21" rx="48.17" ry="21.43"/>
<text text-anchor="middle" x="1001.18" y="-341.21" font-family="Helvetica,sans-Serif" font-size="10.00" fill="#ffffff">opencf.</text>
<text text-anchor="middle" x="1001.18" y="-330.21" font-family="Helvetica,sans-Serif" font-size="10.00" fill="#ffffff">converters</text>
</g>
<!-- opencf_converters&#45;&gt;opencf_app -->
<g id="edge20" class="edge">
<title>opencf_converters&#45;&gt;opencf_app</title><style>.edge>path:hover{stroke-width:8}</style>
<path fill="none" stroke="black" d="M1044.26,-347.77C1055.59,-350.34 1067.9,-353.14 1079.44,-355.76"/>
<polygon fill="#3870a8" stroke="black" points="1078.8,-359.2 1089.33,-358.01 1080.35,-352.38 1078.8,-359.2"/>
</g>
<!-- opencf_converters_document -->
<g id="node4" class="node">
<title>opencf_converters_document</title><style>.edge>path:hover{stroke-width:8}</style>
<ellipse fill="#1e4c7a" stroke="black" cx="866.89" cy="-471.21" rx="50.41" ry="28.98"/>
<text text-anchor="middle" x="866.89" y="-479.71" font-family="Helvetica,sans-Serif" font-size="10.00" fill="#ffffff">opencf.</text>
<text text-anchor="middle" x="866.89" y="-468.71" font-family="Helvetica,sans-Serif" font-size="10.00" fill="#ffffff">converters.</text>
<text text-anchor="middle" x="866.89" y="-457.71" font-family="Helvetica,sans-Serif" font-size="10.00" fill="#ffffff">document</text>
</g>
<!-- opencf_converters_document&#45;&gt;opencf_app -->
<g id="edge21" class="edge">
<title>opencf_converters_document&#45;&gt;opencf_app</title><style>.edge>path:hover{stroke-width:8}</style>
<path fill="none" stroke="black" d="M905.2,-452.28C931.23,-439.8 967.08,-424 1000.18,-414.21"/>
</g>
<!-- opencf_converters_document&#45;&gt;opencf_converters -->
<g id="edge22" class="edge">
<title>opencf_converters_document&#45;&gt;opencf_converters</title><style>.edge>path:hover{stroke-width:8}</style>
<path fill="none" stroke="black" d="M892.77,-446.2C915.87,-422.98 950.14,-388.52 973.73,-364.8"/>
<polygon fill="#1e4c7a" stroke="black" points="976.41,-367.07 980.98,-357.51 971.45,-362.13 976.41,-367.07"/>
</g>
<!-- opencf_converters_markup -->
<g id="node5" class="node">
<title>opencf_converters_markup</title><style>.edge>path:hover{stroke-width:8}</style>
<ellipse fill="#3870a8" stroke="black" cx="866.89" cy="-262.21" rx="50.41" ry="28.98"/>
<text text-anchor="middle" x="866.89" y="-270.71" font-family="Helvetica,sans-Serif" font-size="10.00" fill="#ffffff">opencf.</text>
<text text-anchor="middle" x="866.89" y="-259.71" font-family="Helvetica,sans-Serif" font-size="10.00" fill="#ffffff">converters.</text>
<text text-anchor="middle" x="866.89" y="-248.71" font-family="Helvetica,sans-Serif" font-size="10.00" fill="#ffffff">markup</text>
</g>
<!-- opencf_converters_markup&#45;&gt;opencf_converters -->
<g id="edge23" class="edge">
<title>opencf_converters_markup&#45;&gt;opencf_converters</title><style>.edge>path:hover{stroke-width:8}</style>
<path fill="none" stroke="black" d="M902.99,-282.38C921.28,-292.89 943.66,-305.74 962.33,-316.47"/>
<polygon fill="#3870a8" stroke="black" points="960.75,-319.6 971.17,-321.55 964.24,-313.53 960.75,-319.6"/>
</g>
<!-- opencf_converters_structured -->
<g id="node6" class="node">
<title>opencf_converters_structured</title><style>.edge>path:hover{stroke-width:8}</style>
<ellipse fill="#336699" stroke="black" cx="866.89" cy="-338.21" rx="50.41" ry="28.98"/>
<text text-anchor="middle" x="866.89" y="-346.71" font-family="Helvetica,sans-Serif" font-size="10.00" fill="#ffffff">opencf.</text>
<text text-anchor="middle" x="866.89" y="-335.71" font-family="Helvetica,sans-Serif" font-size="10.00" fill="#ffffff">converters.</text>
<text text-anchor="middle" x="866.89" y="-324.71" font-family="Helvetica,sans-Serif" font-size="10.00" fill="#ffffff">structured</text>
</g>
<!-- opencf_converters_structured&#45;&gt;opencf_converters -->
<g id="edge24" class="edge">
<title>opencf_converters_structured&#45;&gt;opencf_converters</title><style>.edge>path:hover{stroke-width:8}</style>
<path fill="none" stroke="black" d="M917.15,-338.21C925.59,-338.21 934.44,-338.21 943.07,-338.21"/>
<polygon fill="#336699" stroke="black" points="943.07,-341.71 953.07,-338.21 943.07,-334.71 943.07,-341.71"/>
</g>
<!-- opencf_converters_video -->
<g id="node7" class="node">
<title>opencf_converters_video</title><style>.edge>path:hover{stroke-width:8}</style>
<ellipse fill="#2b5782" stroke="black" cx="866.89" cy="-158.21" rx="50.41" ry="28.98"/>
<text text-anchor="middle" x="866.89" y="-166.71" font-family="Helvetica,sans-Serif" font-size="10.00" fill="#ffffff">opencf.</text>
<text text-anchor="middle" x="866.89" y="-155.71" font-family="Helvetica,sans-Serif" font-size="10.00" fill="#ffffff">converters.</text>
<text text-anchor="middle" x="866.89" y="-144.71" font-family="Helvetica,sans-Serif" font-size="10.00" fill="#ffffff">video</text>
</g>
<!-- opencf_converters_video&#45;&gt;opencf_converters -->
<g id="edge25" class="edge">
<title>opencf_converters_video&#45;&gt;opencf_converters</title><style>.edge>path:hover{stroke-width:8}</style>
<path fill="none" stroke="black" d="M887.82,-184.82C896.8,-196.83 907.51,-211.21 917.09,-224.21 938.48,-253.23 962.74,-286.57 979.5,-309.66"/>
<polygon fill="#2b5782" stroke="black" points="976.83,-311.94 985.53,-317.98 982.5,-307.83 976.83,-311.94"/>
</g>
<!-- opencf_import_script -->
<g id="node8" class="node">
<title>opencf_import_script</title><style>.edge>path:hover{stroke-width:8}</style>
<ellipse fill="#407fc0" stroke="black" cx="216.28" cy="-21.21" rx="57.05" ry="21.43"/>
<text text-anchor="middle" x="216.28" y="-24.21" font-family="Helvetica,sans-Serif" font-size="10.00" fill="#ffffff">opencf.</text>
<text text-anchor="middle" x="216.28" y="-13.21" font-family="Helvetica,sans-Serif" font-size="10.00" fill="#ffffff">import_script</text>
</g>
<!-- opencf_import_script&#45;&gt;opencf -->
<g id="edge26" class="edge">
<title>opencf_import_script&#45;&gt;opencf</title><style>.edge>path:hover{stroke-width:8}</style>
<path fill="none" stroke="black" d="M273.6,-21.21C285.13,-21.21 297.03,-21.21 307.78,-21.21"/>
<polygon fill="#407fc0" stroke="black" points="308.09,-24.71 318.09,-21.21 308.09,-17.71 308.09,-24.71"/>
</g>
<!-- opencf_io_handlers -->
<g id="node9" class="node">
<title>opencf_io_handlers</title><style>.edge>path:hover{stroke-width:8}</style>
<ellipse fill="#206bb6" stroke="black" cx="692.06" cy="-300.21" rx="51.74" ry="21.43"/>
<text text-anchor="middle" x="692.06" y="-303.21" font-family="Helvetica,sans-Serif" font-size="10.00" fill="#ffffff">opencf.</text>
<text text-anchor="middle" x="692.06" y="-292.21" font-family="Helvetica,sans-Serif" font-size="10.00" fill="#ffffff">io_handlers</text>
</g>
<!-- opencf_io_handlers&#45;&gt;opencf_converters_document -->
<g id="edge27" class="edge">
<title>opencf_io_handlers&#45;&gt;opencf_converters_document</title><style>.edge>path:hover{stroke-width:8}</style>
<path fill="none" stroke="black" d="M780.68,-338.21C799.68,-349.36 828.39,-398.89 847.14,-434.24"/>
<polygon fill="#206bb6" stroke="black" points="844.17,-436.11 851.91,-443.34 850.36,-432.86 844.17,-436.11"/>
</g>
<!-- opencf_io_handlers&#45;&gt;opencf_converters_structured -->
<g id="edge28" class="edge">
<title>opencf_io_handlers&#45;&gt;opencf_converters_structured</title><style>.edge>path:hover{stroke-width:8}</style>
<path fill="none" stroke="black" d="M730.68,-314.45C746.25,-320.92 764.25,-329.15 779.68,-338.21"/>
<path fill="none" stroke="black" d="M780.68,-338.21C789.02,-343.1 798.64,-345.5 808.36,-346.35"/>
<polygon fill="#206bb6" stroke="black" points="808.35,-349.85 818.47,-346.73 808.61,-342.86 808.35,-349.85"/>
</g>
<!-- opencf_io_handlers&#45;&gt;opencf_converters_video -->
<g id="edge29" class="edge">
<title>opencf_io_handlers&#45;&gt;opencf_converters_video</title><style>.edge>path:hover{stroke-width:8}</style>
<path fill="none" stroke="black" d="M716.01,-281.36C744.92,-257.61 794.93,-216.52 829.17,-188.38"/>
<polygon fill="#206bb6" stroke="black" points="831.58,-190.94 837.08,-181.88 827.13,-185.53 831.58,-190.94"/>
</g>
<!-- opencf_io_handlers_img_opencv -->
<g id="node10" class="node">
<title>opencf_io_handlers_img_opencv</title><style>.edge>path:hover{stroke-width:8}</style>
<ellipse fill="#3870a8" stroke="black" cx="550" cy="-110.21" rx="53.98" ry="28.98"/>
<text text-anchor="middle" x="550" y="-118.71" font-family="Helvetica,sans-Serif" font-size="10.00" fill="#ffffff">opencf.</text>
<text text-anchor="middle" x="550" y="-107.71" font-family="Helvetica,sans-Serif" font-size="10.00" fill="#ffffff">io_handlers.</text>
<text text-anchor="middle" x="550" y="-96.71" font-family="Helvetica,sans-Serif" font-size="10.00" fill="#ffffff">img_opencv</text>
</g>
<!-- opencf_io_handlers_img_opencv&#45;&gt;opencf_io_handlers -->
<g id="edge30" class="edge">
<title>opencf_io_handlers_img_opencv&#45;&gt;opencf_io_handlers</title><style>.edge>path:hover{stroke-width:8}</style>
<path fill="none" stroke="black" d="M570.77,-137.03C597.02,-172.64 643.18,-235.26 670.04,-271.7"/>
<polygon fill="#3870a8" stroke="black" points="667.36,-273.96 676.11,-279.93 673,-269.8 667.36,-273.96"/>
</g>
<!-- opencf_io_handlers_img_pillow -->
<g id="node11" class="node">
<title>opencf_io_handlers_img_pillow</title><style>.edge>path:hover{stroke-width:8}</style>
<ellipse fill="#3870a8" stroke="black" cx="550" cy="-300.21" rx="53.98" ry="28.98"/>
<text text-anchor="middle" x="550" y="-308.71" font-family="Helvetica,sans-Serif" font-size="10.00" fill="#ffffff">opencf.</text>
<text text-anchor="middle" x="550" y="-297.71" font-family="Helvetica,sans-Serif" font-size="10.00" fill="#ffffff">io_handlers.</text>
<text text-anchor="middle" x="550" y="-286.71" font-family="Helvetica,sans-Serif" font-size="10.00" fill="#ffffff">img_pillow</text>
</g>
<!-- opencf_io_handlers_img_pillow&#45;&gt;opencf_io_handlers -->
<g id="edge31" class="edge">
<title>opencf_io_handlers_img_pillow&#45;&gt;opencf_io_handlers</title><style>.edge>path:hover{stroke-width:8}</style>
<path fill="none" stroke="black" d="M603.95,-300.21C612.53,-300.21 621.47,-300.21 630.21,-300.21"/>
<polygon fill="#3870a8" stroke="black" points="630.35,-303.71 640.35,-300.21 630.35,-296.71 630.35,-303.71"/>
</g>
<!-- opencf_io_handlers_pdf -->
<g id="node12" class="node">
<title>opencf_io_handlers_pdf</title><style>.edge>path:hover{stroke-width:8}</style>
<ellipse fill="#22578b" stroke="black" cx="550" cy="-528.21" rx="53.98" ry="28.98"/>
<text text-anchor="middle" x="550" y="-536.71" font-family="Helvetica,sans-Serif" font-size="10.00" fill="#ffffff">opencf.</text>
<text text-anchor="middle" x="550" y="-525.71" font-family="Helvetica,sans-Serif" font-size="10.00" fill="#ffffff">io_handlers.</text>
<text text-anchor="middle" x="550" y="-514.71" font-family="Helvetica,sans-Serif" font-size="10.00" fill="#ffffff">pdf</text>
</g>
<!-- opencf_io_handlers_pdf&#45;&gt;opencf_converters_document -->
<g id="edge32" class="edge">
<title>opencf_io_handlers_pdf&#45;&gt;opencf_converters_document</title><style>.edge>path:hover{stroke-width:8}</style>
<path fill="none" stroke="black" d="M603.88,-528.21C630.1,-528.21 662.25,-528.21 691.06,-528.21"/>
</g>
<!-- opencf_io_handlers_pdf&#45;&gt;opencf_io_handlers -->
<g id="edge33" class="edge">
<title>opencf_io_handlers_pdf&#45;&gt;opencf_io_handlers</title><style>.edge>path:hover{stroke-width:8}</style>
<path fill="none" stroke="black" d="M567.89,-500.71C594.51,-457.39 645.97,-373.63 673.18,-329.32"/>
<polygon fill="#22578b" stroke="black" points="676.19,-331.11 678.45,-320.76 670.23,-327.44 676.19,-331.11"/>
</g>
<!-- opencf_io_handlers_spreadsheet -->
<g id="node13" class="node">
<title>opencf_io_handlers_spreadsheet</title><style>.edge>path:hover{stroke-width:8}</style>
<ellipse fill="#2d70b4" stroke="black" cx="550" cy="-376.21" rx="54.39" ry="28.98"/>
<text text-anchor="middle" x="550" y="-384.71" font-family="Helvetica,sans-Serif" font-size="10.00" fill="#ffffff">opencf.</text>
<text text-anchor="middle" x="550" y="-373.71" font-family="Helvetica,sans-Serif" font-size="10.00" fill="#ffffff">io_handlers.</text>
<text text-anchor="middle" x="550" y="-362.71" font-family="Helvetica,sans-Serif" font-size="10.00" fill="#ffffff">spreadsheet</text>
</g>
<!-- opencf_io_handlers_spreadsheet&#45;&gt;opencf_converters_structured -->
<g id="edge34" class="edge">
<title>opencf_io_handlers_spreadsheet&#45;&gt;opencf_converters_structured</title><style>.edge>path:hover{stroke-width:8}</style>
<path fill="none" stroke="black" d="M604.02,-371.56C650.64,-367.26 720.28,-360.32 780.68,-352.21 789.74,-351 799.31,-349.57 808.65,-348.09"/>
<polygon fill="#2d70b4" stroke="black" points="809.32,-351.53 818.64,-346.48 808.21,-344.62 809.32,-351.53"/>
</g>
<!-- opencf_io_handlers_spreadsheet&#45;&gt;opencf_io_handlers -->
<g id="edge35" class="edge">
<title>opencf_io_handlers_spreadsheet&#45;&gt;opencf_io_handlers</title><style>.edge>path:hover{stroke-width:8}</style>
<path fill="none" stroke="black" d="M588.9,-355.65C608.21,-345.17 631.67,-332.44 651.24,-321.82"/>
<polygon fill="#2d70b4" stroke="black" points="653.09,-324.8 660.21,-316.95 649.75,-318.65 653.09,-324.8"/>
</g>
<!-- opencf_io_handlers_video -->
<g id="node14" class="node">
<title>opencf_io_handlers_video</title><style>.edge>path:hover{stroke-width:8}</style>
<ellipse fill="#336699" stroke="black" cx="550" cy="-224.21" rx="53.98" ry="28.98"/>
<text text-anchor="middle" x="550" y="-232.71" font-family="Helvetica,sans-Serif" font-size="10.00" fill="#ffffff">opencf.</text>
<text text-anchor="middle" x="550" y="-221.71" font-family="Helvetica,sans-Serif" font-size="10.00" fill="#ffffff">io_handlers.</text>
<text text-anchor="middle" x="550" y="-210.71" font-family="Helvetica,sans-Serif" font-size="10.00" fill="#ffffff">video</text>
</g>
<!-- opencf_io_handlers_video&#45;&gt;opencf_io_handlers -->
<g id="edge36" class="edge">
<title>opencf_io_handlers_video&#45;&gt;opencf_io_handlers</title><style>.edge>path:hover{stroke-width:8}</style>
<path fill="none" stroke="black" d="M588.53,-244.58C607.84,-255.06 631.38,-267.83 651.04,-278.49"/>
<polygon fill="#336699" stroke="black" points="649.59,-281.69 660.05,-283.38 652.93,-275.54 649.59,-281.69"/>
</g>
<!-- PIL -->
<g id="node15" class="node">
<title>PIL</title><style>.edge>path:hover{stroke-width:8}</style>
<polygon fill="#f90606" stroke="black" points="243.28,-139.21 240.28,-143.21 219.28,-143.21 216.28,-139.21 189.28,-139.21 189.28,-103.21 243.28,-103.21 243.28,-139.21"/>
<text text-anchor="middle" x="216.28" y="-118.71" font-family="Helvetica,sans-Serif" font-size="10.00" fill="#ffffff">PIL</text>
</g>
<!-- PIL&#45;&gt;opencf_converters_document -->
<g id="edge1" class="edge">
<title>PIL&#45;&gt;opencf_converters_document</title><style>.edge>path:hover{stroke-width:8}</style>
<path fill="none" stroke="black" d="M217.24,-139.44C217.5,-228.35 223.6,-615.12 309.55,-688.21 335.28,-710.1 357.23,-706.62 385.55,-688.21 418.58,-666.75 382.19,-608.91 421.55,-607.21"/>
</g>
<!-- PIL&#45;&gt;opencf_converters_video -->
<g id="edge2" class="edge">
<title>PIL&#45;&gt;opencf_converters_video</title><style>.edge>path:hover{stroke-width:8}</style>
<path fill="none" stroke="black" d="M243.53,-113.3C270.02,-104.99 311.84,-90.95 346.55,-75.21"/>
</g>
<!-- PIL&#45;&gt;opencf_io_handlers_img_pillow -->
<g id="edge3" class="edge">
<title>PIL&#45;&gt;opencf_io_handlers_img_pillow</title><style>.edge>path:hover{stroke-width:8}</style>
<path fill="none" stroke="black" d="M218.44,-139.37C222.36,-183.32 239.13,-295.31 309.55,-342.21 368.25,-381.31 452.34,-351.47 503.66,-326.04"/>
<polygon fill="#f90606" stroke="black" points="505.53,-329.01 512.85,-321.35 502.35,-322.78 505.53,-329.01"/>
</g>
<!-- PIL&#45;&gt;opencf_io_handlers_pdf -->
<g id="edge4" class="edge">
<title>PIL&#45;&gt;opencf_io_handlers_pdf</title><style>.edge>path:hover{stroke-width:8}</style>
<path fill="none" stroke="black" d="M217.76,-139.43C220.08,-191.53 233.37,-343.2 309.55,-434.21 333.79,-463.17 359.46,-444.91 385.55,-472.21 412.77,-500.7 384.2,-540.69 421.55,-553.21"/>
</g>
<!-- pypdf -->
<g id="node25" class="node">
<title>pypdf</title><style>.edge>path:hover{stroke-width:8}</style>
<polygon fill="#c04080" stroke="black" points="374.55,-679.21 371.55,-683.21 350.55,-683.21 347.55,-679.21 320.55,-679.21 320.55,-643.21 374.55,-643.21 374.55,-679.21"/>
<text text-anchor="middle" x="347.55" y="-658.71" font-family="Helvetica,sans-Serif" font-size="10.00" fill="#ffffff">pypdf</text>
</g>
<!-- PIL&#45;&gt;pypdf -->
<g id="edge5" class="edge">
<title>PIL&#45;&gt;pypdf</title><style>.edge>path:hover{stroke-width:8}</style>
<path fill="none" stroke="black" d="M218.72,-139.23C225.46,-219.97 255.79,-548.3 309.55,-634.21 310.6,-635.88 311.78,-637.48 313.08,-639.01"/>
<polygon fill="#f90606" stroke="black" points="310.66,-641.54 320.26,-646.02 315.55,-636.53 310.66,-641.54"/>
</g>
<!-- aspose -->
<g id="node16" class="node">
<title>aspose</title><style>.edge>path:hover{stroke-width:8}</style>
<polygon fill="#c28547" stroke="black" points="374.55,-625.21 371.55,-629.21 350.55,-629.21 347.55,-625.21 320.55,-625.21 320.55,-589.21 374.55,-589.21 374.55,-625.21"/>
<text text-anchor="middle" x="347.55" y="-604.71" font-family="Helvetica,sans-Serif" font-size="10.00" fill="#000000">aspose</text>
</g>
<!-- aspose&#45;&gt;opencf_converters_document -->
<g id="edge6" class="edge">
<title>aspose&#45;&gt;opencf_converters_document</title><style>.edge>path:hover{stroke-width:8}</style>
<path fill="none" stroke="black" d="M374.58,-607.76C388.52,-607.91 405.98,-607.88 421.55,-607.21"/>
</g>
<!-- aspose&#45;&gt;opencf_io_handlers_pdf -->
<g id="edge7" class="edge">
<title>aspose&#45;&gt;opencf_io_handlers_pdf</title><style>.edge>path:hover{stroke-width:8}</style>
<path fill="none" stroke="black" d="M373.66,-588.96C377.65,-586.04 381.72,-583.05 385.55,-580.21 401.63,-568.32 402.35,-547.63 421.55,-553.21"/>
</g>
<!-- cv2 -->
<g id="node17" class="node">
<title>cv2</title><style>.edge>path:hover{stroke-width:8}</style>
<polygon fill="#d9d926" stroke="black" points="374.55,-139.21 371.55,-143.21 350.55,-143.21 347.55,-139.21 320.55,-139.21 320.55,-103.21 374.55,-103.21 374.55,-139.21"/>
<text text-anchor="middle" x="347.55" y="-118.71" font-family="Helvetica,sans-Serif" font-size="10.00" fill="#000000">cv2</text>
</g>
<!-- cv2&#45;&gt;opencf_converters_video -->
<g id="edge8" class="edge">
<title>cv2&#45;&gt;opencf_converters_video</title><style>.edge>path:hover{stroke-width:8}</style>
<path fill="none" stroke="black" d="M369.92,-103.2C375.1,-98.7 380.58,-93.84 385.55,-89.21 402.12,-73.8 399.12,-56.21 421.55,-53.21"/>
<path fill="none" stroke="black" d="M422.55,-53.21C438.41,-51.1 442.77,-55.84 458.55,-53.21"/>
</g>
<!-- cv2&#45;&gt;opencf_io_handlers_img_opencv -->
<g id="edge9" class="edge">
<title>cv2&#45;&gt;opencf_io_handlers_img_opencv</title><style>.edge>path:hover{stroke-width:8}</style>
<path fill="none" stroke="black" d="M422.55,-53.21C445.61,-50.13 441.49,-75.4 458.55,-91.21"/>
<path fill="none" stroke="black" d="M459.55,-91.21C467.06,-98.17 476.47,-102.83 486.33,-105.91"/>
<polygon fill="#d9d926" stroke="black" points="485.74,-109.37 496.3,-108.48 487.49,-102.59 485.74,-109.37"/>
</g>
<!-- cv2&#45;&gt;opencf_io_handlers_video -->
<g id="edge10" class="edge">
<title>cv2&#45;&gt;opencf_io_handlers_video</title><style>.edge>path:hover{stroke-width:8}</style>
<path fill="none" stroke="black" d="M459.55,-91.21C481.53,-111.58 478.93,-123.28 495.55,-148.21 504.49,-161.63 514.6,-176.15 523.6,-188.87"/>
<polygon fill="#d9d926" stroke="black" points="520.98,-191.23 529.62,-197.35 526.69,-187.17 520.98,-191.23"/>
</g>
<!-- fitz -->
<g id="node18" class="node">
<title>fitz</title><style>.edge>path:hover{stroke-width:8}</style>
<polygon fill="#85c247" stroke="black" points="374.55,-517.21 371.55,-521.21 350.55,-521.21 347.55,-517.21 320.55,-517.21 320.55,-481.21 374.55,-481.21 374.55,-517.21"/>
<text text-anchor="middle" x="347.55" y="-496.71" font-family="Helvetica,sans-Serif" font-size="10.00" fill="#000000">fitz</text>
</g>
<!-- fitz&#45;&gt;opencf_converters_document -->
<g id="edge11" class="edge">
<title>fitz&#45;&gt;opencf_converters_document</title><style>.edge>path:hover{stroke-width:8}</style>
<path fill="none" stroke="black" d="M374.76,-515.62C378.69,-518.82 382.45,-522.38 385.55,-526.21 410.3,-556.86 382.34,-610.98 421.55,-607.21"/>
<path fill="none" stroke="black" d="M422.55,-607.21C505.04,-599.29 525.72,-592.09 604.45,-566.21 644.38,-553.09 649.03,-528.21 691.06,-528.21"/>
</g>
<!-- fitz&#45;&gt;opencf_io_handlers_pdf -->
<g id="edge12" class="edge">
<title>fitz&#45;&gt;opencf_io_handlers_pdf</title><style>.edge>path:hover{stroke-width:8}</style>
<path fill="none" stroke="black" d="M373.66,-517.47C377.65,-520.38 381.72,-523.38 385.55,-526.21 401.63,-538.11 402.35,-547.63 421.55,-553.21"/>
</g>
<!-- generalimport -->
<g id="node19" class="node">
<title>generalimport</title><style>.edge>path:hover{stroke-width:8}</style>
<polygon fill="#40c040" stroke="black" points="86,-39.21 83,-43.21 62,-43.21 59,-39.21 0,-39.21 0,-3.21 86,-3.21 86,-39.21"/>
<text text-anchor="middle" x="43" y="-18.71" font-family="Helvetica,sans-Serif" font-size="10.00" fill="#000000">generalimport</text>
</g>
<!-- generalimport&#45;&gt;opencf_import_script -->
<g id="edge13" class="edge">
<title>generalimport&#45;&gt;opencf_import_script</title><style>.edge>path:hover{stroke-width:8}</style>
<path fill="none" stroke="black" d="M86.34,-21.21C105.15,-21.21 127.75,-21.21 148.74,-21.21"/>
<polygon fill="#40c040" stroke="black" points="148.88,-24.71 158.88,-21.21 148.88,-17.71 148.88,-24.71"/>
</g>
<!-- imageio -->
<g id="node20" class="node">
<title>imageio</title><style>.edge>path:hover{stroke-width:8}</style>
<polygon fill="#40c080" stroke="black" points="375.55,-333.21 372.55,-337.21 351.55,-337.21 348.55,-333.21 319.55,-333.21 319.55,-297.21 375.55,-297.21 375.55,-333.21"/>
<text text-anchor="middle" x="347.55" y="-312.71" font-family="Helvetica,sans-Serif" font-size="10.00" fill="#000000">imageio</text>
</g>
<!-- imageio&#45;&gt;opencf_io_handlers_video -->
<g id="edge14" class="edge">
<title>imageio&#45;&gt;opencf_io_handlers_video</title><style>.edge>path:hover{stroke-width:8}</style>
<path fill="none" stroke="black" d="M375.81,-321.64C399.39,-325.71 433.67,-327.92 459.55,-314.21 484.39,-301.06 475.8,-282.21 495.55,-262.21 498.92,-258.8 502.63,-255.48 506.48,-252.31"/>
<polygon fill="#40c080" stroke="black" points="508.77,-254.97 514.5,-246.05 504.47,-249.45 508.77,-254.97"/>
</g>
<!-- numpy -->
<g id="node21" class="node">
<title>numpy</title><style>.edge>path:hover{stroke-width:8}</style>
<polygon fill="#06f9f9" stroke="black" points="70,-93.21 67,-97.21 46,-97.21 43,-93.21 16,-93.21 16,-57.21 70,-57.21 70,-93.21"/>
<text text-anchor="middle" x="43" y="-72.71" font-family="Helvetica,sans-Serif" font-size="10.00" fill="#000000">numpy</text>
</g>
<!-- numpy&#45;&gt;opencf_converters_video -->
<g id="edge17" class="edge">
<title>numpy&#45;&gt;opencf_converters_video</title><style>.edge>path:hover{stroke-width:8}</style>
<path fill="none" stroke="black" d="M70.09,-73.65C85.29,-73.13 104.79,-73.13 122,-75.21"/>
<path fill="none" stroke="black" d="M123,-75.21C163.72,-80.13 174.85,-68.33 215.28,-75.21"/>
<path fill="none" stroke="black" d="M217.28,-75.21C273.92,-84.85 294.22,-98.94 346.55,-75.21"/>
<path fill="none" stroke="black" d="M348.55,-75.21C381.5,-60.27 386.32,-47.43 421.55,-39.21 438.67,-35.22 441.21,-56.1 458.55,-53.21"/>
<path fill="none" stroke="black" d="M459.55,-53.21C591.75,-18.8 748.25,-91.1 822.55,-132.28"/>
<polygon fill="#06f9f9" stroke="black" points="821.2,-135.53 831.63,-137.38 824.63,-129.43 821.2,-135.53"/>
</g>
<!-- numpy&#45;&gt;opencf_io_handlers_img_opencv -->
<g id="edge18" class="edge">
<title>numpy&#45;&gt;opencf_io_handlers_img_opencv</title><style>.edge>path:hover{stroke-width:8}</style>
<path fill="none" stroke="black" d="M217.28,-75.21C243.3,-79.64 252.6,-78.15 273.55,-94.21 296.44,-111.77 288.03,-129.01 309.55,-148.21 323.34,-160.52 328.11,-165.92 346.55,-167.21"/>
<path fill="none" stroke="black" d="M348.55,-167.21C388.29,-169.99 384.72,-130.38 421.55,-115.21 441.97,-106.81 465.81,-104.19 487.32,-104.13"/>
<polygon fill="#06f9f9" stroke="black" points="487.29,-107.63 497.34,-104.28 487.39,-100.63 487.29,-107.63"/>
</g>
<!-- numpy&#45;&gt;opencf_io_handlers_video -->
<g id="edge19" class="edge">
<title>numpy&#45;&gt;opencf_io_handlers_video</title><style>.edge>path:hover{stroke-width:8}</style>
<path fill="none" stroke="black" d="M348.55,-167.21C399.54,-174.28 455.76,-191.1 495.65,-204.64"/>
<polygon fill="#06f9f9" stroke="black" points="494.58,-207.98 505.18,-207.92 496.86,-201.36 494.58,-207.98"/>
</g>
<!-- numpy&#45;&gt;PIL -->
<g id="edge15" class="edge">
<title>numpy&#45;&gt;PIL</title><style>.edge>path:hover{stroke-width:8}</style>
<path fill="none" stroke="black" d="M123,-75.21C134.84,-76.64 159.36,-89.05 180.15,-100.62"/>
<polygon fill="#06f9f9" stroke="black" points="178.66,-103.8 189.09,-105.66 182.1,-97.7 178.66,-103.8"/>
</g>
<!-- numpy&#45;&gt;cv2 -->
<g id="edge16" class="edge">
<title>numpy&#45;&gt;cv2</title><style>.edge>path:hover{stroke-width:8}</style>
<path fill="none" stroke="black" d="M217.28,-75.21C250.18,-80.81 285.79,-94.06 311.28,-104.91"/>
<polygon fill="#06f9f9" stroke="black" points="309.97,-108.15 320.53,-108.93 312.76,-101.73 309.97,-108.15"/>
</g>
<!-- opencf_core -->
<g id="node22" class="node">
<title>opencf_core</title><style>.edge>path:hover{stroke-width:8}</style>
<polygon fill="#1010f9" stroke="black" points="385.55,-279.21 382.55,-283.21 361.55,-283.21 358.55,-279.21 309.55,-279.21 309.55,-243.21 385.55,-243.21 385.55,-279.21"/>
<text text-anchor="middle" x="347.55" y="-258.71" font-family="Helvetica,sans-Serif" font-size="10.00" fill="#ffffff">opencf_core</text>
</g>
<!-- opencf_core&#45;&gt;opencf_app -->
<g id="edge37" class="edge">
<title>opencf_core&#45;&gt;opencf_app</title><style>.edge>path:hover{stroke-width:8}</style>
<path fill="none" stroke="black" d="M459.55,-300.21C510.4,-315.64 452.7,-382.8 495.55,-414.21 540.78,-447.36 946.41,-430.11 1000.18,-414.21"/>
<path fill="none" stroke="black" d="M1002.18,-414.21C1031.01,-404.96 1062.84,-392.51 1086.94,-382.61"/>
<polygon fill="#1010f9" stroke="black" points="1088.53,-385.74 1096.43,-378.67 1085.85,-379.27 1088.53,-385.74"/>
</g>
<!-- opencf_core&#45;&gt;opencf_converters_document -->
<g id="edge38" class="edge">
<title>opencf_core&#45;&gt;opencf_converters_document</title><style>.edge>path:hover{stroke-width:8}</style>
<path fill="none" stroke="black" d="M375.71,-279.37C379.17,-282.16 382.55,-285.14 385.55,-288.21 445.54,-349.73 428.24,-393.8 495.55,-447.21 536.31,-479.56 556.41,-470.2 604.45,-490.21 643.25,-506.38 649.03,-528.02 691.06,-528.21"/>
<path fill="none" stroke="black" d="M693.06,-528.21C737.97,-528.58 786.29,-510.97 820.38,-495.23"/>
<polygon fill="#1010f9" stroke="black" points="822.07,-498.3 829.61,-490.86 819.07,-491.98 822.07,-498.3"/>
</g>
<!-- opencf_core&#45;&gt;opencf_converters_markup -->
<g id="edge39" class="edge">
<title>opencf_core&#45;&gt;opencf_converters_markup</title><style>.edge>path:hover{stroke-width:8}</style>
<path fill="none" stroke="black" d="M459.55,-167.21C509.52,-179.84 640.14,-189.14 691.06,-181.21"/>
<path fill="none" stroke="black" d="M693.06,-181.21C731.74,-173.51 744.67,-151.14 780.68,-167.21 795.32,-173.74 820.61,-203.23 839.86,-227.64"/>
<polygon fill="#1010f9" stroke="black" points="837.22,-229.94 846.12,-235.68 842.74,-225.64 837.22,-229.94"/>
</g>
<!-- opencf_core&#45;&gt;opencf_converters_structured -->
<g id="edge40" class="edge">
<title>opencf_core&#45;&gt;opencf_converters_structured</title><style>.edge>path:hover{stroke-width:8}</style>
<path fill="none" stroke="black" d="M693.06,-181.21C769.29,-178.73 758.95,-250.39 816.68,-300.21 820.08,-303.15 823.68,-306.13 827.32,-309.08"/>
<polygon fill="#1010f9" stroke="black" points="825.28,-311.93 835.29,-315.41 829.64,-306.45 825.28,-311.93"/>
</g>
<!-- opencf_core&#45;&gt;opencf_converters_video -->
<g id="edge41" class="edge">
<title>opencf_core&#45;&gt;opencf_converters_video</title><style>.edge>path:hover{stroke-width:8}</style>
<path fill="none" stroke="black" d="M356.91,-243.11C371.93,-211.15 403.57,-146.5 421.55,-129.21"/>
<path fill="none" stroke="black" d="M422.55,-129.21C449.5,-103.31 421.68,-59.35 458.55,-53.21"/>
</g>
<!-- opencf_core&#45;&gt;opencf_io_handlers_img_opencv -->
<g id="edge42" class="edge">
<title>opencf_core&#45;&gt;opencf_io_handlers_img_opencv</title><style>.edge>path:hover{stroke-width:8}</style>
<path fill="none" stroke="black" d="M422.55,-129.21C439.32,-113.09 436,-161.51 458.55,-167.21"/>
<path fill="none" stroke="black" d="M459.55,-167.21C465.3,-168.67 487.94,-154.21 509,-139.49"/>
<polygon fill="#1010f9" stroke="black" points="511.11,-142.28 517.26,-133.65 507.07,-136.57 511.11,-142.28"/>
</g>
<!-- opencf_core&#45;&gt;opencf_io_handlers_img_pillow -->
<g id="edge43" class="edge">
<title>opencf_core&#45;&gt;opencf_io_handlers_img_pillow</title><style>.edge>path:hover{stroke-width:8}</style>
<path fill="none" stroke="black" d="M459.55,-300.21C468.08,-302.8 477.28,-304.23 486.43,-304.89"/>
<polygon fill="#1010f9" stroke="black" points="486.54,-308.39 496.68,-305.32 486.84,-301.4 486.54,-308.39"/>
</g>
<!-- opencf_core&#45;&gt;opencf_io_handlers_pdf -->
<g id="edge44" class="edge">
<title>opencf_core&#45;&gt;opencf_io_handlers_pdf</title><style>.edge>path:hover{stroke-width:8}</style>
<path fill="none" stroke="black" d="M378.27,-279.23C381.07,-281.94 383.6,-284.93 385.55,-288.21 415.99,-339.26 364.49,-536.62 421.55,-553.21"/>
<path fill="none" stroke="black" d="M422.55,-553.21C447.09,-560.35 474.89,-556.14 498.17,-549.3"/>
<polygon fill="#1010f9" stroke="black" points="499.37,-552.59 507.84,-546.23 497.25,-545.92 499.37,-552.59"/>
</g>
<!-- opencf_core&#45;&gt;opencf_io_handlers_spreadsheet -->
<g id="edge45" class="edge">
<title>opencf_core&#45;&gt;opencf_io_handlers_spreadsheet</title><style>.edge>path:hover{stroke-width:8}</style>
<path fill="none" stroke="black" d="M459.55,-300.21C481.81,-306.97 477.99,-322.96 495.55,-338.21 499.17,-341.36 503.05,-344.5 507.01,-347.55"/>
<polygon fill="#1010f9" stroke="black" points="505.06,-350.47 515.17,-353.67 509.26,-344.87 505.06,-350.47"/>
</g>
<!-- opencf_core&#45;&gt;opencf_io_handlers_video -->
<g id="edge46" class="edge">
<title>opencf_core&#45;&gt;opencf_io_handlers_video</title><style>.edge>path:hover{stroke-width:8}</style>
<path fill="none" stroke="black" d="M385.64,-277.83C406.59,-286.32 433.51,-295.78 458.55,-300.21"/>
<path fill="none" stroke="black" d="M459.55,-300.21C481.81,-306.97 477.99,-277.47 495.55,-262.21 499.23,-259.02 503.16,-255.84 507.17,-252.74"/>
<polygon fill="#1010f9" stroke="black" points="509.54,-255.35 515.45,-246.55 505.34,-249.74 509.54,-255.35"/>
</g>
<!-- openpyxl -->
<g id="node23" class="node">
<title>openpyxl</title><style>.edge>path:hover{stroke-width:8}</style>
<polygon fill="#7f40c0" stroke="black" points="378.55,-425.21 375.55,-429.21 354.55,-429.21 351.55,-425.21 316.55,-425.21 316.55,-389.21 378.55,-389.21 378.55,-425.21"/>
<text text-anchor="middle" x="347.55" y="-404.71" font-family="Helvetica,sans-Serif" font-size="10.00" fill="#ffffff">openpyxl</text>
</g>
<!-- openpyxl&#45;&gt;opencf_io_handlers_spreadsheet -->
<g id="edge47" class="edge">
<title>openpyxl&#45;&gt;opencf_io_handlers_spreadsheet</title><style>.edge>path:hover{stroke-width:8}</style>
<path fill="none" stroke="black" d="M378.71,-402.62C401.03,-399.22 432.19,-394.45 459.55,-390.21 468.56,-388.82 478.08,-387.34 487.42,-385.88"/>
<polygon fill="#7f40c0" stroke="black" points="488.11,-389.31 497.45,-384.31 487.03,-382.4 488.11,-389.31"/>
</g>
<!-- pdf2docx -->
<g id="node24" class="node">
<title>pdf2docx</title><style>.edge>path:hover{stroke-width:8}</style>
<polygon fill="#c247c2" stroke="black" points="378.55,-571.21 375.55,-575.21 354.55,-575.21 351.55,-571.21 316.55,-571.21 316.55,-535.21 378.55,-535.21 378.55,-571.21"/>
<text text-anchor="middle" x="347.55" y="-550.71" font-family="Helvetica,sans-Serif" font-size="10.00" fill="#ffffff">pdf2docx</text>
</g>
<!-- pdf2docx&#45;&gt;opencf_converters_document -->
<g id="edge48" class="edge">
<title>pdf2docx&#45;&gt;opencf_converters_document</title><style>.edge>path:hover{stroke-width:8}</style>
<path fill="none" stroke="black" d="M373.66,-571.47C377.65,-574.38 381.72,-577.38 385.55,-580.21 401.63,-592.11 401.57,-608.08 421.55,-607.21"/>
</g>
<!-- pdf2docx&#45;&gt;opencf_io_handlers_pdf -->
<g id="edge49" class="edge">
<title>pdf2docx&#45;&gt;opencf_io_handlers_pdf</title><style>.edge>path:hover{stroke-width:8}</style>
<path fill="none" stroke="black" d="M378.57,-549.47C391.97,-548.75 407.8,-549.21 421.55,-553.21"/>
</g>
<!-- pypdf&#45;&gt;opencf_converters_document -->
<g id="edge50" class="edge">
<title>pypdf&#45;&gt;opencf_converters_document</title><style>.edge>path:hover{stroke-width:8}</style>
<path fill="none" stroke="black" d="M373.66,-642.96C377.65,-640.04 381.72,-637.05 385.55,-634.21 401.63,-622.32 401.57,-608.08 421.55,-607.21"/>
</g>
<!-- pypdf&#45;&gt;opencf_io_handlers_pdf -->
<g id="edge51" class="edge">
<title>pypdf&#45;&gt;opencf_io_handlers_pdf</title><style>.edge>path:hover{stroke-width:8}</style>
<path fill="none" stroke="black" d="M374.76,-644.81C378.69,-641.61 382.45,-638.05 385.55,-634.21 410.3,-603.56 383.72,-542.21 421.55,-553.21"/>
</g>
</g>
</svg>
