<?xml version="1.0" encoding="UTF-8" standalone="no"?>
<!DOCTYPE svg PUBLIC "-//W3C//DTD SVG 1.1//EN"
 "http://www.w3.org/Graphics/SVG/1.1/DTD/svg11.dtd">
<!-- Generated by graphviz version 2.43.0 (0)
 -->
<!-- Title: G Pages: 1 -->
<svg width="766pt" height="437pt"
 viewBox="0.00 0.00 766.23 436.65" xmlns="http://www.w3.org/2000/svg" xmlns:xlink="http://www.w3.org/1999/xlink">
<g id="graph0" class="graph" transform="scale(1 1) rotate(0) translate(4 432.65)">
<title>G</title><style>.edge>path:hover{stroke-width:8}</style>
<polygon fill="white" stroke="transparent" points="-4,4 -4,-432.65 762.23,-432.65 762.23,4 -4,4"/>
<!-- opencf -->
<g id="node1" class="node">
<title>opencf</title><style>.edge>path:hover{stroke-width:8}</style>
<ellipse fill="#614cb3" stroke="black" cx="338.98" cy="-21.21" rx="29.37" ry="18"/>
<text text-anchor="middle" x="338.98" y="-18.71" font-family="Helvetica,sans-Serif" font-size="10.00" fill="#ffffff">opencf</text>
</g>
<!-- opencf_app -->
<g id="node2" class="node">
<title>opencf_app</title><style>.edge>path:hover{stroke-width:8}</style>
<ellipse fill="#5946a4" stroke="black" cx="717.03" cy="-125.21" rx="41.41" ry="18"/>
<text text-anchor="middle" x="717.03" y="-122.71" font-family="Helvetica,sans-Serif" font-size="10.00" fill="#ffffff">opencf.app</text>
</g>
<!-- opencf_converters -->
<g id="node3" class="node">
<title>opencf_converters</title><style>.edge>path:hover{stroke-width:8}</style>
<ellipse fill="#311e7a" stroke="black" cx="591.74" cy="-183.21" rx="48.17" ry="21.43"/>
<text text-anchor="middle" x="591.74" y="-186.21" font-family="Helvetica,sans-Serif" font-size="10.00" fill="#ffffff">opencf.</text>
<text text-anchor="middle" x="591.74" y="-175.21" font-family="Helvetica,sans-Serif" font-size="10.00" fill="#ffffff">converters</text>
</g>
<!-- opencf_converters&#45;&gt;opencf_app -->
<g id="edge14" class="edge">
<title>opencf_converters&#45;&gt;opencf_app</title><style>.edge>path:hover{stroke-width:8}</style>
<path fill="none" stroke="black" d="M625.45,-167.82C641.95,-160.06 662.01,-150.62 679.06,-142.6"/>
<polygon fill="#311e7a" stroke="black" points="680.62,-145.74 688.18,-138.31 677.64,-139.4 680.62,-145.74"/>
</g>
<!-- opencf_import_script -->
<g id="node4" class="node">
<title>opencf_import_script</title><style>.edge>path:hover{stroke-width:8}</style>
<ellipse fill="#5940c0" stroke="black" cx="216.28" cy="-21.21" rx="57.05" ry="21.43"/>
<text text-anchor="middle" x="216.28" y="-24.21" font-family="Helvetica,sans-Serif" font-size="10.00" fill="#ffffff">opencf.</text>
<text text-anchor="middle" x="216.28" y="-13.21" font-family="Helvetica,sans-Serif" font-size="10.00" fill="#ffffff">import_script</text>
</g>
<!-- opencf_import_script&#45;&gt;opencf -->
<g id="edge15" class="edge">
<title>opencf_import_script&#45;&gt;opencf</title><style>.edge>path:hover{stroke-width:8}</style>
<path fill="none" stroke="black" d="M273.74,-21.21C282.46,-21.21 291.28,-21.21 299.48,-21.21"/>
<polygon fill="#5940c0" stroke="black" points="299.48,-24.71 309.48,-21.21 299.48,-17.71 299.48,-24.71"/>
</g>
<!-- opencf_io_handlers -->
<g id="node5" class="node">
<title>opencf_io_handlers</title><style>.edge>path:hover{stroke-width:8}</style>
<ellipse fill="#311e7a" stroke="black" cx="456.04" cy="-208.21" rx="51.74" ry="21.43"/>
<text text-anchor="middle" x="456.04" y="-211.21" font-family="Helvetica,sans-Serif" font-size="10.00" fill="#ffffff">opencf.</text>
<text text-anchor="middle" x="456.04" y="-200.21" font-family="Helvetica,sans-Serif" font-size="10.00" fill="#ffffff">io_handlers</text>
</g>
<!-- opencf_io_handlers&#45;&gt;opencf_converters -->
<g id="edge16" class="edge">
<title>opencf_io_handlers&#45;&gt;opencf_converters</title><style>.edge>path:hover{stroke-width:8}</style>
<path fill="none" stroke="black" d="M503.42,-199.54C514.28,-197.51 525.93,-195.33 537.08,-193.25"/>
<polygon fill="#311e7a" stroke="black" points="537.94,-196.65 547.13,-191.37 536.66,-189.76 537.94,-196.65"/>
</g>
<!-- PIL -->
<g id="node6" class="node">
<title>PIL</title><style>.edge>path:hover{stroke-width:8}</style>
<polygon fill="#d92626" stroke="black" points="243.28,-153.21 240.28,-157.21 219.28,-157.21 216.28,-153.21 189.28,-153.21 189.28,-117.21 243.28,-117.21 243.28,-153.21"/>
<text text-anchor="middle" x="216.28" y="-132.71" font-family="Helvetica,sans-Serif" font-size="10.00" fill="#ffffff">PIL</text>
</g>
<!-- PIL&#45;&gt;opencf_converters -->
<g id="edge1" class="edge">
<title>PIL&#45;&gt;opencf_converters</title><style>.edge>path:hover{stroke-width:8}</style>
<path fill="none" stroke="black" d="M243.47,-147.44C252.99,-151.98 263.81,-157.23 273.55,-162.21 302.57,-177.04 305.9,-191.49 337.98,-197.21"/>
<path fill="none" stroke="black" d="M339.98,-197.21C393,-206.67 401.45,-153.9 455.04,-159.21"/>
</g>
<!-- PIL&#45;&gt;opencf_io_handlers -->
<g id="edge2" class="edge">
<title>PIL&#45;&gt;opencf_io_handlers</title><style>.edge>path:hover{stroke-width:8}</style>
<path fill="none" stroke="black" d="M339.98,-197.21C357.57,-200.35 376.84,-202.64 394.49,-204.28"/>
<polygon fill="#d92626" stroke="black" points="394.41,-207.79 404.68,-205.18 395.02,-200.82 394.41,-207.79"/>
</g>
<!-- PyPDF2 -->
<g id="node7" class="node">
<title>PyPDF2</title><style>.edge>path:hover{stroke-width:8}</style>
<polygon fill="#c29147" stroke="black" points="243.28,-353.21 240.28,-357.21 219.28,-357.21 216.28,-353.21 189.28,-353.21 189.28,-317.21 243.28,-317.21 243.28,-353.21"/>
<text text-anchor="middle" x="216.28" y="-332.71" font-family="Helvetica,sans-Serif" font-size="10.00" fill="#000000">PyPDF2</text>
</g>
<!-- PyPDF2&#45;&gt;opencf_converters -->
<g id="edge3" class="edge">
<title>PyPDF2&#45;&gt;opencf_converters</title><style>.edge>path:hover{stroke-width:8}</style>
<path fill="none" stroke="black" d="M243.7,-331.29C268.51,-328.52 306.44,-326.64 337.98,-335.21"/>
</g>
<!-- PyPDF2&#45;&gt;opencf_io_handlers -->
<g id="edge4" class="edge">
<title>PyPDF2&#45;&gt;opencf_io_handlers</title><style>.edge>path:hover{stroke-width:8}</style>
<path fill="none" stroke="black" d="M243.44,-325.28C253.38,-320.85 264.48,-315.08 273.55,-308.21 308.07,-282.11 295.7,-244.4 337.98,-235.21"/>
</g>
<!-- aspose -->
<g id="node8" class="node">
<title>aspose</title><style>.edge>path:hover{stroke-width:8}</style>
<polygon fill="#a2b653" stroke="black" points="365.98,-131.21 362.98,-135.21 341.98,-135.21 338.98,-131.21 311.98,-131.21 311.98,-95.21 365.98,-95.21 365.98,-131.21"/>
<text text-anchor="middle" x="338.98" y="-110.71" font-family="Helvetica,sans-Serif" font-size="10.00" fill="#000000">aspose</text>
</g>
<!-- aspose&#45;&gt;opencf_converters -->
<g id="edge5" class="edge">
<title>aspose&#45;&gt;opencf_converters</title><style>.edge>path:hover{stroke-width:8}</style>
<path fill="none" stroke="black" d="M366.31,-128.7C388.95,-140.78 422.93,-156.03 455.04,-159.21"/>
<path fill="none" stroke="black" d="M457.04,-159.21C484.16,-161.9 514.04,-167.06 538.67,-171.9"/>
<polygon fill="#a2b653" stroke="black" points="538.03,-175.34 548.53,-173.88 539.41,-168.48 538.03,-175.34"/>
</g>
<!-- cv2 -->
<g id="node9" class="node">
<title>cv2</title><style>.edge>path:hover{stroke-width:8}</style>
<polygon fill="#51cc33" stroke="black" points="243.28,-299.21 240.28,-303.21 219.28,-303.21 216.28,-299.21 189.28,-299.21 189.28,-263.21 243.28,-263.21 243.28,-299.21"/>
<text text-anchor="middle" x="216.28" y="-278.71" font-family="Helvetica,sans-Serif" font-size="10.00" fill="#000000">cv2</text>
</g>
<!-- cv2&#45;&gt;opencf_converters -->
<g id="edge6" class="edge">
<title>cv2&#45;&gt;opencf_converters</title><style>.edge>path:hover{stroke-width:8}</style>
<path fill="none" stroke="black" d="M243.53,-293.48C276.05,-308.59 328.35,-332.6 337.98,-335.21"/>
<path fill="none" stroke="black" d="M339.98,-335.21C391.95,-349.33 407.15,-397.86 455.04,-373.21"/>
<path fill="none" stroke="black" d="M457.04,-373.21C522.05,-339.75 562.04,-258.4 579.84,-213.77"/>
<polygon fill="#51cc33" stroke="black" points="583.15,-214.89 583.49,-204.3 576.62,-212.37 583.15,-214.89"/>
</g>
<!-- cv2&#45;&gt;opencf_io_handlers -->
<g id="edge7" class="edge">
<title>cv2&#45;&gt;opencf_io_handlers</title><style>.edge>path:hover{stroke-width:8}</style>
<path fill="none" stroke="black" d="M243.42,-268.62C267.41,-257.7 304.23,-242.54 337.98,-235.21"/>
</g>
<!-- generalimport -->
<g id="node10" class="node">
<title>generalimport</title><style>.edge>path:hover{stroke-width:8}</style>
<polygon fill="#40c073" stroke="black" points="86,-39.21 83,-43.21 62,-43.21 59,-39.21 0,-39.21 0,-3.21 86,-3.21 86,-39.21"/>
<text text-anchor="middle" x="43" y="-18.71" font-family="Helvetica,sans-Serif" font-size="10.00" fill="#000000">generalimport</text>
</g>
<!-- generalimport&#45;&gt;opencf_import_script -->
<g id="edge8" class="edge">
<title>generalimport&#45;&gt;opencf_import_script</title><style>.edge>path:hover{stroke-width:8}</style>
<path fill="none" stroke="black" d="M86.34,-21.21C105.15,-21.21 127.75,-21.21 148.74,-21.21"/>
<polygon fill="#40c073" stroke="black" points="148.88,-24.71 158.88,-21.21 148.88,-17.71 148.88,-24.71"/>
</g>
<!-- imageio -->
<g id="node11" class="node">
<title>imageio</title><style>.edge>path:hover{stroke-width:8}</style>
<polygon fill="#40bfc0" stroke="black" points="244.28,-207.21 241.28,-211.21 220.28,-211.21 217.28,-207.21 188.28,-207.21 188.28,-171.21 244.28,-171.21 244.28,-207.21"/>
<text text-anchor="middle" x="216.28" y="-186.71" font-family="Helvetica,sans-Serif" font-size="10.00" fill="#000000">imageio</text>
</g>
<!-- imageio&#45;&gt;opencf_io_handlers -->
<g id="edge9" class="edge">
<title>imageio&#45;&gt;opencf_io_handlers</title><style>.edge>path:hover{stroke-width:8}</style>
<path fill="none" stroke="black" d="M244.53,-203.6C274.17,-218.53 319.74,-239.18 337.98,-235.21"/>
<path fill="none" stroke="black" d="M339.98,-235.21C360.05,-230.86 382,-225.78 401.31,-221.21"/>
<polygon fill="#40bfc0" stroke="black" points="402.21,-224.6 411.13,-218.88 400.6,-217.78 402.21,-224.6"/>
</g>
<!-- numpy -->
<g id="node12" class="node">
<title>numpy</title><style>.edge>path:hover{stroke-width:8}</style>
<polygon fill="#0c68f3" stroke="black" points="70,-299.21 67,-303.21 46,-303.21 43,-299.21 16,-299.21 16,-263.21 70,-263.21 70,-299.21"/>
<text text-anchor="middle" x="43" y="-278.71" font-family="Helvetica,sans-Serif" font-size="10.00" fill="#ffffff">numpy</text>
</g>
<!-- numpy&#45;&gt;opencf_converters -->
<g id="edge12" class="edge">
<title>numpy&#45;&gt;opencf_converters</title><style>.edge>path:hover{stroke-width:8}</style>
<path fill="none" stroke="black" d="M123,-281.21C185.06,-278.98 109.76,-378.38 159,-416.21 214.76,-459.06 453.71,-373.9 455.04,-373.21"/>
</g>
<!-- numpy&#45;&gt;opencf_io_handlers -->
<g id="edge13" class="edge">
<title>numpy&#45;&gt;opencf_io_handlers</title><style>.edge>path:hover{stroke-width:8}</style>
<path fill="none" stroke="black" d="M123,-281.21C142.97,-280.2 140.39,-261.53 159,-254.21 233.45,-224.94 259.81,-252.19 337.98,-235.21"/>
</g>
<!-- numpy&#45;&gt;PIL -->
<g id="edge10" class="edge">
<title>numpy&#45;&gt;PIL</title><style>.edge>path:hover{stroke-width:8}</style>
<path fill="none" stroke="black" d="M70.02,-281.87C85.19,-282.09 104.69,-282.09 122,-281.21"/>
<path fill="none" stroke="black" d="M123,-281.21C178.19,-278.43 123.04,-204.17 159,-162.21 164.57,-155.72 172.05,-150.66 179.73,-146.78"/>
<polygon fill="#0c68f3" stroke="black" points="181.39,-149.87 189.1,-142.6 178.54,-143.48 181.39,-149.87"/>
</g>
<!-- numpy&#45;&gt;cv2 -->
<g id="edge11" class="edge">
<title>numpy&#45;&gt;cv2</title><style>.edge>path:hover{stroke-width:8}</style>
<path fill="none" stroke="black" d="M123,-281.21C141.42,-280.28 161.93,-280.19 178.93,-280.37"/>
<polygon fill="#0c68f3" stroke="black" points="178.96,-283.87 189.01,-280.51 179.06,-276.87 178.96,-283.87"/>
</g>
<!-- opencf_core -->
<g id="node13" class="node">
<title>opencf_core</title><style>.edge>path:hover{stroke-width:8}</style>
<polygon fill="#b13bce" stroke="black" points="254.28,-98.21 251.28,-102.21 230.28,-102.21 227.28,-98.21 178.28,-98.21 178.28,-62.21 254.28,-62.21 254.28,-98.21"/>
<text text-anchor="middle" x="216.28" y="-77.71" font-family="Helvetica,sans-Serif" font-size="10.00" fill="#ffffff">opencf_core</text>
</g>
<!-- opencf_core&#45;&gt;opencf_app -->
<g id="edge17" class="edge">
<title>opencf_core&#45;&gt;opencf_app</title><style>.edge>path:hover{stroke-width:8}</style>
<path fill="none" stroke="black" d="M254.28,-80.94C284.9,-81.72 329.53,-83.26 368.42,-86.21 475.33,-94.32 600.11,-109.8 667.26,-118.62"/>
<polygon fill="#b13bce" stroke="black" points="667.16,-122.14 677.53,-119.98 668.08,-115.2 667.16,-122.14"/>
</g>
<!-- opencf_core&#45;&gt;opencf_converters -->
<g id="edge18" class="edge">
<title>opencf_core&#45;&gt;opencf_converters</title><style>.edge>path:hover{stroke-width:8}</style>
<path fill="none" stroke="black" d="M254.4,-96.93C260.95,-100.37 267.58,-104.18 273.55,-108.21 303.81,-128.66 304.19,-145.36 337.98,-159.21"/>
<path fill="none" stroke="black" d="M339.98,-159.21C387.3,-178.61 404.15,-154.16 455.04,-159.21"/>
</g>
<!-- opencf_core&#45;&gt;opencf_io_handlers -->
<g id="edge19" class="edge">
<title>opencf_core&#45;&gt;opencf_io_handlers</title><style>.edge>path:hover{stroke-width:8}</style>
<path fill="none" stroke="black" d="M339.98,-159.21C363.33,-168.79 389.18,-179.76 410.46,-188.9"/>
<polygon fill="#b13bce" stroke="black" points="409.32,-192.22 419.89,-192.96 412.09,-185.79 409.32,-192.22"/>
</g>
<!-- pandas -->
<g id="node14" class="node">
<title>pandas</title><style>.edge>path:hover{stroke-width:8}</style>
<polygon fill="#cc338f" stroke="black" points="243.28,-407.21 240.28,-411.21 219.28,-411.21 216.28,-407.21 189.28,-407.21 189.28,-371.21 243.28,-371.21 243.28,-407.21"/>
<text text-anchor="middle" x="216.28" y="-386.71" font-family="Helvetica,sans-Serif" font-size="10.00" fill="#ffffff">pandas</text>
</g>
<!-- pandas&#45;&gt;opencf_converters -->
<g id="edge20" class="edge">
<title>pandas&#45;&gt;opencf_converters</title><style>.edge>path:hover{stroke-width:8}</style>
<path fill="none" stroke="black" d="M339.98,-373.21C387.62,-354.64 409.57,-396.61 455.04,-373.21"/>
</g>
<!-- pandas&#45;&gt;opencf_io_handlers -->
<g id="edge21" class="edge">
<title>pandas&#45;&gt;opencf_io_handlers</title><style>.edge>path:hover{stroke-width:8}</style>
<path fill="none" stroke="black" d="M243.6,-389.3C268.67,-388.56 307.06,-385.27 337.98,-373.21"/>
<path fill="none" stroke="black" d="M339.98,-373.21C397.7,-350.71 430.67,-280.18 445.48,-238.98"/>
<polygon fill="#cc338f" stroke="black" points="448.82,-240.02 448.77,-229.43 442.2,-237.74 448.82,-240.02"/>
</g>
</g>
</svg>
